<?xml version="1.0" encoding="UTF-8"?>
<svg width="234" height="246" viewBox="0 0 234 246" fill="none" xmlns="http://www.w3.org/2000/svg">
<path d="M202.051 68.6607C207.75 74.2977 213.333 78.9146 217.754 84.4584C221.879 89.6322 219.486 93.7943 212.854 93.399C207.673 93.0892 202.562 91.5936 195.773 90.315C200.328 95.6396 204.215 99.5106 207.205 103.982C208.6 106.067 208.255 109.314 208.697 112.034C205.771 112.379 202.211 113.964 200.034 112.847C191.29 108.363 182.451 103.736 174.627 97.8597C163.821 89.7445 152.934 81.722 139.373 79.9931C133.711 79.2714 126.476 81.0122 121.877 84.3123C115.943 88.5677 117.958 97.717 124.078 105.856C133.979 119.019 148.784 124.22 163.042 130.069C175.354 135.12 188.185 138.892 200.687 143.506C204.474 144.903 207.921 147.216 211.979 150.386C186.308 156.503 171.985 170.344 177.377 198.71C176.602 198.71 175.827 198.707 175.05 198.706C172.034 195.978 168.656 193.558 166.066 190.475C154.591 176.821 144.169 162.163 131.696 149.515C124.492 142.209 114.605 136.883 105.02 132.787C96.3235 129.069 86.8776 133.592 83.5503 140.353C80.0034 147.562 81.9334 158.357 89.7963 163.143C105.015 172.403 121.062 180.3 136.731 188.824C142.815 192.132 149.059 195.243 154.721 199.179C156.931 200.715 157.742 204.268 159.188 206.903C156.317 207.755 153.288 209.656 150.61 209.247C144.713 208.349 138.993 206.288 131.51 204.237C133.151 206.935 133.752 208.53 134.857 209.61C137.146 211.846 140.256 213.424 142.019 215.97C144.569 219.656 146.225 223.963 148.262 228.003C143.971 228.562 139.672 229.586 135.389 229.531C132.029 229.49 128.684 228.115 123.685 226.948C126.699 230.763 129.308 233.24 130.835 236.264C132.007 238.585 133.028 242.464 131.89 244.055C130.74 245.664 126.457 246.417 124.219 245.631C113.912 242.005 103.8 237.807 93.6922 233.632C70.5132 224.062 49.2996 211.51 31.8487 193.123C17.216 177.706 6.47699 160.221 2.02123 139.217C-1.16907 124.176 2.69361 110.703 10.9987 98.1533C14.678 92.593 18.9421 87.2327 21.5235 81.177C26.8862 68.5982 21.3305 57.8737 14.2567 47.6428C11.499 43.6564 9.18861 39.3601 6.67569 35.2028C11.6395 35.827 16.6923 36.056 21.5508 37.1507C38.2216 40.9117 51.8648 36.4204 63.3819 23.7039C89.6977 -5.33691 120.527 -4.53169 154.031 9.61135C180.424 20.7559 204.546 35.1379 225.593 54.463C229.148 57.7282 230.794 63.0748 233.32 67.4581C228.658 68.3807 223.994 70.0336 219.331 70.0308C214.099 70.027 208.877 68.4831 203.631 67.7382C203.068 67.6577 202.383 68.4537 202.048 68.6613L202.051 68.6607Z" fill="#EFF5F2"/>
</svg>
