<?xml version="1.0" encoding="UTF-8"?>
<svg width="64" height="64" viewBox="0 0 64 64" fill="none" xmlns="http://www.w3.org/2000/svg">
    <path d="M20.7826 37.5282L16.1456 35.8913C14.8057 35.4315 14.1375 34.6911 14.1375 33.6736C14.1375 32.9464 14.4843 32.3524 15.178 31.8926C15.8717 31.4328 16.7421 31.2007 17.7881 31.2007C18.8341 31.2007 19.7896 31.4075 20.5087 31.8189C21.2267 32.2314 21.6817 32.8012 21.8773 33.5284L24.7624 33.0201C24.494 31.6385 23.7573 30.5417 22.5533 29.7288C21.3482 28.9169 19.8338 28.5099 18.0079 28.5099C15.9622 28.5099 14.3131 28.9829 13.0594 29.929C11.8057 30.8739 11.1794 32.1962 11.1794 33.8914C11.1794 36.1707 12.506 37.7581 15.1592 38.6557L19.6869 40.2189C21.3658 40.8008 22.2064 41.6611 22.2064 42.8007C22.2064 43.6005 21.8099 44.255 21.0201 44.7643C20.2281 45.2736 19.2484 45.5278 18.0808 45.5278C16.9133 45.5278 15.8838 45.2736 15.0686 44.7643C14.2523 44.255 13.7475 43.5895 13.5531 42.7644L10.668 43.2737C10.9364 44.8017 11.7206 46.0063 13.0229 46.8918C14.3263 47.7774 15.9876 48.2196 18.0079 48.2196C20.0282 48.2196 21.8408 47.7279 23.1564 46.7466C24.4708 45.7643 25.128 44.4134 25.128 42.6929C25.128 40.3168 23.6788 38.5952 20.7826 37.5293V37.5282Z" fill="#EFF5F2"/>
    <path d="M41.7417 30.6563C40.2572 29.2263 38.4191 28.5101 36.2277 28.5101C33.2099 28.5101 30.9455 29.6993 29.4367 32.0743V20.5468H26.3682V47.8194H29.4367V36.9101C29.4367 35.3822 30.0089 34.0863 31.1532 33.0192C32.2965 31.9522 33.7092 31.4198 35.3882 31.4198C36.9456 31.4198 38.249 31.9412 39.2962 32.9829C40.3422 34.0247 40.8658 35.3107 40.8658 36.8364V47.6159C41.8687 47.1725 42.9755 47.1263 43.9332 47.4916V36.0367C43.9332 33.8553 43.2031 32.06 41.7428 30.6552L41.7417 30.6563Z" fill="#EFF5F2"/>
</svg> 