<?xml version="1.0" encoding="UTF-8"?>
<svg width="215" height="63" viewBox="0 0 215 63" fill="none" xmlns="http://www.w3.org/2000/svg">
<path d="M5.44334 41.124L9.10502 21.3549C9.44192 19.4353 9.53912 18.5244 9.53912 17.8039C9.53912 15.309 8.33513 14.8767 5.63664 14.8767V14.0615H17.2966V14.8767C13.9718 14.8767 12.96 15.5488 11.9968 20.6343L8.33513 40.4034C7.99823 42.323 7.90103 43.2339 7.90103 43.9544C7.90103 46.4493 9.10502 46.8332 11.8035 46.8332V47.6484H0.143555V46.8332C3.46834 46.8332 4.48014 46.2095 5.44334 41.1229V41.124Z" fill="#062D24"/>
<path d="M6.79395 11.2219C8.82296 11.2219 10.4678 9.58377 10.4678 7.56308C10.4678 5.54239 8.82296 3.9043 6.79395 3.9043C4.76495 3.9043 3.12012 5.54239 3.12012 7.56308C3.12012 9.58377 4.76495 11.2219 6.79395 11.2219Z" fill="#062D24"/>
<path d="M16.667 11.2219C18.696 11.2219 20.3408 9.58377 20.3408 7.56308C20.3408 5.54239 18.696 3.9043 16.667 3.9043C14.638 3.9043 12.9932 5.54239 12.9932 7.56308C12.9932 9.58377 14.638 11.2219 16.667 11.2219Z" fill="#062D24"/>
<path d="M20.7826 36.9567L16.1456 35.3198C14.8057 34.86 14.1375 34.1197 14.1375 33.1021C14.1375 32.375 14.4843 31.781 15.178 31.3211C15.8717 30.8613 16.7421 30.6292 17.7881 30.6292C18.8341 30.6292 19.7896 30.836 20.5087 31.2474C21.2267 31.66 21.6817 32.2298 21.8773 32.9569L24.7624 32.4487C24.494 31.067 23.7573 29.9703 22.5533 29.1573C21.3482 28.3455 19.8338 27.9385 18.0079 27.9385C15.9622 27.9385 14.3131 28.4115 13.0594 29.3575C11.8057 30.3025 11.1794 31.6248 11.1794 33.3199C11.1794 35.5993 12.506 37.1866 15.1592 38.0843L19.6869 39.6475C21.3658 40.2294 22.2064 41.0896 22.2064 42.2293C22.2064 43.029 21.8099 43.6835 21.0201 44.1929C20.2281 44.7022 19.2484 44.9563 18.0808 44.9563C16.9133 44.9563 15.8838 44.7022 15.0686 44.1929C14.2523 43.6835 13.7475 43.018 13.5531 42.193L10.668 42.7023C10.9364 44.2303 11.7206 45.4348 13.0229 46.3204C14.3263 47.2059 15.9876 47.6481 18.0079 47.6481C20.0282 47.6481 21.8408 47.1564 23.1564 46.1752C24.4708 45.1928 25.128 43.842 25.128 42.1215C25.128 39.7454 23.6788 38.0238 20.7826 36.9578V36.9567Z" fill="#062D24"/>
<path d="M41.7417 30.0841C40.2572 28.654 38.4191 27.9379 36.2277 27.9379C33.2099 27.9379 30.9455 29.1271 29.4367 31.5021V19.9746H26.3682V47.2472H29.4367V36.3379C29.4367 34.8099 30.0089 33.5141 31.1532 32.447C32.2965 31.38 33.7092 30.8475 35.3882 30.8475C36.9456 30.8475 38.249 31.369 39.2962 32.4107C40.3422 33.4525 40.8658 34.7384 40.8658 36.2642V47.0436C41.8687 46.6003 42.9755 46.5541 43.9332 46.9193V35.4645C43.9332 33.2831 43.2031 31.4878 41.7428 30.083L41.7417 30.0841Z" fill="#062D24"/>
<path d="M0.376764 51.7594H0.117188V49.7441H0.377869V51.7594H0.376764Z" fill="#062D24"/>
<path d="M0.633917 51.7604V50.2632H0.876925V50.514C0.99622 50.3259 1.17516 50.2324 1.41154 50.2324C1.58496 50.2324 1.72856 50.2896 1.84233 50.4018C1.95831 50.5129 2.01575 50.6548 2.01575 50.8275V51.7604H1.77274V50.8914C1.77274 50.7703 1.73077 50.6691 1.64792 50.5866C1.56729 50.5041 1.46567 50.4623 1.34416 50.4623C1.21272 50.4623 1.10226 50.5041 1.01168 50.5888C0.921108 50.6735 0.87582 50.7758 0.87582 50.8969V51.7604H0.632812H0.633917Z" fill="#062D24"/>
<path d="M2.2472 51.7604V50.2632H2.49021V50.514C2.6095 50.3259 2.78844 50.2324 3.02482 50.2324C3.19824 50.2324 3.34184 50.2896 3.45561 50.4018C3.57159 50.5129 3.62903 50.6548 3.62903 50.8275V51.7604H3.38602V50.8914C3.38602 50.7703 3.34405 50.6691 3.2612 50.5866C3.18057 50.5041 3.07895 50.4623 2.95744 50.4623C2.826 50.4623 2.71554 50.5041 2.62497 50.5888C2.53439 50.6735 2.4891 50.7758 2.4891 50.8969V51.7604H2.24609H2.2472Z" fill="#062D24"/>
<path d="M4.00425 51.5702C3.85623 51.4184 3.78223 51.2325 3.78223 51.0114C3.78223 50.7903 3.85623 50.6033 4.00425 50.4559C4.15447 50.3062 4.34114 50.2314 4.56537 50.2314C4.7896 50.2314 4.97628 50.3062 5.1265 50.4559C5.27673 50.6033 5.35184 50.7892 5.35184 51.0114C5.35184 51.2336 5.27673 51.4206 5.1265 51.5702C4.97407 51.7176 4.7874 51.7913 4.56537 51.7913C4.34335 51.7913 4.15668 51.7176 4.00425 51.5702ZM4.56427 51.5493C4.7167 51.5493 4.84373 51.4987 4.94535 51.3964C5.04697 51.2908 5.09889 51.1621 5.09889 51.0103C5.09889 50.8585 5.04808 50.7287 4.94535 50.6275C4.84373 50.5241 4.7156 50.4724 4.56427 50.4724C4.41294 50.4724 4.28592 50.5241 4.1854 50.6275C4.08378 50.7287 4.03186 50.8563 4.03186 51.0103C4.03186 51.1643 4.08267 51.2908 4.1854 51.3964C4.28702 51.4976 4.41405 51.5493 4.56427 51.5493Z" fill="#062D24"/>
<path d="M5.94025 51.7599L5.29297 50.2627H5.54481L6.05071 51.4486L6.55992 50.2627H6.81177L6.16448 51.7599H5.94246H5.94025Z" fill="#062D24"/>
<path d="M7.48909 50.2316C7.71443 50.2316 7.89779 50.313 8.03807 50.4758V50.2624H8.28108V51.7595H8.03807V51.5461C7.89779 51.7089 7.71443 51.7903 7.48909 51.7903C7.27922 51.7903 7.10249 51.7166 6.96 51.5692C6.81972 51.4218 6.74902 51.2348 6.74902 51.0104C6.74902 50.786 6.81972 50.6012 6.96 50.4549C7.10028 50.3053 7.27701 50.2305 7.48909 50.2305V50.2316ZM7.5156 50.4736C7.3709 50.4736 7.24829 50.5253 7.14888 50.6287C7.05057 50.7299 7.00197 50.8575 7.00197 51.0115C7.00197 51.1655 7.05057 51.2931 7.14888 51.3976C7.2505 51.4988 7.37311 51.5505 7.5156 51.5505C7.65809 51.5505 7.78402 51.4999 7.88232 51.3976C7.98284 51.2964 8.03255 51.1677 8.03255 51.0115C8.03255 50.8553 7.98284 50.7288 7.88232 50.6287C7.78402 50.5253 7.66141 50.4736 7.5156 50.4736Z" fill="#062D24"/>
<path d="M8.35547 50.4755V50.2621H8.59848V49.9629H8.84148V50.2621H9.26012V50.4755H8.84148V51.2907C8.84148 51.3578 8.86247 51.4139 8.90334 51.459C8.94421 51.5041 8.99613 51.5261 9.05798 51.5261H9.26012V51.7593H9.04031C8.91549 51.7593 8.81056 51.7175 8.7255 51.6328C8.64045 51.5481 8.59848 51.4436 8.59848 51.3193V50.4755H8.35547Z" fill="#062D24"/>
<path d="M9.39112 50.0187C9.36019 49.9857 9.34473 49.9461 9.34473 49.8977C9.34473 49.8493 9.36019 49.8108 9.39112 49.78C9.42426 49.747 9.46402 49.7305 9.51262 49.7305C9.56122 49.7305 9.60099 49.747 9.63413 49.78C9.66726 49.8108 9.68383 49.8504 9.68383 49.8977C9.68383 49.945 9.66726 49.9857 9.63413 50.0187C9.60099 50.0495 9.56122 50.0649 9.51262 50.0649C9.46402 50.0649 9.42426 50.0495 9.39112 50.0187ZM9.63413 51.7601H9.39112V50.2629H9.63413V51.7601Z" fill="#062D24"/>
<path d="M10.3524 51.7599L9.70508 50.2627H9.95692L10.4628 51.4486L10.972 50.2627H11.2239L10.5766 51.7599H10.3546H10.3524Z" fill="#062D24"/>
<path d="M12.7063 51.096H11.414C11.4316 51.2302 11.4913 51.3424 11.5929 51.4326C11.6934 51.5206 11.816 51.5646 11.9629 51.5646C12.154 51.5646 12.302 51.4931 12.4081 51.349L12.6456 51.4238C12.576 51.5393 12.481 51.6295 12.3606 51.6944C12.2402 51.7593 12.1076 51.7923 11.9629 51.7923C11.7354 51.7923 11.5443 51.7186 11.3908 51.5712C11.2383 51.4216 11.1621 51.2357 11.1621 51.0124C11.1621 50.789 11.2361 50.6042 11.3841 50.4568C11.5321 50.3072 11.7166 50.2324 11.9364 50.2324C12.1562 50.2324 12.3418 50.3072 12.4887 50.4568C12.6367 50.6042 12.7107 50.7901 12.7107 51.0124C12.7107 51.0179 12.7085 51.0465 12.7052 51.096H12.7063ZM11.4173 50.9002H12.4611C12.4379 50.7714 12.3771 50.6647 12.2788 50.5811C12.1827 50.4986 12.0668 50.4579 11.932 50.4579C11.7972 50.4579 11.6879 50.4997 11.594 50.5811C11.5001 50.6636 11.4405 50.7703 11.4173 50.9002Z" fill="#062D24"/>
<path d="M1.11673 53.2867L0.888083 53.3274C0.872619 53.2702 0.836168 53.2251 0.779834 53.1921C0.723501 53.1591 0.651703 53.1437 0.564441 53.1437C0.477179 53.1437 0.413113 53.1624 0.357884 53.1987C0.302655 53.235 0.275041 53.2823 0.275041 53.3395C0.275041 53.4198 0.328061 53.4792 0.4341 53.5155L0.800821 53.6453C1.03057 53.73 1.14435 53.8664 1.14435 54.0545C1.14435 54.191 1.09243 54.2977 0.9886 54.3758C0.884769 54.4539 0.748906 54.4924 0.58101 54.4924C0.413113 54.4924 0.2894 54.4572 0.186674 54.3879C0.0839482 54.3175 0.020987 54.2218 0 54.1019L0.228648 54.0611C0.244112 54.1261 0.283877 54.1789 0.349048 54.2196C0.413113 54.2603 0.492643 54.2801 0.587637 54.2801C0.682631 54.2801 0.757743 54.2603 0.820704 54.2196C0.883665 54.1789 0.914593 54.1272 0.914593 54.0644C0.914593 53.9742 0.848318 53.906 0.714664 53.8598L0.35678 53.7366C0.146909 53.6651 0.0419741 53.5397 0.0419741 53.3593C0.0419741 53.2251 0.0916802 53.1206 0.191093 53.0458C0.290505 52.971 0.420845 52.9336 0.583219 52.9336C0.727919 52.9336 0.847214 52.9655 0.943312 53.0304C1.03831 53.0942 1.09685 53.1811 1.11784 53.2911L1.11673 53.2867Z" fill="#062D24"/>
<path d="M1.30091 54.4586V52.9615H1.54392V53.2123C1.66321 53.0242 1.84215 52.9307 2.07853 52.9307C2.25195 52.9307 2.39555 52.9879 2.50932 53.1001C2.6253 53.2112 2.68274 53.3531 2.68274 53.5258V54.4586H2.43973V53.5896C2.43973 53.4686 2.39776 53.3674 2.31491 53.2849C2.23428 53.2024 2.13266 53.1617 2.01116 53.1617C1.87971 53.1617 1.76925 53.2035 1.67868 53.2882C1.5881 53.3729 1.54281 53.4752 1.54281 53.5962V54.4597H1.2998L1.30091 54.4586Z" fill="#062D24"/>
<path d="M3.57698 52.9308C3.80232 52.9308 3.98568 53.0122 4.12596 53.175V52.9616H4.36897V54.4588H4.12596V54.2454C3.98568 54.4082 3.80232 54.4896 3.57698 54.4896C3.36711 54.4896 3.19038 54.4159 3.04789 54.2685C2.90761 54.121 2.83691 53.934 2.83691 53.7096C2.83691 53.4852 2.90761 53.3004 3.04789 53.1541C3.18817 53.0045 3.3649 52.9297 3.57698 52.9297V52.9308ZM3.60239 53.1728C3.45769 53.1728 3.33508 53.2245 3.23567 53.3279C3.13736 53.4291 3.08876 53.5567 3.08876 53.7107C3.08876 53.8647 3.13736 53.9923 3.23567 54.0968C3.33729 54.198 3.4599 54.2498 3.60239 54.2498C3.74488 54.2498 3.8708 54.1991 3.96911 54.0968C4.06963 53.9956 4.11933 53.8669 4.11933 53.7107C4.11933 53.5545 4.06963 53.428 3.96911 53.3279C3.8708 53.2245 3.74819 53.1728 3.60239 53.1728Z" fill="#062D24"/>
<path d="M6.02639 53.3827L5.78338 53.4542C5.7392 53.3684 5.67513 53.2991 5.59118 53.2485C5.50724 53.1979 5.41335 53.1726 5.30952 53.1726C5.15708 53.1726 5.03116 53.2243 4.93064 53.3277C4.82902 53.4289 4.77711 53.5565 4.77711 53.7105C4.77711 53.8645 4.82792 53.991 4.93064 54.0966C5.03227 54.1978 5.15929 54.2495 5.30952 54.2495C5.41335 54.2495 5.50724 54.2242 5.59118 54.1736C5.67513 54.123 5.7392 54.0537 5.78338 53.9679L6.02639 54.0394C5.96453 54.1791 5.86954 54.2902 5.74141 54.3705C5.61328 54.4508 5.46968 54.4915 5.30952 54.4915C5.08749 54.4915 4.90082 54.4178 4.74839 54.2704C4.60037 54.1186 4.52637 53.9327 4.52637 53.7116C4.52637 53.4905 4.60037 53.3035 4.74839 53.1561C4.89861 53.0064 5.08529 52.9316 5.30952 52.9316C5.46968 52.9316 5.61328 52.9723 5.74141 53.0526C5.86954 53.133 5.96453 53.2441 6.02639 53.3838V53.3827Z" fill="#062D24"/>
<path d="M6.16211 54.4581V52.2998H6.40512V54.4581H6.16211ZM7.39703 54.4581H7.09327L6.41727 53.6837L7.03583 52.9609H7.33297L6.71771 53.6837L7.39703 54.4581Z" fill="#062D24"/>
<path d="M8.09681 54.4581V52.2998H8.33982V53.2118C8.45911 53.0236 8.63805 52.9301 8.87775 52.9301C9.05117 52.9301 9.19697 52.9873 9.31406 53.0995C9.43004 53.2106 9.48748 53.3526 9.48748 53.5253V54.4581H9.24447V53.5891C9.24447 53.4681 9.20249 53.3669 9.11965 53.2844C9.03681 53.2019 8.93408 53.1611 8.81037 53.1611C8.67782 53.1611 8.56515 53.203 8.47457 53.2877C8.384 53.3724 8.33871 53.4747 8.33871 53.5957V54.4592H8.0957L8.09681 54.4581Z" fill="#062D24"/>
<path d="M9.69531 53.8949V52.962H9.93832V53.8311C9.93832 53.9499 9.97919 54.0522 10.0598 54.1358C10.1427 54.2183 10.2454 54.259 10.3691 54.259C10.5006 54.259 10.6099 54.2183 10.6983 54.1358C10.7888 54.0511 10.8341 53.9477 10.8341 53.8245V52.9609H11.0771V54.4581H10.8341V54.2106C10.7226 54.3965 10.5447 54.49 10.3028 54.49C10.1294 54.49 9.98361 54.4339 9.86652 54.3206C9.75275 54.2073 9.69642 54.0654 9.69642 53.8949H9.69531Z" fill="#062D24"/>
<path d="M11.3135 54.4581V52.2998H11.5565V53.1743C11.6968 53.0115 11.879 52.9301 12.1033 52.9301C12.3153 52.9301 12.491 53.0049 12.6323 53.1545C12.7748 53.302 12.8466 53.4879 12.8466 53.7101C12.8466 53.9323 12.7748 54.1171 12.6323 54.2689C12.4899 54.4163 12.3131 54.49 12.1033 54.49C11.8801 54.49 11.6979 54.4086 11.5565 54.2458V54.4592H11.3135V54.4581ZM12.0767 53.1721C11.932 53.1721 11.8094 53.2238 11.71 53.3273C11.6117 53.4285 11.5631 53.5561 11.5631 53.7101C11.5631 53.8641 11.6128 53.9917 11.71 54.0962C11.8116 54.1974 11.9343 54.2491 12.0767 54.2491C12.2192 54.2491 12.3452 54.1985 12.4435 54.0962C12.544 53.995 12.5937 53.8663 12.5937 53.7101C12.5937 53.5539 12.544 53.4274 12.4435 53.3273C12.3452 53.2238 12.2225 53.1721 12.0767 53.1721Z" fill="#062D24"/>
<path d="M27.8186 49.912L27.5612 49.9868C27.5436 49.9098 27.4938 49.8449 27.4121 49.7921C27.3304 49.7393 27.2343 49.7129 27.1249 49.7129C27.0034 49.7129 26.9029 49.7426 26.8245 49.802C26.7449 49.8592 26.7063 49.9329 26.7063 50.0209C26.7063 50.1166 26.7604 50.1914 26.8687 50.2453C26.9537 50.286 27.084 50.3278 27.2586 50.3718C27.4011 50.4081 27.5115 50.4455 27.591 50.484C27.7755 50.5698 27.8738 50.7205 27.8827 50.9361C27.8827 51.1165 27.8131 51.2628 27.675 51.3739C27.5402 51.485 27.3646 51.5411 27.1492 51.5411C26.9548 51.5411 26.7891 51.496 26.6522 51.4058C26.5152 51.3178 26.429 51.2023 26.3926 51.0604L26.6522 50.9823C26.6676 51.0703 26.7217 51.144 26.8156 51.2023C26.9095 51.2606 27.02 51.2903 27.1492 51.2903C27.2785 51.2903 27.3966 51.2595 27.4872 51.1979C27.5778 51.1341 27.6231 51.0538 27.6231 50.9559C27.6231 50.858 27.5745 50.781 27.4784 50.7315C27.3933 50.6875 27.2961 50.6523 27.1868 50.6248L27.0653 50.5929L26.9526 50.5588L26.8344 50.5181C26.8289 50.5159 26.8201 50.5126 26.8101 50.5082C26.8002 50.5038 26.7869 50.4972 26.7715 50.4906C26.756 50.484 26.7427 50.4774 26.7306 50.4719C26.682 50.4488 26.6256 50.4081 26.5605 50.3476C26.4953 50.2827 26.4566 50.1793 26.4445 50.0363C26.4445 49.8658 26.5086 49.7271 26.6356 49.6215C26.7648 49.5137 26.9272 49.4609 27.1238 49.4609C27.3005 49.4609 27.4519 49.5027 27.5778 49.5874C27.7048 49.6699 27.7855 49.7778 27.8208 49.9098L27.8186 49.912Z" fill="#062D24"/>
<path d="M28.062 49.7677C28.0311 49.7347 28.0156 49.6951 28.0156 49.6467C28.0156 49.5983 28.0311 49.5598 28.062 49.529C28.0952 49.496 28.1349 49.4795 28.1835 49.4795C28.2321 49.4795 28.2719 49.496 28.305 49.529C28.3382 49.5598 28.3547 49.5994 28.3547 49.6467C28.3547 49.694 28.3382 49.7347 28.305 49.7677C28.2719 49.7985 28.2321 49.8139 28.1835 49.8139C28.1349 49.8139 28.0952 49.7985 28.062 49.7677ZM28.305 51.5091H28.062V50.0119H28.305V51.5091Z" fill="#062D24"/>
<path d="M28.5411 51.5094V50.0123H28.7842V50.2631C28.9034 50.075 29.0824 49.9814 29.3188 49.9814C29.4922 49.9814 29.6358 50.0375 29.7496 50.1509C29.8655 50.262 29.923 50.4039 29.923 50.5766V51.5094H29.68V50.6404C29.68 50.5194 29.638 50.4182 29.5551 50.3357C29.4745 50.2532 29.3729 50.2125 29.2514 50.2125C29.1199 50.2125 29.0095 50.2543 28.9189 50.339C28.8283 50.4237 28.783 50.526 28.783 50.647V51.5105H28.54L28.5411 51.5094Z" fill="#062D24"/>
<path d="M31.5762 50.4334L31.3332 50.5049C31.289 50.4191 31.2249 50.3498 31.141 50.2992C31.057 50.2486 30.9632 50.2233 30.8593 50.2233C30.7069 50.2233 30.581 50.275 30.4804 50.3784C30.3788 50.4796 30.3269 50.6073 30.3269 50.7613C30.3269 50.9153 30.3777 51.0418 30.4804 51.1474C30.5821 51.2486 30.7091 51.3003 30.8593 51.3003C30.9632 51.3003 31.057 51.275 31.141 51.2244C31.2249 51.1738 31.289 51.1045 31.3332 51.0187L31.5762 51.0902C31.5143 51.2299 31.4193 51.341 31.2912 51.4213C31.1631 51.5016 31.0195 51.5423 30.8593 51.5423C30.6373 51.5423 30.4506 51.4686 30.2982 51.3212C30.1502 51.1694 30.0762 50.9835 30.0762 50.7624C30.0762 50.5412 30.1502 50.3542 30.2982 50.2068C30.4484 50.0572 30.6351 49.9824 30.8593 49.9824C31.0195 49.9824 31.1631 50.0231 31.2912 50.1034C31.4193 50.1837 31.5143 50.2948 31.5762 50.4345V50.4334Z" fill="#062D24"/>
<path d="M33.177 50.845H31.8847C31.9023 50.9792 31.962 51.0914 32.0636 51.1816C32.1641 51.2696 32.2867 51.3136 32.4336 51.3136C32.6247 51.3136 32.7727 51.2421 32.8788 51.098L33.1163 51.1728C33.0467 51.2883 32.9517 51.3785 32.8313 51.4434C32.7109 51.5083 32.5783 51.5413 32.4336 51.5413C32.2061 51.5413 32.015 51.4676 31.8615 51.3202C31.709 51.1706 31.6328 50.9847 31.6328 50.7614C31.6328 50.5381 31.7068 50.3533 31.8548 50.2059C32.0028 50.0562 32.1873 49.9814 32.4071 49.9814C32.6269 49.9814 32.8125 50.0562 32.9594 50.2059C33.1074 50.3533 33.1814 50.5392 33.1814 50.7614C33.1814 50.7669 33.1792 50.7955 33.1759 50.845H33.177ZM31.888 50.6492H32.9318C32.9086 50.5205 32.8479 50.4138 32.7495 50.3302C32.6534 50.2477 32.5375 50.2059 32.4027 50.2059C32.2679 50.2059 32.1586 50.2477 32.0647 50.3302C31.9708 50.4127 31.9112 50.5194 31.888 50.6492Z" fill="#062D24"/>
<path d="M44.8786 53.3462C46.5182 51.7133 46.6427 49.1898 45.1567 47.7098C43.6706 46.2298 41.1367 46.3538 39.4971 47.9867C37.8575 49.6196 37.733 52.1431 39.2191 53.6231C40.7051 55.103 43.239 54.9791 44.8786 53.3462Z" stroke="#062D24" stroke-width="0.524697" stroke-miterlimit="10"/>
<path d="M41.7801 50.1457C41.7801 50.0445 41.7381 49.9576 41.6553 49.8861C41.5702 49.8135 41.4708 49.7772 41.3548 49.7772C41.251 49.7772 41.1582 49.8069 41.0776 49.8674C40.9969 49.9279 40.9362 50.0104 40.8953 50.1138L40.6611 50.0016C40.7208 49.8575 40.8125 49.7442 40.9362 49.6606C41.0599 49.577 41.1991 49.5352 41.3548 49.5352C41.547 49.5352 41.7094 49.5935 41.8408 49.7112C41.9734 49.8278 42.0408 49.9708 42.0408 50.1369C42.0408 50.2447 42.0076 50.3503 41.9413 50.4548C41.8751 50.5593 41.7679 50.6825 41.6188 50.8244L41.0787 51.3392H42.0695V51.5813H40.6854V51.3942L41.4509 50.6572C41.5702 50.5406 41.6553 50.4449 41.705 50.3712C41.7547 50.2975 41.7801 50.2216 41.7801 50.1457Z" fill="#062D24"/>
<path d="M43.2885 51.5817V51.167H42.1729V50.925L43.3061 49.5664H43.5436V50.9217H43.833V51.1659H43.5436V51.5806H43.2896L43.2885 51.5817ZM43.2885 49.9536L42.4788 50.9239H43.2885V49.9536Z" fill="#062D24"/>
<path d="M214.094 8.40252C213.672 8.12214 213.136 8.0692 212.668 8.26135C212.38 8.37997 205.594 11.2632 204.426 20.6499C203.361 29.2025 203.066 32.6925 203.054 32.8366C202.991 33.6003 203.514 34.2895 204.269 34.4414C204.354 34.4591 206.364 34.8914 206.364 37.604C206.364 39.7509 205.475 40.0774 203.464 40.6137C203.126 40.7038 202.78 40.797 202.44 40.9058C202.224 40.9764 201.916 41.0489 201.562 41.1323C201.138 40.1725 200.69 39.2225 200.246 38.2804C198.517 34.6169 196.729 30.8288 196.729 26.9634V1.50973C196.729 0.676438 196.048 0 195.208 0C194.368 0 193.687 0.675457 193.687 1.50973V26.9614C193.687 30.8337 191.937 34.6238 190.243 38.2902C189.809 39.2304 189.371 40.1794 188.958 41.1362C188.604 41.0519 188.298 40.9783 188.085 40.9077C187.752 40.798 187.41 40.7048 187.079 40.6146C185.259 40.1196 184.256 39.847 184.256 37.603C184.256 35.3982 185.391 34.659 186.343 34.4267C187.068 34.2502 187.557 33.5777 187.497 32.8386C187.485 32.6944 187.196 29.2054 186.155 20.6539C185.013 11.271 178.359 8.38389 178.077 8.26527C177.607 8.0692 177.069 8.1192 176.645 8.3986C176.222 8.678 175.965 9.15052 175.965 9.65638V50.2034C175.965 51.0367 176.645 51.7131 177.487 51.7131H186.774C187.604 59.2078 194.192 62.4145 194.49 62.5557C194.702 62.6557 194.923 62.7027 195.142 62.7027C195.164 62.7027 195.185 62.6988 195.206 62.6978C195.228 62.6988 195.251 62.7027 195.274 62.7027C195.49 62.7027 195.707 62.6567 195.916 62.5606C196.221 62.4184 202.945 59.2147 203.791 51.7131H213.246C214.086 51.7131 214.766 51.0376 214.766 50.2034V9.65638C214.768 9.15248 214.515 8.68192 214.094 8.40252ZM200.747 48.6936H196.846C197.211 46.482 198.403 45.4252 199.777 44.8174C200.243 46.1163 200.591 47.4045 200.747 48.6936ZM195.225 34.4012C195.89 36.1609 196.695 37.8726 197.492 39.5598C197.884 40.3911 198.272 41.2126 198.636 42.0263C197.401 42.5577 196.134 43.3772 195.191 44.7252C194.28 43.4017 193.063 42.5861 191.873 42.0548C192.235 41.2283 192.62 40.3941 193.01 39.548C193.787 37.8648 194.575 36.156 195.225 34.4012ZM190.754 44.8605C192.052 45.4742 193.167 46.5339 193.514 48.6936H189.821C189.971 47.4182 190.305 46.1447 190.754 44.8605ZM179.008 12.4955C180.6 13.9248 182.593 16.558 183.137 21.0156C183.845 26.829 184.206 30.3269 184.364 31.9631C182.684 32.8238 181.216 34.6218 181.216 37.603C181.216 42.1489 184.384 43.0116 186.276 43.5262C186.581 43.6086 186.87 43.688 187.124 43.7713C187.345 43.8439 187.592 43.9096 187.847 43.9733C187.315 45.5163 186.917 47.0878 186.76 48.6927H179.006V12.4955H179.008ZM195.217 59.5049C193.839 58.6706 190.501 56.2129 189.846 51.7121H195.145C195.147 51.7121 195.15 51.7121 195.153 51.7121C195.163 51.7121 195.172 51.7092 195.18 51.7092C195.19 51.7092 195.2 51.7121 195.208 51.7121H200.719C200.049 56.2188 196.62 58.6775 195.217 59.5049ZM211.727 48.6936H203.806C203.647 47.0839 203.239 45.5095 202.695 43.9645C202.938 43.9047 203.173 43.8429 203.383 43.7753C203.646 43.69 203.94 43.6115 204.251 43.5292C206.179 43.0155 209.406 42.1557 209.406 37.604C209.406 34.4767 207.699 32.7523 206.19 31.9651C206.352 30.3289 206.721 26.831 207.445 21.0205C208.006 16.506 210.09 13.864 211.727 12.4474V48.6936Z" fill="#062D24"/>
<g clip-path="url(#clip0_199_1646)">
<path d="M134.305 51.8461C134.804 51.7724 135.159 51.6119 135.376 51.3647C135.593 51.1175 135.697 50.8269 135.697 50.4887C135.697 50.0897 135.554 49.7774 135.268 49.5475C134.982 49.322 134.617 49.2093 134.179 49.2093C133.802 49.2093 133.446 49.296 133.117 49.4651C132.783 49.6343 132.514 49.9032 132.301 50.2675C132.089 50.6318 131.985 51.0958 131.985 51.6553V52.1757L134.305 51.8461ZM111.189 52.6051C111.176 54.3138 109.788 55.693 108.075 55.693C106.362 55.693 104.974 54.3138 104.961 52.6051V48.3375H106.093V52.6051C106.106 53.6893 106.987 54.561 108.075 54.561C109.164 54.561 110.044 53.6893 110.057 52.6051V48.3375H111.189V52.6051ZM130.861 52.0153C130.861 51.1175 131.018 50.3802 131.326 49.8078C131.633 49.2353 132.041 48.8189 132.549 48.5544C133.056 48.2942 133.611 48.1641 134.214 48.1641C134.691 48.1641 135.129 48.2508 135.528 48.4286C135.927 48.6064 136.248 48.8666 136.486 49.2093C136.725 49.5519 136.842 49.9552 136.842 50.4149C136.842 50.8746 136.725 51.2823 136.486 51.6076C136.248 51.9372 135.91 52.1931 135.472 52.3709C135.962 52.4923 136.326 52.6615 136.565 52.874C136.803 53.0908 136.92 53.3987 136.92 53.8064V55.6843H135.788V53.724C135.788 53.5809 135.654 53.4508 135.385 53.3337C135.116 53.2166 134.804 53.1255 134.439 53.0561C134.075 52.9867 133.785 52.9564 133.555 52.9564C133.268 52.9564 132.744 53.0171 131.98 53.1385V55.6886H130.861V52.0066V52.0153ZM125.367 55.6973V48.3375H126.499V55.6973H125.367ZM117.937 55.6973V49.3784H116.216V50.4193H115.097V48.3332H121.88V50.4193H120.761V49.3784H119.074V55.6973H117.942H117.937ZM93.9195 55.6973V48.3375H95.0515V50.6361H99.0154V48.3375H100.147V55.6973H99.0154V51.6987H95.0515V55.6973H93.9195ZM83.4111 48.3375H84.5301V51.0004C85.0895 50.2761 85.7834 49.656 86.6075 49.1442C87.4358 48.6325 88.2121 48.3462 88.9364 48.2942L89.2877 49.3567C88.7759 49.3958 88.3119 49.4955 87.8999 49.656C87.4878 49.8164 87.0281 50.0897 86.512 50.467C87.0715 50.9787 87.6527 51.69 88.2598 52.6007C88.867 53.5115 89.4525 54.5437 90.0076 55.6973H88.7152C88.1948 54.6651 87.67 53.763 87.1409 52.9954C86.6118 52.2278 86.1087 51.6249 85.623 51.1782C85.2673 51.5035 84.9941 51.8201 84.8076 52.128C84.6211 52.4359 84.5257 52.7222 84.5257 52.9781V55.6973H83.4111V48.3375Z" fill="#062D24"/>
<path fill-rule="evenodd" clip-rule="evenodd" d="M136.998 43.6105V26.9957H120.384L136.998 43.6105ZM83.4893 8.55078V25.1656H100.104L83.4893 8.55078ZM100.104 43.6149C91.1396 43.1508 83.949 35.9645 83.4893 26.9957H100.104V43.6105V43.6149ZM118.549 26.9957C118.089 35.9645 110.899 43.1508 101.934 43.6105V26.9957H118.549ZM101.934 25.1656C102.398 16.2011 109.585 9.0105 118.549 8.55078V25.1656H101.934ZM136.998 25.1656C136.539 16.2011 129.348 9.0105 120.384 8.55078V25.1656H136.998Z" fill="#062D24"/>
<path d="M136.998 31.3151C136.764 31.2978 136.526 31.2847 136.283 31.2674V31.1546C136.283 31.0375 136.192 30.9421 136.07 30.9248C136.205 30.7253 136.283 30.4911 136.283 30.2395V29.576C136.283 29.4459 136.166 29.3418 136.027 29.3461C135.888 29.3461 135.771 29.4546 135.771 29.5803V30.2439C135.771 30.4694 135.676 30.6732 135.515 30.8207C135.411 30.9161 135.281 30.9898 135.138 31.0289L135.129 29.0382C135.129 28.9081 135.017 28.804 134.873 28.804C134.73 28.804 134.618 28.9081 134.618 29.0382L134.626 30.5605C134.626 30.5605 134.618 30.5952 134.618 30.6169V31.0245C134.483 30.9855 134.362 30.9161 134.262 30.8294C134.101 30.6862 134.002 30.4824 134.002 30.2612V29.5977C134.002 29.4676 133.889 29.3635 133.746 29.3678C133.607 29.3678 133.49 29.4762 133.49 29.602V30.2656C133.49 30.5171 133.572 30.7513 133.711 30.9465C133.598 30.9595 133.507 31.0462 133.494 31.1503C133.494 31.159 133.49 31.172 133.49 31.1807C132.961 31.1807 132.427 31.1807 131.894 31.198V30.9595C131.894 30.8597 131.812 30.7817 131.707 30.7686C131.829 30.5995 131.898 30.3957 131.898 30.1832V29.6627C131.898 29.5543 131.803 29.4719 131.686 29.4719C131.569 29.4719 131.473 29.5586 131.473 29.6671V30.1875C131.473 30.374 131.395 30.5431 131.261 30.6646C131.174 30.7426 131.07 30.8033 130.948 30.838L130.94 29.216C130.94 29.1076 130.844 29.0209 130.727 29.0252C130.61 29.0252 130.515 29.1119 130.515 29.2204L130.523 30.8424C130.406 30.812 130.307 30.7556 130.22 30.6776C130.085 30.5561 130.003 30.3913 130.003 30.2048V29.6844C130.003 29.576 129.908 29.4936 129.791 29.4936C129.673 29.4936 129.578 29.5803 129.578 29.6888V30.2092C129.578 30.426 129.652 30.6255 129.773 30.7947C129.66 30.799 129.574 30.8857 129.574 30.9898V31.3238C128.099 31.4365 126.642 31.6274 125.28 31.9049L125.614 32.2389C126.898 32.0047 128.234 31.8355 129.587 31.7314C129.613 31.8919 129.673 32.0437 129.769 32.1738C129.656 32.1738 129.561 32.2649 129.561 32.369V32.9761C129.565 33.2711 129.695 33.5313 129.908 33.7221C130.072 33.8696 130.281 33.9693 130.515 34.0083V34.6329C130.029 34.004 129.4 33.6267 128.594 33.7134H128.589C128.472 33.7308 128.394 33.8262 128.407 33.9346C128.45 34.2122 128.528 34.4334 128.65 34.6285C128.771 34.8237 128.94 34.9841 129.166 35.1446C129.257 35.2097 129.392 35.1923 129.465 35.1099C129.535 35.0232 129.522 34.9017 129.426 34.8367C129.244 34.7066 129.11 34.5808 129.019 34.4334C128.953 34.3336 128.906 34.2252 128.871 34.0951C129.431 34.1081 129.877 34.4681 130.198 34.9061C130.784 35.7084 130.736 35.6303 131.265 34.9061C131.59 34.4637 132.024 34.1211 132.588 34.1037C132.553 34.2339 132.505 34.3466 132.44 34.442C132.345 34.5895 132.215 34.7153 132.033 34.8454C131.942 34.9104 131.924 35.0319 131.994 35.1186C132.063 35.2053 132.197 35.2183 132.289 35.1533C132.514 34.9928 132.683 34.8324 132.805 34.6372C132.926 34.442 133.004 34.2252 133.048 33.9433C133.065 33.8349 132.982 33.7394 132.865 33.7221H132.861C132.076 33.6354 131.395 34.0127 130.931 34.6329V33.9997C131.17 33.9563 131.378 33.8522 131.538 33.7004C131.746 33.5053 131.872 33.2407 131.872 32.9501V32.343C131.872 32.2475 131.794 32.1695 131.694 32.1521C131.807 31.996 131.872 31.8139 131.881 31.6144C132.414 31.6013 132.948 31.6013 133.477 31.6057V31.7705V31.8399C133.477 32.1001 133.564 32.343 133.711 32.5468C133.577 32.5555 133.468 32.6552 133.468 32.781V33.4922V33.5096C133.468 33.7698 133.555 34.0127 133.702 34.2122C133.564 34.2122 133.451 34.3206 133.451 34.4464V35.175C133.455 35.5306 133.616 35.8472 133.867 36.0771C134.062 36.2549 134.318 36.3763 134.6 36.424V37.1786C134.405 36.9271 134.175 36.7059 133.928 36.5281C133.663 36.3373 133.377 36.2115 133.091 36.1334C132.783 36.051 132.471 36.0337 132.163 36.0684H132.158C132.02 36.0857 131.92 36.2072 131.942 36.3329C131.994 36.6712 132.089 36.9358 132.237 37.17C132.384 37.4042 132.588 37.5993 132.861 37.7945C132.974 37.8725 133.134 37.8552 133.221 37.7511C133.308 37.647 133.286 37.4996 133.173 37.4215C132.952 37.2654 132.792 37.1136 132.679 36.9314C132.601 36.81 132.544 36.6799 132.501 36.5194C132.653 36.5194 132.8 36.5454 132.952 36.5845C133.182 36.6452 133.403 36.7449 133.616 36.8967C133.841 37.0572 134.045 37.2654 134.219 37.4996C134.925 38.4667 134.865 38.3713 135.507 37.4996C135.68 37.2654 135.884 37.0572 136.109 36.8967C136.365 36.7146 136.66 36.5888 136.968 36.5411V36.064C136.851 36.0771 136.73 36.0987 136.612 36.1291C136.326 36.2028 136.04 36.3329 135.775 36.5238C135.58 36.6625 135.402 36.8273 135.242 37.0095C135.194 37.0659 135.151 37.1179 135.108 37.1743V36.411C135.394 36.359 135.645 36.2332 135.841 36.051C136.092 35.8168 136.244 35.4959 136.244 35.1446V34.416C136.24 34.2989 136.148 34.2035 136.027 34.1862C136.17 33.9867 136.253 33.7525 136.257 33.5009V33.4792V32.7463C136.257 32.6292 136.153 32.5294 136.027 32.5164C136.174 32.3126 136.257 32.0697 136.257 31.8052V31.7228C136.495 31.7401 136.734 31.7618 136.972 31.7835V31.3021L136.998 31.3151ZM98.3955 43.4412C98.1222 43.4021 97.8533 43.3544 97.5845 43.298C96.7171 42.3613 95.5461 41.4245 94.271 40.5961C92.185 39.243 89.8213 38.1848 88.0345 37.8942C87.7917 37.6297 87.5575 37.3564 87.332 37.0745C87.8307 36.9141 88.3988 36.7796 89.0103 36.6625V34.2816L88.0389 34.3076C87.8827 34.3076 87.7483 34.1862 87.744 34.03C87.744 33.9736 87.757 33.9173 87.7873 33.8696C87.0067 34.017 86.2521 34.1731 85.5235 34.3423C85.4497 34.1992 85.376 34.056 85.3023 33.9129C86.2521 33.6961 87.1932 33.4966 88.1256 33.3188L89.3486 31.3671L89.4007 30.786C89.4137 30.6342 89.5438 30.5214 89.6912 30.5258L92.7791 30.5345C92.6924 30.1224 92.4712 29.8102 92.1936 29.5977C92.0288 29.4719 91.8424 29.3765 91.6515 29.3201C91.4607 29.2637 91.2612 29.2377 91.066 29.2464C90.7061 29.2681 90.3765 29.4069 90.1683 29.6757C90.0816 29.7885 89.9168 29.8102 89.804 29.7234L89.791 29.7104C89.4614 29.4546 89.0884 29.3982 88.7458 29.4632C88.5073 29.5066 88.2861 29.6107 88.0996 29.7538C87.9174 29.8883 87.7743 30.0574 87.6963 30.2309C87.6182 30.4043 87.6008 30.5865 87.6789 30.747C87.7353 30.8641 87.6963 31.0028 87.5922 31.0766C87.3927 31.2154 87.2582 31.3671 87.1802 31.5233L87.1715 31.5363C87.0934 31.6924 87.0717 31.8572 87.0891 32.0177C87.1064 32.1608 87.0023 32.2909 86.8592 32.3083C86.7161 32.3256 86.586 32.2215 86.5687 32.0784C86.5383 31.8225 86.5773 31.558 86.7074 31.3021L86.7161 31.2847C86.7508 31.2154 86.7942 31.146 86.8419 31.0809C86.5903 30.9985 86.3214 30.9681 86.0612 30.9898C85.7186 31.0159 85.3847 31.133 85.1028 31.3194C84.8469 31.4929 84.6344 31.7314 84.4913 32.0264C84.4175 31.8182 84.3438 31.6057 84.2744 31.3888C84.4262 31.1937 84.6084 31.0245 84.8122 30.8857C85.1722 30.6429 85.5885 30.4998 86.0222 30.4651C86.3822 30.4347 86.7551 30.4867 87.1108 30.6169C87.0934 30.413 87.1325 30.2092 87.2235 30.014C87.3406 29.7581 87.5401 29.5196 87.7917 29.3331C88.0389 29.151 88.3381 29.0122 88.6547 28.9515C89.0667 28.8734 89.5178 28.9255 89.9298 29.1727C90.2247 28.8951 90.6237 28.7476 91.0444 28.726C91.2959 28.7129 91.5561 28.7433 91.8077 28.8214C92.0592 28.8994 92.3021 29.0165 92.5146 29.1813C92.9136 29.4849 93.2172 29.9403 93.3169 30.5345H95.069C95.2165 30.5345 95.3336 30.6472 95.3509 30.7903L95.3856 31.0549C95.5938 30.8857 95.8193 30.747 96.0579 30.6516C96.5523 30.4477 97.1074 30.4174 97.7406 30.6646C97.8273 30.4347 97.9748 30.2395 98.1613 30.0834C98.3521 29.9229 98.5819 29.8058 98.8292 29.7365C99.072 29.6671 99.3322 29.641 99.5838 29.6671C99.7616 29.6844 99.9394 29.7278 100.104 29.7972V30.3957C99.9481 30.2742 99.7442 30.2048 99.5361 30.1832C99.3539 30.1658 99.1588 30.1832 98.9766 30.2352C98.7988 30.2873 98.634 30.3697 98.4995 30.4824C98.3304 30.6255 98.209 30.8207 98.1873 31.0549C98.1743 31.198 98.0442 31.3021 97.9011 31.2891C97.862 31.2891 97.8273 31.2717 97.797 31.2544C97.1985 30.9508 96.6997 30.9508 96.266 31.1286C96.0362 31.224 95.8193 31.3715 95.6112 31.5493L96.1793 32.1651C97.5064 32.0394 98.8161 31.9483 100.109 31.8832V32.434C98.9506 32.4947 97.7926 32.5728 96.6433 32.6726L97.463 33.566C97.5714 33.6831 97.5628 33.8652 97.4457 33.9693C97.3893 34.0213 97.3156 34.0474 97.2462 34.043L96.3528 34.0691V36.3676C97.8056 36.5064 99.1284 36.7623 100.109 37.1483V37.7685C99.1371 37.3391 97.7276 37.0572 96.1619 36.9228C96.5393 37.0919 96.9209 37.274 97.3026 37.4735C98.2567 37.968 99.2108 38.5361 100.113 39.1129V39.7331C99.1457 39.0999 98.1005 38.471 97.064 37.9333C96.1793 37.4735 95.3032 37.0876 94.4835 36.8273C94.3274 36.8273 94.1713 36.823 94.0108 36.8187C93.4253 36.8143 92.8355 36.8273 92.25 36.8577C93.8157 37.4128 95.5678 38.3279 97.1551 39.3948C98.2567 40.1321 99.2759 40.9474 100.104 41.7671V42.5131C99.2542 41.598 98.1136 40.6699 96.8645 39.8285C94.8479 38.4754 92.5666 37.3695 90.7885 36.9705C89.8777 37.0659 89.0234 37.2047 88.2731 37.3868C90.1119 37.7207 92.4712 38.7876 94.5529 40.1364C96.0839 41.1296 97.4674 42.2832 98.3955 43.4195V43.4412ZM117.929 30.8077C117.894 30.9378 117.855 31.0679 117.816 31.198C117.69 31.1113 117.56 31.0505 117.426 31.0245C117.118 30.9638 116.754 31.0896 116.298 31.5319L116.29 31.5406C116.207 31.61 116.081 31.597 116.016 31.5146C115.639 31.0636 115.305 31.1937 115.097 31.3671C114.98 31.4626 114.897 31.571 114.863 31.6187C114.815 31.6881 114.789 31.7228 114.689 31.7228C114.633 31.7228 114.577 31.6968 114.538 31.6534C114.295 31.3628 114.026 31.25 113.77 31.2544C113.64 31.2544 113.514 31.2891 113.393 31.3368C113.271 31.3888 113.154 31.4626 113.054 31.5493C112.829 31.7358 112.677 31.9743 112.655 32.1608C114.277 32.3256 115.826 32.5425 117.248 32.7983C117.153 33.0325 117.049 33.2624 116.945 33.4879C115.453 34.377 114.338 34.351 113.31 34.3293C112.356 34.3076 111.476 34.2902 110.404 35.149C110.482 35.2053 110.569 35.253 110.66 35.2877C110.773 35.3268 110.894 35.3528 111.02 35.3528C111.146 35.3528 111.267 35.3311 111.38 35.2877C111.493 35.2487 111.601 35.1836 111.692 35.1056C111.762 35.0449 111.87 35.0405 111.948 35.1056C112.044 35.1836 112.152 35.2487 112.265 35.2877C112.378 35.3268 112.499 35.3528 112.625 35.3528C112.751 35.3528 112.872 35.3311 112.985 35.2877C113.098 35.2487 113.206 35.1836 113.297 35.1056C113.371 35.0449 113.475 35.0405 113.553 35.1056C113.648 35.1836 113.757 35.2487 113.87 35.2877C113.982 35.3268 114.104 35.3528 114.23 35.3528C114.355 35.3528 114.477 35.3311 114.59 35.2877C114.702 35.2487 114.811 35.1836 114.902 35.1056C114.976 35.0449 115.08 35.0405 115.158 35.1056C115.253 35.1836 115.362 35.2487 115.474 35.2877C115.587 35.3268 115.708 35.3528 115.834 35.3528C115.869 35.3528 115.899 35.3615 115.925 35.3745C115.847 35.4959 115.769 35.6173 115.691 35.7388C115.57 35.7258 115.453 35.6997 115.34 35.6564C115.231 35.6173 115.127 35.5653 115.032 35.5002C114.937 35.5653 114.832 35.6173 114.724 35.6564C114.568 35.7127 114.399 35.7431 114.23 35.7431C114.06 35.7431 113.896 35.7127 113.735 35.6564C113.627 35.6173 113.523 35.5653 113.427 35.5002C113.332 35.5653 113.228 35.6173 113.119 35.6564C112.963 35.7127 112.794 35.7431 112.625 35.7431C112.456 35.7431 112.291 35.7127 112.131 35.6564C112.022 35.6173 111.918 35.5653 111.823 35.5002C111.727 35.5653 111.623 35.6173 111.515 35.6564C111.359 35.7127 111.189 35.7431 111.02 35.7431C110.851 35.7431 110.686 35.7127 110.526 35.6564C110.374 35.6 110.231 35.5219 110.105 35.4178C110.049 35.4742 109.988 35.5436 109.923 35.6173L109.906 35.6347C109.589 35.9816 109.177 36.4717 108.622 36.8967C108.674 36.9228 108.726 36.9488 108.778 36.9661C108.913 37.0138 109.06 37.0399 109.207 37.0399C109.355 37.0399 109.502 37.0138 109.637 36.9661C109.771 36.9184 109.897 36.8447 110.01 36.7493C110.097 36.6755 110.222 36.6712 110.313 36.7493C110.426 36.8447 110.556 36.9184 110.691 36.9661C110.825 37.0138 110.973 37.0399 111.12 37.0399C111.267 37.0399 111.415 37.0138 111.549 36.9661C111.684 36.9184 111.81 36.8447 111.922 36.7493C112.009 36.6755 112.135 36.6712 112.226 36.7493C112.339 36.8447 112.469 36.9184 112.603 36.9661C112.738 37.0138 112.885 37.0399 113.033 37.0399C113.18 37.0399 113.328 37.0138 113.462 36.9661C113.596 36.9184 113.722 36.8447 113.835 36.7493C113.922 36.6755 114.047 36.6712 114.139 36.7493C114.251 36.8447 114.381 36.9184 114.516 36.9661C114.59 36.9921 114.668 37.0138 114.746 37.0268C114.637 37.1613 114.525 37.2957 114.416 37.4302L114.36 37.4085C114.23 37.3608 114.108 37.3001 113.991 37.222C113.874 37.3001 113.753 37.3608 113.622 37.4085C113.436 37.4779 113.236 37.5126 113.033 37.5126C112.829 37.5126 112.634 37.4779 112.443 37.4085C112.313 37.3608 112.191 37.3001 112.074 37.222C111.957 37.3001 111.836 37.3608 111.705 37.4085C111.519 37.4779 111.32 37.5126 111.116 37.5126C110.912 37.5126 110.717 37.4779 110.526 37.4085C110.396 37.3608 110.274 37.3001 110.157 37.222C110.04 37.3001 109.919 37.3608 109.789 37.4085C109.602 37.4779 109.403 37.5126 109.199 37.5126C108.995 37.5126 108.8 37.4779 108.609 37.4085C108.461 37.3564 108.323 37.2827 108.193 37.1873C107.343 37.7164 106.211 38.0373 104.706 37.6167C104.246 37.4909 103.53 37.3825 102.849 37.4388C102.52 37.4649 102.199 37.5343 101.93 37.6557V36.9314C102.134 36.8664 102.355 36.8273 102.611 36.8057C103.379 36.7406 104.185 36.862 104.697 37.0052C107.178 37.6991 108.683 36.2462 109.407 35.4482L109.424 35.4308C109.576 35.266 109.702 35.1273 109.823 35.0232C111.146 33.8912 112.174 33.9173 113.297 33.9389C114.264 33.9606 115.314 33.9823 116.719 33.1063C112.56 32.4037 107.286 32.1738 101.926 32.3603V31.8138C103.296 31.7705 104.645 31.7618 105.981 31.7748C107.264 31.7878 108.561 31.8399 109.836 31.9179C109.802 31.7054 109.737 31.5146 109.65 31.3541C109.546 31.1633 109.403 31.0159 109.233 30.9204C109.073 30.8337 108.882 30.7947 108.67 30.8164H108.648C108.466 30.8424 108.266 30.9074 108.054 31.0289L108.032 31.0375C107.902 31.0983 107.746 31.0375 107.685 30.9074C107.624 30.7773 107.555 30.6602 107.481 30.5648C107.217 30.2222 106.861 30.0921 106.514 30.0704C106.15 30.0487 105.79 30.1485 105.543 30.2569C105.447 30.3003 105.374 30.3436 105.33 30.3783L105.3 30.4C105.174 30.4694 105.014 30.426 104.944 30.3003C104.697 29.8666 104.263 29.6107 103.791 29.5066C103.509 29.4459 103.214 29.4329 102.932 29.4719C102.654 29.5066 102.394 29.589 102.177 29.7148C102.086 29.7668 101.999 29.8275 101.926 29.8969V29.2594C102.199 29.1076 102.52 29.0035 102.862 28.9601C103.201 28.9168 103.561 28.9298 103.903 29.0035C104.428 29.1206 104.918 29.3852 105.252 29.8232L105.335 29.7842C105.638 29.6454 106.085 29.524 106.549 29.5543C107.03 29.5803 107.525 29.7668 107.898 30.2482C107.95 30.3133 107.997 30.3827 108.041 30.4607C108.232 30.3783 108.414 30.3306 108.587 30.3089H108.613C108.939 30.2699 109.238 30.3306 109.489 30.4694C109.745 30.6125 109.958 30.8294 110.11 31.1069C110.24 31.3455 110.331 31.6274 110.37 31.9396V31.957C111.007 32.0003 111.636 32.0524 112.256 32.1131C112.287 31.8269 112.495 31.4886 112.79 31.2414C112.92 31.133 113.067 31.0375 113.228 30.9725C113.393 30.9031 113.566 30.8597 113.748 30.8554C114.056 30.8511 114.373 30.9551 114.663 31.224C114.711 31.172 114.767 31.1156 114.837 31.0592C115.149 30.799 115.635 30.5908 116.168 31.1069C116.671 30.6732 117.105 30.5561 117.495 30.6342C117.647 30.6646 117.79 30.7209 117.925 30.8033L117.929 30.8077ZM112.885 39.0175C112.712 39.178 112.534 39.3341 112.352 39.4859C112.23 39.4382 112.118 39.3818 112.009 39.3124C111.888 39.3905 111.762 39.4512 111.627 39.5032C111.419 39.577 111.202 39.6203 110.977 39.6203C110.751 39.6203 110.535 39.5813 110.326 39.5032C110.192 39.4555 110.066 39.3905 109.945 39.3124C109.823 39.3905 109.698 39.4512 109.563 39.5032C109.355 39.577 109.138 39.6203 108.913 39.6203C108.687 39.6203 108.47 39.5813 108.262 39.5032C108.128 39.4555 108.002 39.3905 107.88 39.3124C107.759 39.3905 107.633 39.4512 107.499 39.5032C107.291 39.577 107.074 39.6203 106.848 39.6203C106.623 39.6203 106.406 39.5813 106.198 39.5032C106.063 39.4555 105.937 39.3905 105.816 39.3124C105.695 39.3905 105.569 39.4512 105.434 39.5032C105.226 39.577 105.005 39.6203 104.784 39.6203C104.563 39.6203 104.341 39.5813 104.133 39.5032C103.999 39.4555 103.873 39.3905 103.752 39.3124C103.63 39.3905 103.504 39.4512 103.37 39.5032C103.162 39.577 102.945 39.6203 102.719 39.6203C102.494 39.6203 102.277 39.5813 102.069 39.5032C102.021 39.4859 101.969 39.4642 101.921 39.4425V38.7573C102.03 38.8397 102.147 38.9004 102.268 38.9481C102.411 39.0001 102.563 39.0262 102.715 39.0262C102.867 39.0262 103.023 39.0001 103.162 38.9481C103.301 38.8961 103.435 38.8223 103.552 38.7226C103.66 38.6315 103.821 38.6272 103.934 38.7226C104.051 38.8223 104.185 38.9004 104.328 38.9481C104.472 39.0001 104.623 39.0262 104.775 39.0262C104.927 39.0262 105.083 39.0001 105.222 38.9481C105.361 38.8961 105.495 38.8223 105.612 38.7226C105.721 38.6315 105.881 38.6272 105.994 38.7226C106.111 38.8223 106.245 38.9004 106.388 38.9481C106.532 39.0001 106.683 39.0262 106.835 39.0262C106.987 39.0262 107.143 39.0001 107.282 38.9481C107.421 38.8961 107.555 38.8223 107.672 38.7226C107.781 38.6315 107.941 38.6272 108.054 38.7226C108.171 38.8223 108.305 38.9004 108.448 38.9481C108.592 39.0001 108.743 39.0262 108.895 39.0262C109.047 39.0262 109.203 39.0001 109.342 38.9481C109.481 38.8961 109.615 38.8223 109.732 38.7226C109.841 38.6315 110.001 38.6272 110.114 38.7226C110.231 38.8223 110.365 38.9004 110.509 38.9481C110.652 39.0001 110.803 39.0262 110.955 39.0262C111.107 39.0262 111.263 39.0001 111.402 38.9481C111.541 38.8961 111.675 38.8223 111.792 38.7226C111.901 38.6315 112.061 38.6272 112.174 38.7226C112.291 38.8223 112.425 38.9004 112.569 38.9481C112.664 38.9828 112.764 39.0045 112.863 39.0175H112.885ZM109.901 41.225C109.403 41.5199 108.886 41.7888 108.353 42.0317C108.279 42.0403 108.201 42.0447 108.128 42.0447C107.859 42.0447 107.594 41.997 107.343 41.9059C107.169 41.8452 107.004 41.7584 106.852 41.6587C106.701 41.7628 106.536 41.8452 106.362 41.9059C106.111 41.997 105.846 42.0447 105.577 42.0447C105.309 42.0447 105.044 41.997 104.792 41.9059C104.619 41.8452 104.454 41.7584 104.302 41.6587C104.151 41.7628 103.986 41.8452 103.812 41.9059C103.561 41.997 103.296 42.0447 103.027 42.0447C102.758 42.0447 102.494 41.997 102.242 41.9059C102.138 41.8669 102.038 41.8235 101.943 41.7714V41.0168L101.952 41.0255C102.104 41.1513 102.273 41.251 102.455 41.3161C102.637 41.3811 102.828 41.4158 103.027 41.4158C103.227 41.4158 103.422 41.3811 103.6 41.3161C103.782 41.251 103.951 41.1513 104.099 41.0298C104.211 40.9301 104.385 40.9257 104.502 41.0298C104.654 41.1556 104.823 41.2553 105.005 41.3204C105.187 41.3855 105.378 41.4202 105.577 41.4202C105.777 41.4202 105.972 41.3855 106.15 41.3204C106.328 41.2553 106.501 41.1556 106.649 41.0342C106.761 40.9344 106.935 40.9301 107.056 41.0342C107.208 41.1599 107.377 41.2597 107.559 41.3247C107.742 41.3898 107.932 41.4245 108.132 41.4245C108.331 41.4245 108.527 41.3898 108.704 41.3247C108.882 41.2597 109.056 41.1599 109.203 41.0385C109.316 40.9388 109.489 40.9344 109.611 41.0385C109.702 41.1166 109.802 41.1816 109.906 41.238L109.901 41.225ZM102.763 20.6679C102.828 20.4684 102.897 20.2733 102.967 20.0781L109.212 21.9864C109.377 22.0384 109.472 22.2119 109.42 22.3767C109.368 22.5415 109.194 22.6369 109.03 22.5849L102.763 20.6679ZM105.074 16.0318C105.222 15.8192 105.378 15.6067 105.538 15.3986L111.888 19.9263C112.1 19.6661 112.326 19.4146 112.564 19.176C112.803 18.9375 113.054 18.712 113.315 18.4995L108.787 12.1502C108.995 11.9897 109.203 11.8379 109.42 11.6862L113.943 18.0267C115.279 17.1117 116.853 16.5132 118.554 16.357V17.2591C116.472 17.4716 114.603 18.4084 113.202 19.8092C111.801 21.2101 110.864 23.0793 110.652 25.161H109.75C109.906 23.4609 110.504 21.8866 111.419 20.5508L105.079 16.0274L105.074 16.0318ZM113.462 9.58274C113.657 9.51335 113.857 9.44396 114.056 9.37891L115.956 15.5937C116.008 15.7585 115.912 15.932 115.748 15.9841C115.583 16.0361 115.409 15.9407 115.357 15.7759L113.462 9.58274ZM136.17 20.6679C136.105 20.4684 136.036 20.2733 135.966 20.0738L129.717 21.9864C129.552 22.0384 129.457 22.2119 129.509 22.3767C129.561 22.5415 129.734 22.6369 129.899 22.5849L136.17 20.6679ZM133.863 16.0318C133.715 15.8192 133.559 15.6067 133.399 15.3986L127.05 19.9263C126.837 19.6661 126.612 19.4146 126.373 19.176C126.134 18.9375 125.883 18.712 125.618 18.4995L130.146 12.1502C129.938 11.9897 129.73 11.8379 129.513 11.6862L124.99 18.0267C123.654 17.1073 122.079 16.5132 120.379 16.357V17.2591C122.461 17.4716 124.33 18.4084 125.731 19.8092C127.132 21.2101 128.069 23.0793 128.281 25.161H129.183C129.027 23.4609 128.429 21.8866 127.514 20.5508L133.854 16.0274L133.863 16.0318ZM125.475 9.58274C125.28 9.51335 125.081 9.44396 124.881 9.37891L122.995 15.5634C122.942 15.7282 123.038 15.9016 123.203 15.9537C123.368 16.0057 123.541 15.9103 123.593 15.7455L125.471 9.58708L125.475 9.58274ZM92.2587 34.1948V36.3026C92.8399 36.2722 93.4297 36.2635 94.0152 36.2679C94.6093 36.2722 95.2035 36.2939 95.776 36.3373V34.0994L95.0647 34.1211V35.3094C95.0647 35.4178 94.978 35.5046 94.8695 35.5046H93.395C93.2866 35.5046 93.1998 35.4178 93.1998 35.3094V34.1731L92.263 34.1992L92.2587 34.1948ZM90.3895 36.4587V34.2469L89.5872 34.2686V36.5671C89.8474 36.5281 90.1163 36.4891 90.3895 36.4587ZM90.7841 34.2339V36.4153C91.1398 36.3806 91.4997 36.3503 91.864 36.3243V34.2035L90.7841 34.2339ZM94.6657 34.1862H93.5858V35.1099H94.6657V34.1862ZM89.8777 31.6187L88.5636 33.7221L96.6173 33.5009L94.9519 31.6881C94.9129 31.6447 94.8869 31.5927 94.8782 31.5276L94.8262 31.1156L89.9601 31.1026L89.9254 31.4712C89.9254 31.5189 89.9081 31.571 89.8821 31.6144L89.8777 31.6187ZM135.775 31.7748V31.8182C135.775 32.0437 135.68 32.2475 135.52 32.395C135.416 32.4904 135.285 32.5641 135.142 32.6032V31.7705V31.5016C135.376 31.4626 135.593 31.3671 135.771 31.2327V31.7705H135.775V31.7748ZM134.626 31.5103V32.6075C134.492 32.5685 134.366 32.4991 134.266 32.408C134.106 32.2649 134.006 32.0611 134.006 31.8399V31.2457C134.184 31.3758 134.396 31.4712 134.626 31.5103ZM130.948 33.6007V32.6205C131.139 32.5858 131.313 32.5121 131.46 32.4037V32.9545C131.46 33.141 131.382 33.3101 131.252 33.4315C131.17 33.5096 131.066 33.5703 130.948 33.6007ZM129.994 32.3907C130.142 32.5078 130.328 32.5858 130.528 32.6205V33.605C130.411 33.5746 130.302 33.5139 130.216 33.4402C130.081 33.3188 129.999 33.154 129.999 32.9675V32.3907H129.994ZM135.142 35.9426V34.7586C135.372 34.7196 135.585 34.6285 135.762 34.4984V35.162C135.767 35.3875 135.671 35.5913 135.511 35.7388C135.411 35.8342 135.285 35.9036 135.147 35.9469L135.142 35.9426ZM133.989 34.4811C134.171 34.6198 134.388 34.7196 134.631 34.7586V35.9513C134.487 35.9122 134.357 35.8429 134.253 35.7518C134.093 35.6087 133.993 35.4048 133.993 35.1836V34.4854L133.989 34.4811ZM130.948 31.237C131.144 31.2023 131.321 31.1243 131.469 31.0159V31.571V31.5883C131.469 31.7661 131.386 31.9309 131.256 32.0524C131.17 32.1304 131.066 32.1912 130.944 32.2259V31.2414L130.948 31.237ZM130.528 32.2259C130.411 32.1955 130.311 32.1391 130.224 32.0611C130.09 31.9396 130.007 31.7748 130.007 31.5927V31.571V31.0159C130.155 31.1286 130.333 31.2067 130.532 31.237V32.2215L130.528 32.2259ZM135.142 33.0846C135.376 33.0455 135.593 32.9501 135.771 32.8157V33.4879V33.5096C135.771 33.7264 135.671 33.9216 135.515 34.0691C135.411 34.1645 135.281 34.2382 135.138 34.2772V33.0889L135.142 33.0846ZM134.631 34.2772C134.492 34.2382 134.366 34.1688 134.266 34.0777C134.106 33.9346 134.006 33.7308 134.006 33.5096V33.4879V32.82C134.179 32.9545 134.396 33.0499 134.635 33.0889V34.2772H134.631ZM132.683 28.3877C132.618 28.4137 132.544 28.3877 132.514 28.3183C132.488 28.2532 132.514 28.1795 132.583 28.1491C132.636 28.1275 132.64 28.1058 132.644 28.0884C132.662 28.0104 132.675 27.954 132.792 27.941C132.848 27.9323 132.878 27.954 132.922 27.98C132.948 27.9974 132.991 28.0234 133.065 28.0234C133.139 28.0234 133.195 28.0798 133.195 28.1535C133.195 28.2272 133.139 28.2836 133.065 28.2836C132.978 28.2836 132.913 28.2662 132.861 28.2446C132.835 28.2923 132.783 28.3443 132.683 28.3877ZM126.742 28.7216C126.828 28.6869 126.928 28.726 126.963 28.8127C126.998 28.8994 126.958 28.9992 126.872 29.0339C126.69 29.1119 126.664 29.203 126.651 29.2681C126.62 29.3982 126.599 29.4936 126.416 29.5109C126.33 29.5196 126.278 29.4849 126.2 29.4372C126.121 29.3852 126 29.3071 125.788 29.3071C125.692 29.3071 125.618 29.229 125.618 29.138C125.618 29.0469 125.696 28.9688 125.788 28.9688C126.056 28.9688 126.226 29.0512 126.338 29.1206C126.373 28.9948 126.451 28.8387 126.742 28.7173V28.7216ZM89.5741 22.4114V22.4027V22.4201V22.4114ZM90.0642 20.8935C90.3505 20.5769 91.8207 20.295 92.2153 19.3538C92.2977 19.1543 92.263 18.9809 92.2891 18.7684C91.7556 18.6209 91.4694 18.699 90.988 19.4319L89.0624 20.5465C88.1039 19.8179 87.3363 18.7987 86.7291 17.7492C86.5817 17.4933 86.3735 17.4803 86.3648 17.7102C86.0916 17.181 85.4627 16.756 85.6319 17.7535C84.7341 17.2461 86.0222 20.7503 87.835 21.6741C87.6485 22.2422 86.4516 22.4504 86.0699 22.6933C86.573 23.6301 88.0692 23.9857 88.7415 23.1834L88.4335 22.5198C88.5766 22.381 89.7389 21.6698 89.9775 22.1382C90.2724 22.2249 91.0097 21.4139 90.0599 20.8935H90.0642ZM92.662 19.5403C92.3238 20.3383 91.4954 20.72 90.8752 20.9975C90.9533 21.1363 90.9967 21.2794 91.0097 21.4182C91.027 21.6047 90.9967 21.7825 90.9316 21.9387C90.8709 22.0861 90.7798 22.2162 90.6801 22.3203C90.4459 22.5632 90.1076 22.6846 89.843 22.6065C89.7303 22.5718 89.6392 22.5025 89.5785 22.4114V22.4201C89.5915 22.4417 89.6088 22.4764 89.5915 22.4808C89.457 22.5068 89.2922 22.5762 89.1448 22.6543L89.058 22.6976L89.1882 22.9795C89.2706 23.1573 89.2359 23.3568 89.1188 23.4956C88.9756 23.6648 88.8108 23.7949 88.6244 23.8946L88.5897 23.912C88.208 24.1071 87.7656 24.1548 87.332 24.0854C86.9026 24.016 86.4819 23.8252 86.148 23.5433C85.9441 23.3698 85.7663 23.1617 85.6362 22.9231C85.5148 22.6933 85.5928 22.407 85.814 22.2769C85.9788 22.1729 86.1957 22.0948 86.4385 22.0037C86.6467 21.93 86.8766 21.8432 87.0587 21.7565C86.0786 20.9889 85.3109 19.6531 85.003 18.7467C84.9119 18.4778 84.8556 18.2393 84.8426 18.0441C84.8209 17.7275 84.9033 17.476 85.1114 17.3285C85.1245 17.2071 85.1505 17.103 85.1938 17.0206L85.2155 16.9772C85.324 16.7864 85.4844 16.6866 85.6839 16.6649C85.8357 16.6476 85.9918 16.6823 86.1393 16.7647C86.2564 16.8298 86.3778 16.9295 86.4906 17.0553C86.5817 17.0553 86.6684 17.0813 86.7551 17.1203C86.8939 17.1897 87.0327 17.3155 87.1411 17.4976C87.4317 18.0007 87.7613 18.4995 88.1299 18.9505C88.4249 19.3148 88.7458 19.6531 89.0927 19.948L90.6324 19.0546C90.8969 18.6686 91.1354 18.4431 91.4 18.3173C91.7253 18.1655 92.0288 18.1829 92.4062 18.287C92.6404 18.352 92.7878 18.5732 92.7618 18.8074C92.7575 18.8681 92.7531 18.9158 92.7531 18.9635C92.7531 19.1413 92.7444 19.3105 92.6534 19.5273L92.662 19.5403Z" fill="#EFF5F2"/>
</g>
<defs>
<clipPath id="clip0_199_1646">
<rect width="53.5871" height="47.1468" fill="white" transform="translate(83.4111 8.55078)"/>
</clipPath>
</defs>
</svg>
