<?xml version="1.0" encoding="UTF-8"?>
<svg width="215" height="64" viewBox="0 0 215 64" fill="none" xmlns="http://www.w3.org/2000/svg">
<path d="M5.44334 41.6952L9.10502 21.9261C9.44192 20.0066 9.53912 19.0957 9.53912 18.3752C9.53912 15.8803 8.33513 15.4479 5.63664 15.4479V14.6328H17.2966V15.4479C13.9718 15.4479 12.96 16.1201 11.9968 21.2056L8.33513 40.9747C7.99823 42.8943 7.90103 43.8051 7.90103 44.5257C7.90103 47.0206 9.10502 47.4045 11.8035 47.4045V48.2196H0.143555V47.4045C3.46834 47.4045 4.48014 46.7808 5.44334 41.6941V41.6952Z" fill="#EFF5F2"/>
<path d="M6.79395 11.7934C8.82296 11.7934 10.4678 10.1553 10.4678 8.13466C10.4678 6.11397 8.82296 4.47588 6.79395 4.47588C4.76495 4.47588 3.12012 6.11397 3.12012 8.13466C3.12012 10.1553 4.76495 11.7934 6.79395 11.7934Z" fill="#EFF5F2"/>
<path d="M16.667 11.7934C18.696 11.7934 20.3408 10.1553 20.3408 8.13466C20.3408 6.11397 18.696 4.47588 16.667 4.47588C14.638 4.47588 12.9932 6.11397 12.9932 8.13466C12.9932 10.1553 14.638 11.7934 16.667 11.7934Z" fill="#EFF5F2"/>
<path d="M20.7826 37.5282L16.1456 35.8913C14.8057 35.4315 14.1375 34.6911 14.1375 33.6736C14.1375 32.9464 14.4843 32.3524 15.178 31.8926C15.8717 31.4328 16.7421 31.2007 17.7881 31.2007C18.8341 31.2007 19.7896 31.4075 20.5087 31.8189C21.2267 32.2314 21.6817 32.8012 21.8773 33.5284L24.7624 33.0201C24.494 31.6385 23.7573 30.5417 22.5533 29.7288C21.3482 28.9169 19.8338 28.5099 18.0079 28.5099C15.9622 28.5099 14.3131 28.9829 13.0594 29.929C11.8057 30.8739 11.1794 32.1962 11.1794 33.8914C11.1794 36.1707 12.506 37.7581 15.1592 38.6557L19.6869 40.2189C21.3658 40.8008 22.2064 41.6611 22.2064 42.8007C22.2064 43.6005 21.8099 44.255 21.0201 44.7643C20.2281 45.2736 19.2484 45.5278 18.0808 45.5278C16.9133 45.5278 15.8838 45.2736 15.0686 44.7643C14.2523 44.255 13.7475 43.5895 13.5531 42.7644L10.668 43.2737C10.9364 44.8017 11.7206 46.0063 13.0229 46.8918C14.3263 47.7774 15.9876 48.2196 18.0079 48.2196C20.0282 48.2196 21.8408 47.7279 23.1564 46.7466C24.4708 45.7643 25.128 44.4134 25.128 42.6929C25.128 40.3168 23.6788 38.5952 20.7826 37.5293V37.5282Z" fill="#EFF5F2"/>
<path d="M41.7417 30.6563C40.2572 29.2263 38.4191 28.5101 36.2277 28.5101C33.2099 28.5101 30.9455 29.6993 29.4367 32.0743V20.5468H26.3682V47.8194H29.4367V36.9101C29.4367 35.3822 30.0089 34.0863 31.1532 33.0192C32.2965 31.9522 33.7092 31.4198 35.3882 31.4198C36.9456 31.4198 38.249 31.9412 39.2962 32.9829C40.3422 34.0247 40.8658 35.3107 40.8658 36.8364V47.6159C41.8687 47.1725 42.9755 47.1263 43.9332 47.4916V36.0367C43.9332 33.8553 43.2031 32.06 41.7428 30.6552L41.7417 30.6563Z" fill="#EFF5F2"/>
<path d="M0.376764 52.3317H0.117188V50.3164H0.377869V52.3317H0.376764Z" fill="#EFF5F2"/>
<path d="M0.633917 52.3316V50.8345H0.876925V51.0853C0.99622 50.8972 1.17516 50.8037 1.41154 50.8037C1.58496 50.8037 1.72856 50.8609 1.84233 50.9731C1.95831 51.0842 2.01575 51.2261 2.01575 51.3988V52.3316H1.77274V51.4626C1.77274 51.3416 1.73077 51.2404 1.64792 51.1579C1.56729 51.0754 1.46567 51.0336 1.34416 51.0336C1.21272 51.0336 1.10226 51.0754 1.01168 51.1601C0.921108 51.2448 0.87582 51.3471 0.87582 51.4681V52.3316H0.632812H0.633917Z" fill="#EFF5F2"/>
<path d="M2.2472 52.3316V50.8345H2.49021V51.0853C2.6095 50.8972 2.78844 50.8037 3.02482 50.8037C3.19824 50.8037 3.34184 50.8609 3.45561 50.9731C3.57159 51.0842 3.62903 51.2261 3.62903 51.3988V52.3316H3.38602V51.4626C3.38602 51.3416 3.34405 51.2404 3.2612 51.1579C3.18057 51.0754 3.07895 51.0336 2.95744 51.0336C2.826 51.0336 2.71554 51.0754 2.62497 51.1601C2.53439 51.2448 2.4891 51.3471 2.4891 51.4681V52.3316H2.24609H2.2472Z" fill="#EFF5F2"/>
<path d="M4.00425 52.1424C3.85623 51.9906 3.78223 51.8047 3.78223 51.5836C3.78223 51.3625 3.85623 51.1755 4.00425 51.028C4.15447 50.8784 4.34114 50.8036 4.56537 50.8036C4.7896 50.8036 4.97628 50.8784 5.1265 51.028C5.27673 51.1755 5.35184 51.3614 5.35184 51.5836C5.35184 51.8058 5.27673 51.9928 5.1265 52.1424C4.97407 52.2898 4.7874 52.3635 4.56537 52.3635C4.34335 52.3635 4.15668 52.2898 4.00425 52.1424ZM4.56427 52.1215C4.7167 52.1215 4.84373 52.0709 4.94535 51.9686C5.04697 51.863 5.09889 51.7343 5.09889 51.5825C5.09889 51.4307 5.04808 51.3009 4.94535 51.1997C4.84373 51.0962 4.7156 51.0445 4.56427 51.0445C4.41294 51.0445 4.28592 51.0962 4.1854 51.1997C4.08378 51.3009 4.03186 51.4285 4.03186 51.5825C4.03186 51.7365 4.08267 51.863 4.1854 51.9686C4.28702 52.0698 4.41405 52.1215 4.56427 52.1215Z" fill="#EFF5F2"/>
<path d="M5.94025 52.3316L5.29297 50.8344H5.54481L6.05071 52.0203L6.55992 50.8344H6.81177L6.16448 52.3316H5.94246H5.94025Z" fill="#EFF5F2"/>
<path d="M7.48909 50.8037C7.71443 50.8037 7.89779 50.8851 8.03807 51.048V50.8345H8.28108V52.3317H8.03807V52.1183C7.89779 52.2811 7.71443 52.3625 7.48909 52.3625C7.27922 52.3625 7.10249 52.2888 6.96 52.1414C6.81972 51.994 6.74902 51.807 6.74902 51.5826C6.74902 51.3582 6.81972 51.1734 6.96 51.0271C7.10028 50.8774 7.27701 50.8026 7.48909 50.8026V50.8037ZM7.5156 51.0458C7.3709 51.0458 7.24829 51.0975 7.14888 51.2009C7.05057 51.3021 7.00197 51.4297 7.00197 51.5837C7.00197 51.7377 7.05057 51.8653 7.14888 51.9698C7.2505 52.071 7.37311 52.1227 7.5156 52.1227C7.65809 52.1227 7.78402 52.0721 7.88232 51.9698C7.98284 51.8686 8.03255 51.7399 8.03255 51.5837C8.03255 51.4275 7.98284 51.301 7.88232 51.2009C7.78402 51.0975 7.66141 51.0458 7.5156 51.0458Z" fill="#EFF5F2"/>
<path d="M8.35547 51.0479V50.8344H8.59848V50.5352H8.84148V50.8344H9.26012V51.0479H8.84148V51.863C8.84148 51.9301 8.86247 51.9862 8.90334 52.0313C8.94421 52.0764 8.99613 52.0984 9.05798 52.0984H9.26012V52.3316H9.04031C8.91549 52.3316 8.81056 52.2898 8.7255 52.2051C8.64045 52.1204 8.59848 52.0159 8.59848 51.8916V51.0479H8.35547Z" fill="#EFF5F2"/>
<path d="M9.39112 50.5903C9.36019 50.5573 9.34473 50.5177 9.34473 50.4693C9.34473 50.4209 9.36019 50.3824 9.39112 50.3516C9.42426 50.3186 9.46402 50.3021 9.51262 50.3021C9.56122 50.3021 9.60099 50.3186 9.63413 50.3516C9.66726 50.3824 9.68383 50.422 9.68383 50.4693C9.68383 50.5166 9.66726 50.5573 9.63413 50.5903C9.60099 50.6211 9.56122 50.6365 9.51262 50.6365C9.46402 50.6365 9.42426 50.6211 9.39112 50.5903ZM9.63413 52.3317H9.39112V50.8345H9.63413V52.3317Z" fill="#EFF5F2"/>
<path d="M10.3524 52.3316L9.70508 50.8344H9.95692L10.4628 52.0203L10.972 50.8344H11.2239L10.5766 52.3316H10.3546H10.3524Z" fill="#EFF5F2"/>
<path d="M12.7063 51.6672H11.414C11.4316 51.8014 11.4913 51.9136 11.5929 52.0038C11.6934 52.0918 11.816 52.1358 11.9629 52.1358C12.154 52.1358 12.302 52.0643 12.4081 51.9202L12.6456 51.995C12.576 52.1105 12.481 52.2007 12.3606 52.2656C12.2402 52.3305 12.1076 52.3635 11.9629 52.3635C11.7354 52.3635 11.5443 52.2898 11.3908 52.1424C11.2383 51.9928 11.1621 51.8069 11.1621 51.5836C11.1621 51.3603 11.2361 51.1755 11.3841 51.0281C11.5321 50.8785 11.7166 50.8037 11.9364 50.8037C12.1562 50.8037 12.3418 50.8785 12.4887 51.0281C12.6367 51.1755 12.7107 51.3614 12.7107 51.5836C12.7107 51.5891 12.7085 51.6177 12.7052 51.6672H12.7063ZM11.4173 51.4714H12.4611C12.4379 51.3427 12.3771 51.236 12.2788 51.1524C12.1827 51.0699 12.0668 51.0292 11.932 51.0292C11.7972 51.0292 11.6879 51.071 11.594 51.1524C11.5001 51.2349 11.4405 51.3416 11.4173 51.4714Z" fill="#EFF5F2"/>
<path d="M1.11673 53.8586L0.888083 53.8993C0.872619 53.8421 0.836168 53.797 0.779834 53.764C0.723501 53.731 0.651703 53.7156 0.564441 53.7156C0.477179 53.7156 0.413113 53.7343 0.357884 53.7706C0.302655 53.8069 0.275041 53.8542 0.275041 53.9114C0.275041 53.9917 0.328061 54.0511 0.4341 54.0874L0.800821 54.2172C1.03057 54.3019 1.14435 54.4383 1.14435 54.6264C1.14435 54.7628 1.09243 54.8695 0.9886 54.9476C0.884769 55.0257 0.748906 55.0642 0.58101 55.0642C0.413113 55.0642 0.2894 55.029 0.186674 54.9597C0.0839482 54.8893 0.020987 54.7936 0 54.6737L0.228648 54.633C0.244112 54.6979 0.283877 54.7507 0.349048 54.7914C0.413113 54.8321 0.492643 54.8519 0.587637 54.8519C0.682631 54.8519 0.757743 54.8321 0.820704 54.7914C0.883665 54.7507 0.914593 54.699 0.914593 54.6363C0.914593 54.5461 0.848318 54.4779 0.714664 54.4317L0.35678 54.3085C0.146909 54.237 0.0419741 54.1116 0.0419741 53.9312C0.0419741 53.797 0.0916802 53.6925 0.191093 53.6177C0.290505 53.5429 0.420845 53.5055 0.583219 53.5055C0.727919 53.5055 0.847214 53.5374 0.943312 53.6023C1.03831 53.6661 1.09685 53.753 1.11784 53.863L1.11673 53.8586Z" fill="#EFF5F2"/>
<path d="M1.30091 55.0299V53.5327H1.54392V53.7835C1.66321 53.5954 1.84215 53.5019 2.07853 53.5019C2.25195 53.5019 2.39555 53.5591 2.50932 53.6713C2.6253 53.7824 2.68274 53.9243 2.68274 54.097V55.0299H2.43973V54.1608C2.43973 54.0398 2.39776 53.9386 2.31491 53.8561C2.23428 53.7736 2.13266 53.7329 2.01116 53.7329C1.87971 53.7329 1.76925 53.7747 1.67868 53.8594C1.5881 53.9441 1.54281 54.0464 1.54281 54.1674V55.031H1.2998L1.30091 55.0299Z" fill="#EFF5F2"/>
<path d="M3.57698 53.502C3.80232 53.502 3.98568 53.5834 4.12596 53.7462V53.5328H4.36897V55.03H4.12596V54.8166C3.98568 54.9794 3.80232 55.0608 3.57698 55.0608C3.36711 55.0608 3.19038 54.9871 3.04789 54.8397C2.90761 54.6923 2.83691 54.5053 2.83691 54.2809C2.83691 54.0565 2.90761 53.8716 3.04789 53.7253C3.18817 53.5757 3.3649 53.5009 3.57698 53.5009V53.502ZM3.60239 53.744C3.45769 53.744 3.33508 53.7957 3.23567 53.8991C3.13736 54.0004 3.08876 54.128 3.08876 54.282C3.08876 54.436 3.13736 54.5636 3.23567 54.6681C3.33729 54.7693 3.4599 54.821 3.60239 54.821C3.74488 54.821 3.8708 54.7704 3.96911 54.6681C4.06963 54.5669 4.11933 54.4382 4.11933 54.282C4.11933 54.1258 4.06963 53.9993 3.96911 53.8991C3.8708 53.7957 3.74819 53.744 3.60239 53.744Z" fill="#EFF5F2"/>
<path d="M6.02639 53.9544L5.78338 54.0259C5.7392 53.9401 5.67513 53.8708 5.59118 53.8202C5.50724 53.7696 5.41335 53.7443 5.30952 53.7443C5.15708 53.7443 5.03116 53.796 4.93064 53.8994C4.82902 54.0006 4.77711 54.1282 4.77711 54.2822C4.77711 54.4362 4.82792 54.5627 4.93064 54.6683C5.03227 54.7695 5.15929 54.8212 5.30952 54.8212C5.41335 54.8212 5.50724 54.7959 5.59118 54.7453C5.67513 54.6947 5.7392 54.6254 5.78338 54.5396L6.02639 54.6111C5.96453 54.7508 5.86954 54.8619 5.74141 54.9422C5.61328 55.0225 5.46968 55.0632 5.30952 55.0632C5.08749 55.0632 4.90082 54.9895 4.74839 54.8421C4.60037 54.6903 4.52637 54.5044 4.52637 54.2833C4.52637 54.0622 4.60037 53.8752 4.74839 53.7278C4.89861 53.5782 5.08529 53.5034 5.30952 53.5034C5.46968 53.5034 5.61328 53.5441 5.74141 53.6244C5.86954 53.7047 5.96453 53.8158 6.02639 53.9555V53.9544Z" fill="#EFF5F2"/>
<path d="M6.16211 55.03V52.8717H6.40512V55.03H6.16211ZM7.39703 55.03H7.09327L6.41727 54.2555L7.03583 53.5328H7.33297L6.71771 54.2555L7.39703 55.03Z" fill="#EFF5F2"/>
<path d="M8.09681 55.03V52.8717H8.33982V53.7836C8.45911 53.5955 8.63805 53.502 8.87775 53.502C9.05117 53.502 9.19697 53.5592 9.31406 53.6714C9.43004 53.7825 9.48748 53.9244 9.48748 54.0971V55.03H9.24447V54.1609C9.24447 54.0399 9.20249 53.9387 9.11965 53.8562C9.03681 53.7737 8.93408 53.733 8.81037 53.733C8.67782 53.733 8.56515 53.7748 8.47457 53.8595C8.384 53.9442 8.33871 54.0465 8.33871 54.1675V55.0311H8.0957L8.09681 55.03Z" fill="#EFF5F2"/>
<path d="M9.69531 54.4661V53.5333H9.93832V54.4023C9.93832 54.5211 9.97919 54.6234 10.0598 54.707C10.1427 54.7895 10.2454 54.8302 10.3691 54.8302C10.5006 54.8302 10.6099 54.7895 10.6983 54.707C10.7888 54.6223 10.8341 54.5189 10.8341 54.3957V53.5322H11.0771V55.0294H10.8341V54.7818C10.7226 54.9677 10.5447 55.0613 10.3028 55.0613C10.1294 55.0613 9.98361 55.0052 9.86652 54.8918C9.75275 54.7785 9.69642 54.6366 9.69642 54.4661H9.69531Z" fill="#EFF5F2"/>
<path d="M11.3135 55.0299V52.8716H11.5565V53.7462C11.6968 53.5833 11.879 53.5019 12.1033 53.5019C12.3153 53.5019 12.491 53.5767 12.6323 53.7264C12.7748 53.8738 12.8466 54.0597 12.8466 54.2819C12.8466 54.5041 12.7748 54.6889 12.6323 54.8407C12.4899 54.9881 12.3131 55.0618 12.1033 55.0618C11.8801 55.0618 11.6979 54.9804 11.5565 54.8176V55.031H11.3135V55.0299ZM12.0767 53.744C11.932 53.744 11.8094 53.7957 11.71 53.8991C11.6117 54.0003 11.5631 54.1279 11.5631 54.2819C11.5631 54.4359 11.6128 54.5635 11.71 54.668C11.8116 54.7692 11.9343 54.8209 12.0767 54.8209C12.2192 54.8209 12.3452 54.7703 12.4435 54.668C12.544 54.5668 12.5937 54.4381 12.5937 54.2819C12.5937 54.1257 12.544 53.9992 12.4435 53.8991C12.3452 53.7957 12.2225 53.744 12.0767 53.744Z" fill="#EFF5F2"/>
<path d="M27.8186 50.4835L27.5612 50.5583C27.5436 50.4813 27.4938 50.4164 27.4121 50.3636C27.3304 50.3108 27.2343 50.2844 27.1249 50.2844C27.0034 50.2844 26.9029 50.3141 26.8245 50.3735C26.7449 50.4307 26.7063 50.5044 26.7063 50.5924C26.7063 50.6881 26.7604 50.7629 26.8687 50.8168C26.9537 50.8575 27.084 50.8993 27.2586 50.9433C27.4011 50.9796 27.5115 51.017 27.591 51.0555C27.7755 51.1413 27.8738 51.292 27.8827 51.5077C27.8827 51.6881 27.8131 51.8344 27.675 51.9455C27.5402 52.0566 27.3646 52.1127 27.1492 52.1127C26.9548 52.1127 26.7891 52.0676 26.6522 51.9774C26.5152 51.8894 26.429 51.7739 26.3926 51.632L26.6522 51.5539C26.6676 51.6419 26.7217 51.7156 26.8156 51.7739C26.9095 51.8322 27.02 51.8619 27.1492 51.8619C27.2785 51.8619 27.3966 51.8311 27.4872 51.7695C27.5778 51.7057 27.6231 51.6254 27.6231 51.5275C27.6231 51.4295 27.5745 51.3525 27.4784 51.303C27.3933 51.259 27.2961 51.2238 27.1868 51.1963L27.0653 51.1644L26.9526 51.1303L26.8344 51.0896C26.8289 51.0874 26.8201 51.0841 26.8101 51.0797C26.8002 51.0753 26.7869 51.0687 26.7715 51.0621C26.756 51.0555 26.7427 51.0489 26.7306 51.0434C26.682 51.0203 26.6256 50.9796 26.5605 50.9191C26.4953 50.8542 26.4566 50.7508 26.4445 50.6078C26.4445 50.4373 26.5086 50.2987 26.6356 50.1931C26.7648 50.0853 26.9272 50.0325 27.1238 50.0325C27.3005 50.0325 27.4519 50.0743 27.5778 50.159C27.7048 50.2415 27.7855 50.3493 27.8208 50.4813L27.8186 50.4835Z" fill="#EFF5F2"/>
<path d="M28.062 50.3394C28.0311 50.3064 28.0156 50.2668 28.0156 50.2184C28.0156 50.17 28.0311 50.1315 28.062 50.1007C28.0952 50.0677 28.1349 50.0512 28.1835 50.0512C28.2321 50.0512 28.2719 50.0677 28.305 50.1007C28.3382 50.1315 28.3547 50.1711 28.3547 50.2184C28.3547 50.2657 28.3382 50.3064 28.305 50.3394C28.2719 50.3702 28.2321 50.3856 28.1835 50.3856C28.1349 50.3856 28.0952 50.3702 28.062 50.3394ZM28.305 52.0808H28.062V50.5837H28.305V52.0808Z" fill="#EFF5F2"/>
<path d="M28.5411 52.0809V50.5837H28.7842V50.8345C28.9034 50.6464 29.0824 50.5529 29.3188 50.5529C29.4922 50.5529 29.6358 50.609 29.7496 50.7223C29.8655 50.8334 29.923 50.9753 29.923 51.148V52.0809H29.68V51.2118C29.68 51.0908 29.638 50.9896 29.5551 50.9071C29.4745 50.8246 29.3729 50.7839 29.2514 50.7839C29.1199 50.7839 29.0095 50.8257 28.9189 50.9104C28.8283 50.9951 28.783 51.0974 28.783 51.2184V52.082H28.54L28.5411 52.0809Z" fill="#EFF5F2"/>
<path d="M31.5762 51.0047L31.3332 51.0762C31.289 50.9904 31.2249 50.9211 31.141 50.8705C31.057 50.8199 30.9632 50.7946 30.8593 50.7946C30.7069 50.7946 30.581 50.8463 30.4804 50.9497C30.3788 51.0509 30.3269 51.1785 30.3269 51.3325C30.3269 51.4865 30.3777 51.613 30.4804 51.7186C30.5821 51.8198 30.7091 51.8715 30.8593 51.8715C30.9632 51.8715 31.057 51.8462 31.141 51.7956C31.2249 51.745 31.289 51.6757 31.3332 51.5899L31.5762 51.6614C31.5143 51.8011 31.4193 51.9122 31.2912 51.9925C31.1631 52.0728 31.0195 52.1135 30.8593 52.1135C30.6373 52.1135 30.4506 52.0398 30.2982 51.8924C30.1502 51.7406 30.0762 51.5547 30.0762 51.3336C30.0762 51.1125 30.1502 50.9255 30.2982 50.7781C30.4484 50.6285 30.6351 50.5537 30.8593 50.5537C31.0195 50.5537 31.1631 50.5944 31.2912 50.6747C31.4193 50.755 31.5143 50.8661 31.5762 51.0058V51.0047Z" fill="#EFF5F2"/>
<path d="M33.177 51.4164H31.8847C31.9023 51.5507 31.962 51.6629 32.0636 51.7531C32.1641 51.8411 32.2867 51.8851 32.4336 51.8851C32.6247 51.8851 32.7727 51.8136 32.8788 51.6695L33.1163 51.7443C33.0467 51.8598 32.9517 51.95 32.8313 52.0149C32.7109 52.0798 32.5783 52.1128 32.4336 52.1128C32.2061 52.1128 32.015 52.0391 31.8615 51.8917C31.709 51.7421 31.6328 51.5562 31.6328 51.3328C31.6328 51.1095 31.7068 50.9247 31.8548 50.7773C32.0028 50.6277 32.1873 50.5529 32.4071 50.5529C32.6269 50.5529 32.8125 50.6277 32.9594 50.7773C33.1074 50.9247 33.1814 51.1106 33.1814 51.3328C33.1814 51.3383 33.1792 51.3669 33.1759 51.4164H33.177ZM31.888 51.2206H32.9318C32.9086 51.0919 32.8479 50.9852 32.7495 50.9016C32.6534 50.8191 32.5375 50.7773 32.4027 50.7773C32.2679 50.7773 32.1586 50.8191 32.0647 50.9016C31.9708 50.9841 31.9112 51.0908 31.888 51.2206Z" fill="#EFF5F2"/>
<path d="M44.8786 53.9174C46.5182 52.2845 46.6427 49.761 45.1567 48.2811C43.6706 46.8011 41.1367 46.9251 39.4971 48.558C37.8575 50.1909 37.733 52.7143 39.2191 54.1943C40.7051 55.6743 43.239 55.5503 44.8786 53.9174Z" stroke="#EFF5F2" stroke-width="0.524697" stroke-miterlimit="10"/>
<path d="M41.7801 50.7179C41.7801 50.6167 41.7381 50.5298 41.6553 50.4583C41.5702 50.3857 41.4708 50.3494 41.3548 50.3494C41.251 50.3494 41.1582 50.3791 41.0776 50.4396C40.9969 50.5001 40.9362 50.5826 40.8953 50.686L40.6611 50.5738C40.7208 50.4297 40.8125 50.3164 40.9362 50.2328C41.0599 50.1492 41.1991 50.1074 41.3548 50.1074C41.547 50.1074 41.7094 50.1657 41.8408 50.2834C41.9734 50.4 42.0408 50.543 42.0408 50.7091C42.0408 50.8169 42.0076 50.9225 41.9413 51.027C41.8751 51.1315 41.7679 51.2547 41.6188 51.3966L41.0787 51.9115H42.0695V52.1535H40.6854V51.9665L41.4509 51.2294C41.5702 51.1128 41.6553 51.0171 41.705 50.9434C41.7547 50.8697 41.7801 50.7938 41.7801 50.7179Z" fill="#EFF5F2"/>
<path d="M43.2885 52.1534V51.7387H42.1729V51.4967L43.3061 50.1381H43.5436V51.4934H43.833V51.7376H43.5436V52.1523H43.2896L43.2885 52.1534ZM43.2885 50.5253L42.4788 51.4956H43.2885V50.5253Z" fill="#EFF5F2"/>
<path d="M214.094 8.97442C213.672 8.69404 213.136 8.6411 212.668 8.83325C212.38 8.95187 205.594 11.8351 204.426 21.2218C203.361 29.7744 203.066 33.2644 203.054 33.4085C202.991 34.1722 203.514 34.8614 204.269 35.0133C204.354 35.031 206.364 35.4633 206.364 38.1759C206.364 40.3228 205.475 40.6493 203.464 41.1856C203.126 41.2757 202.78 41.3689 202.44 41.4777C202.224 41.5483 201.916 41.6208 201.562 41.7042C201.138 40.7444 200.69 39.7944 200.246 38.8523C198.517 35.1888 196.729 31.4007 196.729 27.5353V2.08163C196.729 1.24834 196.048 0.571899 195.208 0.571899C194.368 0.571899 193.687 1.24736 193.687 2.08163V27.5333C193.687 31.4056 191.937 35.1957 190.243 38.8621C189.809 39.8023 189.371 40.7513 188.958 41.7081C188.604 41.6238 188.298 41.5502 188.085 41.4796C187.752 41.3699 187.41 41.2767 187.079 41.1865C185.259 40.6915 184.256 40.4189 184.256 38.1749C184.256 35.9701 185.391 35.2309 186.343 34.9986C187.068 34.8221 187.557 34.1496 187.497 33.4104C187.485 33.2663 187.196 29.7773 186.155 21.2258C185.013 11.8429 178.359 8.95579 178.077 8.83717C177.607 8.6411 177.069 8.6911 176.645 8.9705C176.222 9.2499 175.965 9.72242 175.965 10.2283V50.7753C175.965 51.6086 176.645 52.285 177.487 52.285H186.774C187.604 59.7797 194.192 62.9864 194.49 63.1276C194.702 63.2276 194.923 63.2746 195.142 63.2746C195.164 63.2746 195.185 63.2707 195.206 63.2697C195.228 63.2707 195.251 63.2746 195.274 63.2746C195.49 63.2746 195.707 63.2286 195.916 63.1325C196.221 62.9903 202.945 59.7866 203.791 52.285H213.246C214.086 52.285 214.766 51.6095 214.766 50.7753V10.2283C214.768 9.72438 214.515 9.25382 214.094 8.97442ZM200.747 49.2655H196.846C197.211 47.0539 198.403 45.9971 199.777 45.3893C200.243 46.6882 200.591 47.9764 200.747 49.2655ZM195.225 34.9731C195.89 36.7328 196.695 38.4445 197.492 40.1317C197.884 40.963 198.272 41.7845 198.636 42.5982C197.401 43.1296 196.134 43.9491 195.191 45.2971C194.28 43.9736 193.063 43.158 191.873 42.6267C192.235 41.8002 192.62 40.966 193.01 40.1199C193.787 38.4367 194.575 36.7279 195.225 34.9731ZM190.754 45.4324C192.052 46.0461 193.167 47.1058 193.514 49.2655H189.821C189.971 47.9901 190.305 46.7166 190.754 45.4324ZM179.008 13.0674C180.6 14.4967 182.593 17.1299 183.137 21.5875C183.845 27.4009 184.206 30.8988 184.364 32.535C182.684 33.3957 181.216 35.1937 181.216 38.1749C181.216 42.7208 184.384 43.5835 186.276 44.0981C186.581 44.1805 186.87 44.2599 187.124 44.3432C187.345 44.4158 187.592 44.4815 187.847 44.5452C187.315 46.0882 186.917 47.6597 186.76 49.2646H179.006V13.0674H179.008ZM195.217 60.0768C193.839 59.2425 190.501 56.7848 189.846 52.284H195.145C195.147 52.284 195.15 52.284 195.153 52.284C195.163 52.284 195.172 52.2811 195.18 52.2811C195.19 52.2811 195.2 52.284 195.208 52.284H200.719C200.049 56.7906 196.62 59.2494 195.217 60.0768ZM211.727 49.2655H203.806C203.647 47.6558 203.239 46.0814 202.695 44.5364C202.938 44.4766 203.173 44.4148 203.383 44.3472C203.646 44.2619 203.94 44.1834 204.251 44.1011C206.179 43.5874 209.406 42.7276 209.406 38.1759C209.406 35.0486 207.699 33.3242 206.19 32.537C206.352 30.9008 206.721 27.4029 207.445 21.5924C208.006 17.0779 210.09 14.4359 211.727 13.0193V49.2655Z" fill="#EFF5F2"/>
<g clip-path="url(#clip0_197_737)">
<path d="M134.305 52.4179C134.804 52.3442 135.159 52.1837 135.376 51.9365C135.593 51.6893 135.697 51.3987 135.697 51.0605C135.697 50.6615 135.554 50.3492 135.268 50.1193C134.982 49.8938 134.617 49.7811 134.179 49.7811C133.802 49.7811 133.446 49.8678 133.117 50.0369C132.783 50.2061 132.514 50.475 132.301 50.8393C132.089 51.2036 131.985 51.6676 131.985 52.2271V52.7475L134.305 52.4179ZM111.189 53.1769C111.176 54.8856 109.788 56.2648 108.075 56.2648C106.362 56.2648 104.974 54.8856 104.961 53.1769V48.9093H106.093V53.1769C106.106 54.2611 106.987 55.1328 108.075 55.1328C109.164 55.1328 110.044 54.2611 110.057 53.1769V48.9093H111.189V53.1769ZM130.861 52.5871C130.861 51.6893 131.018 50.952 131.326 50.3796C131.633 49.8071 132.041 49.3907 132.549 49.1262C133.056 48.866 133.611 48.7359 134.214 48.7359C134.691 48.7359 135.129 48.8226 135.528 49.0004C135.927 49.1782 136.248 49.4384 136.486 49.7811C136.725 50.1237 136.842 50.527 136.842 50.9867C136.842 51.4464 136.725 51.8541 136.486 52.1794C136.248 52.509 135.91 52.7649 135.472 52.9427C135.962 53.0641 136.326 53.2333 136.565 53.4458C136.803 53.6626 136.92 53.9705 136.92 54.3782V56.2561H135.788V54.2958C135.788 54.1527 135.654 54.0226 135.385 53.9055C135.116 53.7884 134.804 53.6973 134.439 53.6279C134.075 53.5585 133.785 53.5282 133.555 53.5282C133.268 53.5282 132.744 53.5889 131.98 53.7103V56.2604H130.861V52.5784V52.5871ZM125.367 56.2691V48.9093H126.499V56.2691H125.367ZM117.937 56.2691V49.9502H116.216V50.9911H115.097V48.905H121.88V50.9911H120.761V49.9502H119.074V56.2691H117.942H117.937ZM93.9195 56.2691V48.9093H95.0515V51.2079H99.0154V48.9093H100.147V56.2691H99.0154V52.2705H95.0515V56.2691H93.9195ZM83.4111 48.9093H84.5301V51.5722C85.0895 50.8479 85.7834 50.2278 86.6075 49.716C87.4358 49.2042 88.2121 48.918 88.9364 48.866L89.2877 49.9285C88.7759 49.9675 88.3119 50.0673 87.8999 50.2278C87.4878 50.3882 87.0281 50.6615 86.512 51.0388C87.0715 51.5505 87.6527 52.2618 88.2598 53.1725C88.867 54.0833 89.4525 55.1155 90.0076 56.2691H88.7152C88.1948 55.2369 87.67 54.3348 87.1409 53.5672C86.6118 52.7996 86.1087 52.1967 85.623 51.75C85.2673 52.0753 84.9941 52.3919 84.8076 52.6998C84.6211 53.0077 84.5257 53.294 84.5257 53.5499V56.2691H83.4111V48.9093Z" fill="#EFF5F2"/>
<path fill-rule="evenodd" clip-rule="evenodd" d="M136.998 44.1821V27.5673H120.384L136.998 44.1821ZM83.4893 9.12233V25.7371H100.104L83.4893 9.12233ZM100.104 44.1864C91.1396 43.7224 83.949 36.5361 83.4893 27.5673H100.104V44.1821V44.1864ZM118.549 27.5673C118.089 36.5361 110.899 43.7224 101.934 44.1821V27.5673H118.549ZM101.934 25.7371C102.398 16.7727 109.585 9.58204 118.549 9.12233V25.7371H101.934ZM136.998 25.7371C136.539 16.7727 129.348 9.58204 120.384 9.12233V25.7371H136.998Z" fill="#EFF5F2"/>
<path d="M136.998 31.8868C136.764 31.8695 136.526 31.8565 136.283 31.8391V31.7264C136.283 31.6093 136.192 31.5139 136.07 31.4965C136.205 31.297 136.283 31.0628 136.283 30.8113V30.1477C136.283 30.0176 136.166 29.9135 136.027 29.9179C135.888 29.9179 135.771 30.0263 135.771 30.1521V30.8156C135.771 31.0411 135.676 31.245 135.515 31.3924C135.411 31.4878 135.281 31.5616 135.138 31.6006L135.129 29.61C135.129 29.4798 135.017 29.3758 134.873 29.3758C134.73 29.3758 134.618 29.4798 134.618 29.61L134.626 31.1322C134.626 31.1322 134.618 31.1669 134.618 31.1886V31.5963C134.483 31.5572 134.362 31.4878 134.262 31.4011C134.101 31.258 134.002 31.0542 134.002 30.833V30.1694C134.002 30.0393 133.889 29.9352 133.746 29.9396C133.607 29.9396 133.49 30.048 133.49 30.1738V30.8373C133.49 31.0888 133.572 31.323 133.711 31.5182C133.598 31.5312 133.507 31.618 133.494 31.722C133.494 31.7307 133.49 31.7437 133.49 31.7524C132.961 31.7524 132.427 31.7524 131.894 31.7697V31.5312C131.894 31.4315 131.812 31.3534 131.707 31.3404C131.829 31.1712 131.898 30.9674 131.898 30.7549V30.2345C131.898 30.126 131.803 30.0436 131.686 30.0436C131.569 30.0436 131.473 30.1304 131.473 30.2388V30.7592C131.473 30.9457 131.395 31.1149 131.261 31.2363C131.174 31.3144 131.07 31.3751 130.948 31.4098L130.94 29.7878C130.94 29.6793 130.844 29.5926 130.727 29.5969C130.61 29.5969 130.515 29.6837 130.515 29.7921L130.523 31.4141C130.406 31.3838 130.307 31.3274 130.22 31.2493C130.085 31.1279 130.003 30.9631 130.003 30.7766V30.2562C130.003 30.1477 129.908 30.0653 129.791 30.0653C129.673 30.0653 129.578 30.1521 129.578 30.2605V30.7809C129.578 30.9978 129.652 31.1973 129.773 31.3664C129.66 31.3707 129.574 31.4575 129.574 31.5616V31.8955C128.099 32.0083 126.642 32.1991 125.28 32.4767L125.614 32.8106C126.898 32.5764 128.234 32.4073 129.587 32.3032C129.613 32.4637 129.673 32.6154 129.769 32.7456C129.656 32.7456 129.561 32.8366 129.561 32.9407V33.5479C129.565 33.8428 129.695 34.103 129.908 34.2938C130.072 34.4413 130.281 34.541 130.515 34.5801V35.2046C130.029 34.5757 129.4 34.1984 128.594 34.2852H128.589C128.472 34.3025 128.394 34.3979 128.407 34.5063C128.45 34.7839 128.528 35.0051 128.65 35.2003C128.771 35.3954 128.94 35.5559 129.166 35.7164C129.257 35.7814 129.392 35.7641 129.465 35.6817C129.535 35.5949 129.522 35.4735 129.426 35.4084C129.244 35.2783 129.11 35.1525 129.019 35.0051C128.953 34.9053 128.906 34.7969 128.871 34.6668C129.431 34.6798 129.877 35.0398 130.198 35.4778C130.784 36.2802 130.736 36.2021 131.265 35.4778C131.59 35.0355 132.024 34.6928 132.588 34.6755C132.553 34.8056 132.505 34.9184 132.44 35.0138C132.345 35.1612 132.215 35.287 132.033 35.4171C131.942 35.4822 131.924 35.6036 131.994 35.6903C132.063 35.7771 132.197 35.7901 132.289 35.725C132.514 35.5646 132.683 35.4041 132.805 35.2089C132.926 35.0138 133.004 34.7969 133.048 34.515C133.065 34.4066 132.982 34.3112 132.865 34.2938H132.861C132.076 34.2071 131.395 34.5844 130.931 35.2046V34.5714C131.17 34.528 131.378 34.4239 131.538 34.2722C131.746 34.077 131.872 33.8124 131.872 33.5219V32.9147C131.872 32.8193 131.794 32.7412 131.694 32.7239C131.807 32.5677 131.872 32.3856 131.881 32.1861C132.414 32.1731 132.948 32.1731 133.477 32.1774V32.3422V32.4116C133.477 32.6718 133.564 32.9147 133.711 33.1185C133.577 33.1272 133.468 33.227 133.468 33.3527V34.064V34.0813C133.468 34.3415 133.555 34.5844 133.702 34.7839C133.564 34.7839 133.451 34.8923 133.451 35.0181V35.7467C133.455 36.1023 133.616 36.4189 133.867 36.6488C134.062 36.8266 134.318 36.948 134.6 36.9957V37.7504C134.405 37.4988 134.175 37.2776 133.928 37.0998C133.663 36.909 133.377 36.7832 133.091 36.7052C132.783 36.6228 132.471 36.6054 132.163 36.6401H132.158C132.02 36.6575 131.92 36.7789 131.942 36.9047C131.994 37.243 132.089 37.5075 132.237 37.7417C132.384 37.9759 132.588 38.1711 132.861 38.3662C132.974 38.4443 133.134 38.4269 133.221 38.3228C133.308 38.2188 133.286 38.0713 133.173 37.9932C132.952 37.8371 132.792 37.6853 132.679 37.5032C132.601 37.3817 132.544 37.2516 132.501 37.0912C132.653 37.0912 132.8 37.1172 132.952 37.1562C133.182 37.2169 133.403 37.3167 133.616 37.4685C133.841 37.6289 134.045 37.8371 134.219 38.0713C134.925 39.0384 134.865 38.943 135.507 38.0713C135.68 37.8371 135.884 37.6289 136.109 37.4685C136.365 37.2863 136.66 37.1605 136.968 37.1128V36.6358C136.851 36.6488 136.73 36.6705 136.612 36.7008C136.326 36.7746 136.04 36.9047 135.775 37.0955C135.58 37.2343 135.402 37.3991 135.242 37.5812C135.194 37.6376 135.151 37.6897 135.108 37.746V36.9827C135.394 36.9307 135.645 36.8049 135.841 36.6228C136.092 36.3886 136.244 36.0676 136.244 35.7164V34.9877C136.24 34.8706 136.148 34.7752 136.027 34.7579C136.17 34.5584 136.253 34.3242 136.257 34.0727V34.051V33.318C136.257 33.2009 136.153 33.1012 136.027 33.0882C136.174 32.8843 136.257 32.6415 136.257 32.3769V32.2945C136.495 32.3119 136.734 32.3335 136.972 32.3552V31.8738L136.998 31.8868ZM98.3955 44.0129C98.1222 43.9739 97.8533 43.9262 97.5845 43.8698C96.7171 42.933 95.5461 41.9962 94.271 41.1679C92.185 39.8147 89.8213 38.7565 88.0345 38.466C87.7917 38.2014 87.5575 37.9282 87.332 37.6463C87.8307 37.4858 88.3988 37.3514 89.0103 37.2343V34.8533L88.0389 34.8793C87.8827 34.8793 87.7483 34.7579 87.744 34.6018C87.744 34.5454 87.757 34.489 87.7873 34.4413C87.0067 34.5888 86.2521 34.7449 85.5235 34.914C85.4497 34.7709 85.376 34.6278 85.3023 34.4847C86.2521 34.2678 87.1932 34.0683 88.1256 33.8905L89.3486 31.9389L89.4007 31.3577C89.4137 31.2059 89.5438 31.0932 89.6912 31.0975L92.7791 31.1062C92.6924 30.6942 92.4712 30.3819 92.1936 30.1694C92.0288 30.0436 91.8424 29.9482 91.6515 29.8919C91.4607 29.8355 91.2612 29.8095 91.066 29.8181C90.7061 29.8398 90.3765 29.9786 90.1683 30.2475C90.0816 30.3602 89.9168 30.3819 89.804 30.2952L89.791 30.2822C89.4614 30.0263 89.0884 29.9699 88.7458 30.035C88.5073 30.0783 88.2861 30.1824 88.0996 30.3255C87.9174 30.46 87.7743 30.6291 87.6963 30.8026C87.6182 30.9761 87.6008 31.1582 87.6789 31.3187C87.7353 31.4358 87.6963 31.5746 87.5922 31.6483C87.3927 31.7871 87.2582 31.9389 87.1802 32.095L87.1715 32.108C87.0934 32.2642 87.0717 32.429 87.0891 32.5894C87.1064 32.7325 87.0023 32.8626 86.8592 32.88C86.7161 32.8973 86.586 32.7933 86.5687 32.6501C86.5383 32.3943 86.5773 32.1297 86.7074 31.8738L86.7161 31.8565C86.7508 31.7871 86.7942 31.7177 86.8419 31.6526C86.5903 31.5702 86.3214 31.5399 86.0612 31.5616C85.7186 31.5876 85.3847 31.7047 85.1028 31.8912C84.8469 32.0647 84.6344 32.3032 84.4913 32.5981C84.4175 32.3899 84.3438 32.1774 84.2744 31.9606C84.4262 31.7654 84.6084 31.5963 84.8122 31.4575C85.1722 31.2146 85.5885 31.0715 86.0222 31.0368C86.3822 31.0064 86.7551 31.0585 87.1108 31.1886C87.0934 30.9848 87.1325 30.7809 87.2235 30.5858C87.3406 30.3299 87.5401 30.0914 87.7917 29.9049C88.0389 29.7227 88.3381 29.5839 88.6547 29.5232C89.0667 29.4452 89.5178 29.4972 89.9298 29.7444C90.2247 29.4668 90.6237 29.3194 91.0444 29.2977C91.2959 29.2847 91.5561 29.315 91.8077 29.3931C92.0592 29.4712 92.3021 29.5883 92.5146 29.7531C92.9136 30.0567 93.2172 30.512 93.3169 31.1062H95.069C95.2165 31.1062 95.3336 31.219 95.3509 31.3621L95.3856 31.6266C95.5938 31.4575 95.8193 31.3187 96.0579 31.2233C96.5523 31.0195 97.1074 30.9891 97.7406 31.2363C97.8273 31.0064 97.9748 30.8113 98.1613 30.6552C98.3521 30.4947 98.5819 30.3776 98.8292 30.3082C99.072 30.2388 99.3322 30.2128 99.5838 30.2388C99.7616 30.2562 99.9394 30.2995 100.104 30.3689V30.9674C99.9481 30.846 99.7442 30.7766 99.5361 30.7549C99.3539 30.7376 99.1588 30.7549 98.9766 30.8069C98.7988 30.859 98.634 30.9414 98.4995 31.0542C98.3304 31.1973 98.209 31.3924 98.1873 31.6266C98.1743 31.7697 98.0442 31.8738 97.9011 31.8608C97.862 31.8608 97.8273 31.8435 97.797 31.8261C97.1985 31.5225 96.6997 31.5225 96.266 31.7004C96.0362 31.7958 95.8193 31.9432 95.6112 32.121L96.1793 32.7369C97.5064 32.6111 98.8161 32.52 100.109 32.455V33.0058C98.9506 33.0665 97.7926 33.1446 96.6433 33.2443L97.463 34.1377C97.5714 34.2548 97.5628 34.437 97.4457 34.541C97.3893 34.5931 97.3156 34.6191 97.2462 34.6148L96.3528 34.6408V36.9394C97.8056 37.0781 99.1284 37.334 100.109 37.72V38.3402C99.1371 37.9108 97.7276 37.6289 96.1619 37.4945C96.5393 37.6636 96.9209 37.8458 97.3026 38.0453C98.2567 38.5397 99.2108 39.1078 100.113 39.6846V40.3048C99.1457 39.6716 98.1005 39.0428 97.064 38.505C96.1793 38.0453 95.3032 37.6593 94.4835 37.3991C94.3274 37.3991 94.1713 37.3947 94.0108 37.3904C93.4253 37.3861 92.8355 37.3991 92.25 37.4294C93.8157 37.9846 95.5678 38.8997 97.1551 39.9665C98.2567 40.7038 99.2759 41.5192 100.104 42.3388V43.0848C99.2542 42.1697 98.1136 41.2416 96.8645 40.4002C94.8479 39.0471 92.5666 37.9412 90.7885 37.5422C89.8777 37.6376 89.0234 37.7764 88.2731 37.9585C90.1119 38.2925 92.4712 39.3594 94.5529 40.7082C96.0839 41.7013 97.4674 42.8549 98.3955 43.9912V44.0129ZM117.929 31.3794C117.894 31.5095 117.855 31.6396 117.816 31.7697C117.69 31.683 117.56 31.6223 117.426 31.5963C117.118 31.5355 116.754 31.6613 116.298 32.1037L116.29 32.1124C116.207 32.1818 116.081 32.1687 116.016 32.0863C115.639 31.6353 115.305 31.7654 115.097 31.9389C114.98 32.0343 114.897 32.1427 114.863 32.1904C114.815 32.2598 114.789 32.2945 114.689 32.2945C114.633 32.2945 114.577 32.2685 114.538 32.2251C114.295 31.9345 114.026 31.8218 113.77 31.8261C113.64 31.8261 113.514 31.8608 113.393 31.9085C113.271 31.9606 113.154 32.0343 113.054 32.121C112.829 32.3075 112.677 32.5461 112.655 32.7325C114.277 32.8973 115.826 33.1142 117.248 33.3701C117.153 33.6043 117.049 33.8341 116.945 34.0596C115.453 34.9487 114.338 34.9227 113.31 34.901C112.356 34.8793 111.476 34.862 110.404 35.7207C110.482 35.7771 110.569 35.8248 110.66 35.8595C110.773 35.8985 110.894 35.9245 111.02 35.9245C111.146 35.9245 111.267 35.9028 111.38 35.8595C111.493 35.8204 111.601 35.7554 111.692 35.6773C111.762 35.6166 111.87 35.6123 111.948 35.6773C112.044 35.7554 112.152 35.8204 112.265 35.8595C112.378 35.8985 112.499 35.9245 112.625 35.9245C112.751 35.9245 112.872 35.9028 112.985 35.8595C113.098 35.8204 113.206 35.7554 113.297 35.6773C113.371 35.6166 113.475 35.6123 113.553 35.6773C113.648 35.7554 113.757 35.8204 113.87 35.8595C113.982 35.8985 114.104 35.9245 114.23 35.9245C114.355 35.9245 114.477 35.9028 114.59 35.8595C114.702 35.8204 114.811 35.7554 114.902 35.6773C114.976 35.6166 115.08 35.6123 115.158 35.6773C115.253 35.7554 115.362 35.8204 115.474 35.8595C115.587 35.8985 115.708 35.9245 115.834 35.9245C115.869 35.9245 115.899 35.9332 115.925 35.9462C115.847 36.0676 115.769 36.1891 115.691 36.3105C115.57 36.2975 115.453 36.2715 115.34 36.2281C115.231 36.1891 115.127 36.137 115.032 36.072C114.937 36.137 114.832 36.1891 114.724 36.2281C114.568 36.2845 114.399 36.3148 114.23 36.3148C114.06 36.3148 113.896 36.2845 113.735 36.2281C113.627 36.1891 113.523 36.137 113.427 36.072C113.332 36.137 113.228 36.1891 113.119 36.2281C112.963 36.2845 112.794 36.3148 112.625 36.3148C112.456 36.3148 112.291 36.2845 112.131 36.2281C112.022 36.1891 111.918 36.137 111.823 36.072C111.727 36.137 111.623 36.1891 111.515 36.2281C111.359 36.2845 111.189 36.3148 111.02 36.3148C110.851 36.3148 110.686 36.2845 110.526 36.2281C110.374 36.1717 110.231 36.0937 110.105 35.9896C110.049 36.046 109.988 36.1153 109.923 36.1891L109.906 36.2064C109.589 36.5534 109.177 37.0435 108.622 37.4685C108.674 37.4945 108.726 37.5205 108.778 37.5379C108.913 37.5856 109.06 37.6116 109.207 37.6116C109.355 37.6116 109.502 37.5856 109.637 37.5379C109.771 37.4902 109.897 37.4164 110.01 37.321C110.097 37.2473 110.222 37.243 110.313 37.321C110.426 37.4164 110.556 37.4902 110.691 37.5379C110.825 37.5856 110.973 37.6116 111.12 37.6116C111.267 37.6116 111.415 37.5856 111.549 37.5379C111.684 37.4902 111.81 37.4164 111.922 37.321C112.009 37.2473 112.135 37.243 112.226 37.321C112.339 37.4164 112.469 37.4902 112.603 37.5379C112.738 37.5856 112.885 37.6116 113.033 37.6116C113.18 37.6116 113.328 37.5856 113.462 37.5379C113.596 37.4902 113.722 37.4164 113.835 37.321C113.922 37.2473 114.047 37.243 114.139 37.321C114.251 37.4164 114.381 37.4902 114.516 37.5379C114.59 37.5639 114.668 37.5856 114.746 37.5986C114.637 37.733 114.525 37.8675 114.416 38.0019L114.36 37.9802C114.23 37.9325 114.108 37.8718 113.991 37.7937C113.874 37.8718 113.753 37.9325 113.622 37.9802C113.436 38.0496 113.236 38.0843 113.033 38.0843C112.829 38.0843 112.634 38.0496 112.443 37.9802C112.313 37.9325 112.191 37.8718 112.074 37.7937C111.957 37.8718 111.836 37.9325 111.705 37.9802C111.519 38.0496 111.32 38.0843 111.116 38.0843C110.912 38.0843 110.717 38.0496 110.526 37.9802C110.396 37.9325 110.274 37.8718 110.157 37.7937C110.04 37.8718 109.919 37.9325 109.789 37.9802C109.602 38.0496 109.403 38.0843 109.199 38.0843C108.995 38.0843 108.8 38.0496 108.609 37.9802C108.461 37.9282 108.323 37.8545 108.193 37.759C107.343 38.2881 106.211 38.6091 104.706 38.1884C104.246 38.0626 103.53 37.9542 102.849 38.0106C102.52 38.0366 102.199 38.106 101.93 38.2274V37.5032C102.134 37.4381 102.355 37.3991 102.611 37.3774C103.379 37.3123 104.185 37.4338 104.697 37.5769C107.178 38.2708 108.683 36.8179 109.407 36.0199L109.424 36.0026C109.576 35.8378 109.702 35.699 109.823 35.5949C111.146 34.463 112.174 34.489 113.297 34.5107C114.264 34.5324 115.314 34.5541 116.719 33.678C112.56 32.9754 107.286 32.7456 101.926 32.932V32.3856C103.296 32.3422 104.645 32.3335 105.981 32.3466C107.264 32.3596 108.561 32.4116 109.836 32.4897C109.802 32.2772 109.737 32.0863 109.65 31.9259C109.546 31.7351 109.403 31.5876 109.233 31.4922C109.073 31.4054 108.882 31.3664 108.67 31.3881H108.648C108.466 31.4141 108.266 31.4792 108.054 31.6006L108.032 31.6093C107.902 31.67 107.746 31.6093 107.685 31.4792C107.624 31.3491 107.555 31.232 107.481 31.1366C107.217 30.7939 106.861 30.6638 106.514 30.6421C106.15 30.6205 105.79 30.7202 105.543 30.8286C105.447 30.872 105.374 30.9154 105.33 30.9501L105.3 30.9718C105.174 31.0411 105.014 30.9978 104.944 30.872C104.697 30.4383 104.263 30.1824 103.791 30.0783C103.509 30.0176 103.214 30.0046 102.932 30.0436C102.654 30.0783 102.394 30.1607 102.177 30.2865C102.086 30.3386 101.999 30.3993 101.926 30.4687V29.8311C102.199 29.6793 102.52 29.5753 102.862 29.5319C103.201 29.4885 103.561 29.5015 103.903 29.5753C104.428 29.6924 104.918 29.9569 105.252 30.3949L105.335 30.3559C105.638 30.2171 106.085 30.0957 106.549 30.126C107.03 30.1521 107.525 30.3386 107.898 30.82C107.95 30.885 107.997 30.9544 108.041 31.0325C108.232 30.9501 108.414 30.9024 108.587 30.8807H108.613C108.939 30.8416 109.238 30.9024 109.489 31.0411C109.745 31.1843 109.958 31.4011 110.11 31.6787C110.24 31.9172 110.331 32.1991 110.37 32.5114V32.5287C111.007 32.5721 111.636 32.6241 112.256 32.6848C112.287 32.3986 112.495 32.0603 112.79 31.8131C112.92 31.7047 113.067 31.6093 113.228 31.5442C113.393 31.4748 113.566 31.4315 113.748 31.4271C114.056 31.4228 114.373 31.5269 114.663 31.7958C114.711 31.7437 114.767 31.6873 114.837 31.631C115.149 31.3707 115.635 31.1626 116.168 31.6787C116.671 31.245 117.105 31.1279 117.495 31.2059C117.647 31.2363 117.79 31.2927 117.925 31.3751L117.929 31.3794ZM112.885 39.5892C112.712 39.7497 112.534 39.9058 112.352 40.0576C112.23 40.0099 112.118 39.9535 112.009 39.8841C111.888 39.9622 111.762 40.0229 111.627 40.075C111.419 40.1487 111.202 40.1921 110.977 40.1921C110.751 40.1921 110.535 40.153 110.326 40.075C110.192 40.0273 110.066 39.9622 109.945 39.8841C109.823 39.9622 109.698 40.0229 109.563 40.075C109.355 40.1487 109.138 40.1921 108.913 40.1921C108.687 40.1921 108.47 40.153 108.262 40.075C108.128 40.0273 108.002 39.9622 107.88 39.8841C107.759 39.9622 107.633 40.0229 107.499 40.075C107.291 40.1487 107.074 40.1921 106.848 40.1921C106.623 40.1921 106.406 40.153 106.198 40.075C106.063 40.0273 105.937 39.9622 105.816 39.8841C105.695 39.9622 105.569 40.0229 105.434 40.075C105.226 40.1487 105.005 40.1921 104.784 40.1921C104.563 40.1921 104.341 40.153 104.133 40.075C103.999 40.0273 103.873 39.9622 103.752 39.8841C103.63 39.9622 103.504 40.0229 103.37 40.075C103.162 40.1487 102.945 40.1921 102.719 40.1921C102.494 40.1921 102.277 40.153 102.069 40.075C102.021 40.0576 101.969 40.0359 101.921 40.0142V39.329C102.03 39.4114 102.147 39.4721 102.268 39.5198C102.411 39.5719 102.563 39.5979 102.715 39.5979C102.867 39.5979 103.023 39.5719 103.162 39.5198C103.301 39.4678 103.435 39.3941 103.552 39.2943C103.66 39.2032 103.821 39.1989 103.934 39.2943C104.051 39.3941 104.185 39.4721 104.328 39.5198C104.472 39.5719 104.623 39.5979 104.775 39.5979C104.927 39.5979 105.083 39.5719 105.222 39.5198C105.361 39.4678 105.495 39.3941 105.612 39.2943C105.721 39.2032 105.881 39.1989 105.994 39.2943C106.111 39.3941 106.245 39.4721 106.388 39.5198C106.532 39.5719 106.683 39.5979 106.835 39.5979C106.987 39.5979 107.143 39.5719 107.282 39.5198C107.421 39.4678 107.555 39.3941 107.672 39.2943C107.781 39.2032 107.941 39.1989 108.054 39.2943C108.171 39.3941 108.305 39.4721 108.448 39.5198C108.592 39.5719 108.743 39.5979 108.895 39.5979C109.047 39.5979 109.203 39.5719 109.342 39.5198C109.481 39.4678 109.615 39.3941 109.732 39.2943C109.841 39.2032 110.001 39.1989 110.114 39.2943C110.231 39.3941 110.365 39.4721 110.509 39.5198C110.652 39.5719 110.803 39.5979 110.955 39.5979C111.107 39.5979 111.263 39.5719 111.402 39.5198C111.541 39.4678 111.675 39.3941 111.792 39.2943C111.901 39.2032 112.061 39.1989 112.174 39.2943C112.291 39.3941 112.425 39.4721 112.569 39.5198C112.664 39.5545 112.764 39.5762 112.863 39.5892H112.885ZM109.901 41.7967C109.403 42.0916 108.886 42.3605 108.353 42.6034C108.279 42.6121 108.201 42.6164 108.128 42.6164C107.859 42.6164 107.594 42.5687 107.343 42.4776C107.169 42.4169 107.004 42.3302 106.852 42.2304C106.701 42.3345 106.536 42.4169 106.362 42.4776C106.111 42.5687 105.846 42.6164 105.577 42.6164C105.309 42.6164 105.044 42.5687 104.792 42.4776C104.619 42.4169 104.454 42.3302 104.302 42.2304C104.151 42.3345 103.986 42.4169 103.812 42.4776C103.561 42.5687 103.296 42.6164 103.027 42.6164C102.758 42.6164 102.494 42.5687 102.242 42.4776C102.138 42.4386 102.038 42.3952 101.943 42.3432V41.5886L101.952 41.5972C102.104 41.723 102.273 41.8228 102.455 41.8878C102.637 41.9529 102.828 41.9876 103.027 41.9876C103.227 41.9876 103.422 41.9529 103.6 41.8878C103.782 41.8228 103.951 41.723 104.099 41.6016C104.211 41.5018 104.385 41.4975 104.502 41.6016C104.654 41.7273 104.823 41.8271 105.005 41.8921C105.187 41.9572 105.378 41.9919 105.577 41.9919C105.777 41.9919 105.972 41.9572 106.15 41.8921C106.328 41.8271 106.501 41.7273 106.649 41.6059C106.761 41.5062 106.935 41.5018 107.056 41.6059C107.208 41.7317 107.377 41.8314 107.559 41.8965C107.742 41.9615 107.932 41.9962 108.132 41.9962C108.331 41.9962 108.527 41.9615 108.704 41.8965C108.882 41.8314 109.056 41.7317 109.203 41.6102C109.316 41.5105 109.489 41.5062 109.611 41.6102C109.702 41.6883 109.802 41.7534 109.906 41.8097L109.901 41.7967ZM102.763 21.2397C102.828 21.0402 102.897 20.845 102.967 20.6499L109.212 22.5581C109.377 22.6101 109.472 22.7836 109.42 22.9484C109.368 23.1132 109.194 23.2086 109.03 23.1566L102.763 21.2397ZM105.074 16.6035C105.222 16.391 105.378 16.1785 105.538 15.9703L111.888 20.4981C112.1 20.2378 112.326 19.9863 112.564 19.7478C112.803 19.5092 113.054 19.2837 113.315 19.0712L108.787 12.7219C108.995 12.5615 109.203 12.4097 109.42 12.2579L113.943 18.5985C115.279 17.6834 116.853 17.0849 118.554 16.9288V17.8308C116.472 18.0434 114.603 18.9801 113.202 20.381C111.801 21.7818 110.864 23.651 110.652 25.7327H109.75C109.906 24.0327 110.504 22.4584 111.419 21.1226L105.079 16.5992L105.074 16.6035ZM113.462 10.1545C113.657 10.0851 113.857 10.0157 114.056 9.95065L115.956 16.1655C116.008 16.3303 115.912 16.5037 115.748 16.5558C115.583 16.6078 115.409 16.5124 115.357 16.3476L113.462 10.1545ZM136.17 21.2397C136.105 21.0402 136.036 20.845 135.966 20.6455L129.717 22.5581C129.552 22.6101 129.457 22.7836 129.509 22.9484C129.561 23.1132 129.734 23.2086 129.899 23.1566L136.17 21.2397ZM133.863 16.6035C133.715 16.391 133.559 16.1785 133.399 15.9703L127.05 20.4981C126.837 20.2378 126.612 19.9863 126.373 19.7478C126.134 19.5092 125.883 19.2837 125.618 19.0712L130.146 12.7219C129.938 12.5615 129.73 12.4097 129.513 12.2579L124.99 18.5985C123.654 17.6791 122.079 17.0849 120.379 16.9288V17.8308C122.461 18.0434 124.33 18.9801 125.731 20.381C127.132 21.7818 128.069 23.651 128.281 25.7327H129.183C129.027 24.0327 128.429 22.4584 127.514 21.1226L133.854 16.5992L133.863 16.6035ZM125.475 10.1545C125.28 10.0851 125.081 10.0157 124.881 9.95065L122.995 16.1351C122.942 16.2999 123.038 16.4734 123.203 16.5254C123.368 16.5775 123.541 16.4821 123.593 16.3173L125.471 10.1588L125.475 10.1545ZM92.2587 34.7666V36.8743C92.8399 36.844 93.4297 36.8353 94.0152 36.8396C94.6093 36.844 95.2035 36.8656 95.776 36.909V34.6712L95.0647 34.6928V35.8812C95.0647 35.9896 94.978 36.0763 94.8695 36.0763H93.395C93.2866 36.0763 93.1998 35.9896 93.1998 35.8812V34.7449L92.263 34.7709L92.2587 34.7666ZM90.3895 37.0304V34.8186L89.5872 34.8403V37.1389C89.8474 37.0998 90.1163 37.0608 90.3895 37.0304ZM90.7841 34.8056V36.9871C91.1398 36.9524 91.4997 36.922 91.864 36.896V34.7752L90.7841 34.8056ZM94.6657 34.7579H93.5858V35.6817H94.6657V34.7579ZM89.8777 32.1904L88.5636 34.2938L96.6173 34.0727L94.9519 32.2598C94.9129 32.2164 94.8869 32.1644 94.8782 32.0994L94.8262 31.6873L89.9601 31.6743L89.9254 32.043C89.9254 32.0907 89.9081 32.1427 89.8821 32.1861L89.8777 32.1904ZM135.775 32.3466V32.3899C135.775 32.6154 135.68 32.8193 135.52 32.9667C135.416 33.0621 135.285 33.1359 135.142 33.1749V32.3422V32.0733C135.376 32.0343 135.593 31.9389 135.771 31.8044V32.3422H135.775V32.3466ZM134.626 32.082V33.1792C134.492 33.1402 134.366 33.0708 134.266 32.9797C134.106 32.8366 134.006 32.6328 134.006 32.4116V31.8175C134.184 31.9476 134.396 32.043 134.626 32.082ZM130.948 34.1724V33.1923C131.139 33.1576 131.313 33.0838 131.46 32.9754V33.5262C131.46 33.7127 131.382 33.8818 131.252 34.0033C131.17 34.0813 131.066 34.142 130.948 34.1724ZM129.994 32.9624C130.142 33.0795 130.328 33.1576 130.528 33.1923V34.1767C130.411 34.1464 130.302 34.0857 130.216 34.0119C130.081 33.8905 129.999 33.7257 129.999 33.5392V32.9624H129.994ZM135.142 36.5143V35.3304C135.372 35.2913 135.585 35.2003 135.762 35.0702V35.7337C135.767 35.9592 135.671 36.1631 135.511 36.3105C135.411 36.4059 135.285 36.4753 135.147 36.5187L135.142 36.5143ZM133.989 35.0528C134.171 35.1916 134.388 35.2913 134.631 35.3304V36.523C134.487 36.484 134.357 36.4146 134.253 36.3235C134.093 36.1804 133.993 35.9766 133.993 35.7554V35.0571L133.989 35.0528ZM130.948 31.8088C131.144 31.7741 131.321 31.696 131.469 31.5876V32.1427V32.1601C131.469 32.3379 131.386 32.5027 131.256 32.6241C131.17 32.7022 131.066 32.7629 130.944 32.7976V31.8131L130.948 31.8088ZM130.528 32.7976C130.411 32.7672 130.311 32.7109 130.224 32.6328C130.09 32.5114 130.007 32.3466 130.007 32.1644V32.1427V31.5876C130.155 31.7004 130.333 31.7784 130.532 31.8088V32.7933L130.528 32.7976ZM135.142 33.6563C135.376 33.6173 135.593 33.5219 135.771 33.3874V34.0596V34.0813C135.771 34.2982 135.671 34.4933 135.515 34.6408C135.411 34.7362 135.281 34.8099 135.138 34.849V33.6606L135.142 33.6563ZM134.631 34.849C134.492 34.8099 134.366 34.7405 134.266 34.6495C134.106 34.5063 134.006 34.3025 134.006 34.0813V34.0596V33.3918C134.179 33.5262 134.396 33.6216 134.635 33.6606V34.849H134.631ZM132.683 28.9594C132.618 28.9854 132.544 28.9594 132.514 28.89C132.488 28.825 132.514 28.7512 132.583 28.7209C132.636 28.6992 132.64 28.6775 132.644 28.6602C132.662 28.5821 132.675 28.5257 132.792 28.5127C132.848 28.504 132.878 28.5257 132.922 28.5517C132.948 28.5691 132.991 28.5951 133.065 28.5951C133.139 28.5951 133.195 28.6515 133.195 28.7252C133.195 28.7989 133.139 28.8553 133.065 28.8553C132.978 28.8553 132.913 28.838 132.861 28.8163C132.835 28.864 132.783 28.916 132.683 28.9594ZM126.742 29.2934C126.828 29.2587 126.928 29.2977 126.963 29.3844C126.998 29.4712 126.958 29.5709 126.872 29.6056C126.69 29.6837 126.664 29.7748 126.651 29.8398C126.62 29.9699 126.599 30.0653 126.416 30.0827C126.33 30.0914 126.278 30.0567 126.2 30.009C126.121 29.9569 126 29.8788 125.788 29.8788C125.692 29.8788 125.618 29.8008 125.618 29.7097C125.618 29.6186 125.696 29.5406 125.788 29.5406C126.056 29.5406 126.226 29.623 126.338 29.6924C126.373 29.5666 126.451 29.4105 126.742 29.289V29.2934ZM89.5741 22.9831V22.9744V22.9918V22.9831ZM90.0642 21.4652C90.3505 21.1486 91.8207 20.8667 92.2153 19.9256C92.2977 19.7261 92.263 19.5526 92.2891 19.3401C91.7556 19.1926 91.4694 19.2707 90.988 20.0037L89.0624 21.1182C88.1039 20.3896 87.3363 19.3705 86.7291 18.3209C86.5817 18.065 86.3735 18.052 86.3648 18.2819C86.0916 17.7528 85.4627 17.3278 85.6319 18.3253C84.7341 17.8178 86.0222 21.3221 87.835 22.2458C87.6485 22.814 86.4516 23.0222 86.0699 23.265C86.573 24.2018 88.0692 24.5574 88.7415 23.7551L88.4335 23.0915C88.5766 22.9528 89.7389 22.2415 89.9775 22.7099C90.2724 22.7966 91.0097 21.9856 90.0599 21.4652H90.0642ZM92.662 20.1121C92.3238 20.9101 91.4954 21.2917 90.8752 21.5693C90.9533 21.7081 90.9967 21.8512 91.0097 21.99C91.027 22.1765 90.9967 22.3543 90.9316 22.5104C90.8709 22.6579 90.7798 22.788 90.6801 22.892C90.4459 23.1349 90.1076 23.2563 89.843 23.1783C89.7303 23.1436 89.6392 23.0742 89.5785 22.9831V22.9918C89.5915 23.0135 89.6088 23.0482 89.5915 23.0525C89.457 23.0785 89.2922 23.1479 89.1448 23.226L89.058 23.2694L89.1882 23.5513C89.2706 23.7291 89.2359 23.9286 89.1188 24.0674C88.9756 24.2365 88.8108 24.3666 88.6244 24.4664L88.5897 24.4837C88.208 24.6789 87.7656 24.7266 87.332 24.6572C86.9026 24.5878 86.4819 24.397 86.148 24.1151C85.9441 23.9416 85.7663 23.7334 85.6362 23.4949C85.5148 23.265 85.5928 22.9788 85.814 22.8487C85.9788 22.7446 86.1957 22.6665 86.4385 22.5755C86.6467 22.5017 86.8766 22.415 87.0587 22.3282C86.0786 21.5606 85.3109 20.2248 85.003 19.3184C84.9119 19.0495 84.8556 18.811 84.8426 18.6158C84.8209 18.2992 84.9033 18.0477 85.1114 17.9002C85.1245 17.7788 85.1505 17.6747 85.1938 17.5923L85.2155 17.5489C85.324 17.3581 85.4844 17.2584 85.6839 17.2367C85.8357 17.2193 85.9918 17.254 86.1393 17.3364C86.2564 17.4015 86.3778 17.5012 86.4906 17.627C86.5817 17.627 86.6684 17.653 86.7551 17.6921C86.8939 17.7615 87.0327 17.8872 87.1411 18.0694C87.4317 18.5725 87.7613 19.0712 88.1299 19.5223C88.4249 19.8866 88.7458 20.2248 89.0927 20.5197L90.6324 19.6263C90.8969 19.2404 91.1354 19.0148 91.4 18.8891C91.7253 18.7373 92.0288 18.7546 92.4062 18.8587C92.6404 18.9238 92.7878 19.1449 92.7618 19.3791C92.7575 19.4398 92.7531 19.4876 92.7531 19.5353C92.7531 19.7131 92.7444 19.8822 92.6534 20.0991L92.662 20.1121Z" fill="#062D24"/>
</g>
<defs>
<clipPath id="clip0_197_737">
<rect width="53.5871" height="47.1468" fill="white" transform="translate(83.4111 9.12234)"/>
</clipPath>
</defs>
</svg>
