<svg width="70" height="62" viewBox="0 0 70 62" fill="none" xmlns="http://www.w3.org/2000/svg">
<g clip-path="url(#clip0_66_2904)">
<path d="M66.4739 56.5495C67.1253 56.4532 67.5898 56.2436 67.8731 55.9208C68.1563 55.5979 68.2922 55.2184 68.2922 54.7765C68.2922 54.2554 68.1053 53.8475 67.7315 53.5473C67.3576 53.2527 66.8818 53.1055 66.3096 53.1055C65.8168 53.1055 65.3523 53.2188 64.9218 53.4397C64.4856 53.6606 64.1344 54.0118 63.8569 54.4876C63.5793 54.9634 63.4434 55.5696 63.4434 56.3003V56.98L66.4739 56.5495ZM36.2817 57.5408C36.2647 59.7727 34.452 61.574 32.2145 61.574C29.977 61.574 28.1643 59.7727 28.1473 57.5408V51.9669H29.6258V57.5408C29.6428 58.957 30.7927 60.0956 32.2145 60.0956C33.6363 60.0956 34.7862 58.957 34.8032 57.5408V51.9669H36.2817V57.5408ZM61.9762 56.7705C61.9762 55.5979 62.1802 54.6349 62.5823 53.8872C62.9845 53.1394 63.517 52.5956 64.1798 52.2501C64.8425 51.9102 65.5676 51.7403 66.355 51.7403C66.9781 51.7403 67.5502 51.8536 68.0713 52.0858C68.5925 52.3181 69.0116 52.658 69.3232 53.1055C69.6348 53.553 69.7877 54.0798 69.7877 54.6802C69.7877 55.2807 69.6348 55.8131 69.3232 56.238C69.0116 56.6685 68.5698 57.0027 67.9977 57.2349C68.6378 57.3936 69.1136 57.6145 69.4252 57.892C69.7367 58.1753 69.8897 58.5775 69.8897 59.1099V61.5627H68.4112V59.0023C68.4112 58.8154 68.2356 58.6454 67.8844 58.4925C67.5332 58.3395 67.1253 58.2206 66.6495 58.13C66.1737 58.0393 65.7942 57.9997 65.4939 57.9997C65.1201 57.9997 64.4347 58.079 63.4377 58.2376V61.5684H61.9762V56.7591V56.7705ZM54.7992 61.5797V51.9669H56.2777V61.5797H54.7992ZM45.0958 61.5797V53.3264H42.8469V54.6859H41.3855V51.9612H50.2449V54.6859H48.7834V53.3264H46.5799V61.5797H45.1014H45.0958ZM13.7253 61.5797V51.9669H15.2037V54.9691H20.3812V51.9669H21.8596V61.5797H20.3812V56.3569H15.2037V61.5797H13.7253ZM0 51.9669H1.46146V55.4449C2.19219 54.4989 3.09853 53.6889 4.1748 53.0205C5.25674 52.3521 6.2707 51.9782 7.21668 51.9102L7.67551 53.2981C7.00709 53.349 6.40098 53.4793 5.86285 53.6889C5.32471 53.8985 4.72426 54.2554 4.05018 54.7482C4.78091 55.4166 5.53997 56.3456 6.33301 57.5352C7.12605 58.7247 7.89077 60.0729 8.61584 61.5797H6.92779C6.24804 60.2315 5.56262 59.0533 4.87154 58.0506C4.18046 57.048 3.52337 56.2606 2.88894 55.6772C2.42444 56.102 2.06757 56.5155 1.824 56.9177C1.58042 57.3199 1.4558 57.6938 1.4558 58.028V61.5797H0V51.9669Z" fill="white"/>
<path fill-rule="evenodd" clip-rule="evenodd" d="M69.9912 29.7334V45.7925L55.1361 30.9373C56.8084 30.6328 58.5482 30.4127 60.3105 30.2772C60.3445 30.4868 60.4238 30.685 60.5485 30.855C60.4012 30.855 60.2766 30.9739 60.2766 31.1099V31.9029C60.2822 32.2881 60.4522 32.628 60.7297 32.8772C60.945 33.0698 61.2169 33.2001 61.5228 33.2511V34.0668C60.8883 33.2454 60.067 32.7526 59.0134 32.8659H59.0077C58.8547 32.8886 58.7528 33.0132 58.7698 33.1548C58.8264 33.5173 58.9284 33.8062 59.087 34.0611C59.2456 34.316 59.4665 34.5256 59.7611 34.7352C59.88 34.8202 60.0556 34.7975 60.1519 34.6899C60.2426 34.5766 60.2256 34.418 60.101 34.333C59.863 34.1631 59.6874 33.9988 59.5685 33.8062C59.4835 33.6759 59.4212 33.5343 59.3759 33.3644C60.1066 33.3814 60.6901 33.8515 61.1092 34.4237C61.8113 35.3857 61.8163 35.3786 62.347 34.6392C62.3945 34.5731 62.4461 34.5012 62.5027 34.4237C62.9276 33.8459 63.494 33.3984 64.2304 33.3757C64.1851 33.5456 64.1228 33.6929 64.0378 33.8175C63.9132 34.0101 63.7433 34.1744 63.5054 34.3444C63.3864 34.4293 63.3638 34.5879 63.4544 34.7012C63.545 34.8145 63.7206 34.8315 63.8396 34.7465C64.1341 34.5369 64.3551 34.3274 64.5137 34.0725C64.6723 33.8175 64.7742 33.5343 64.8309 33.1661C64.8535 33.0245 64.7459 32.8999 64.593 32.8772H64.5873C63.562 32.7639 62.6727 33.2568 62.0666 34.0668V33.2398C62.3781 33.1831 62.65 33.0472 62.8596 32.8489C63.1315 32.594 63.2958 32.2485 63.2958 31.8689V31.0759C63.2958 30.9513 63.1938 30.8493 63.0635 30.8266C63.2108 30.6227 63.2958 30.3848 63.3071 30.1242C64.0039 30.1072 64.7006 30.1072 65.3917 30.1129V30.3282V30.4188C65.3917 30.7587 65.505 31.0759 65.6976 31.3421C65.522 31.3535 65.3803 31.4837 65.3803 31.648V32.577V32.5997C65.3803 32.9395 65.4936 33.2568 65.6862 33.5173C65.505 33.5173 65.3577 33.6589 65.3577 33.8232V34.7749C65.3633 35.2394 65.5729 35.6529 65.9015 35.9531C66.1564 36.1853 66.4906 36.344 66.8588 36.4063V37.3919C66.6039 37.0634 66.3037 36.7745 65.9808 36.5422C65.6353 36.293 65.2614 36.1287 64.8875 36.0267C64.4853 35.9191 64.0775 35.8965 63.6753 35.9418H63.6696C63.4884 35.9644 63.3581 36.123 63.3864 36.2873C63.4544 36.7291 63.579 37.0747 63.7716 37.3806C63.9642 37.6865 64.2304 37.9414 64.5873 38.1963C64.7346 38.2982 64.9442 38.2756 65.0575 38.1396C65.1708 38.0037 65.1424 37.8111 64.9952 37.7091C64.7063 37.5052 64.4967 37.3069 64.3494 37.069C64.2474 36.9104 64.1738 36.7405 64.1171 36.5309C64.3154 36.5309 64.508 36.5649 64.7063 36.6159C65.0065 36.6952 65.2954 36.8254 65.5729 37.0237C65.8675 37.2333 66.1337 37.5052 66.3603 37.8111C67.2057 38.9676 67.2106 38.9608 67.8488 38.0776C67.9077 37.9961 67.9719 37.9072 68.0427 37.8111C68.2693 37.5052 68.5355 37.2333 68.8301 37.0237C69.1643 36.7858 69.5495 36.6215 69.9517 36.5592V35.9361C69.7987 35.9531 69.6401 35.9814 69.4872 36.0211C69.1133 36.1174 68.7394 36.2873 68.3939 36.5365C68.139 36.7178 67.9068 36.9331 67.6972 37.171C67.6348 37.2446 67.5782 37.3126 67.5216 37.3862V36.3893C67.8954 36.3213 68.224 36.157 68.4789 35.9191C68.8074 35.6132 69.0057 35.194 69.0057 34.7352V33.7836C69 33.6306 68.8811 33.506 68.7225 33.4833C68.9094 33.2228 69.017 32.9169 69.0227 32.5883V32.56V31.6027C69.0227 31.4498 68.8867 31.3195 68.7225 31.3025C68.915 31.0362 69.0227 30.719 69.0227 30.3735V30.2659C69.3342 30.2885 69.6458 30.3168 69.9573 30.3452V29.7309C69.9686 29.7317 69.9799 29.7325 69.9912 29.7334ZM69.9912 29.7334V24.0915H48.2902L54.6996 30.5009C56.4743 30.1399 58.3726 29.8916 60.2935 29.7447V29.3085C60.2935 29.1726 60.4068 29.0593 60.5541 29.0536C60.3955 28.8327 60.2992 28.5721 60.2992 28.2889V27.6092C60.2992 27.4675 60.4238 27.3543 60.5768 27.3543C60.7297 27.3543 60.8543 27.4619 60.8543 27.6035V28.2832C60.8543 28.5268 60.962 28.7421 61.1376 28.9007C61.2509 29.0026 61.3811 29.0763 61.5341 29.1159L61.5228 26.9974C61.5228 26.8558 61.6474 26.7425 61.8003 26.7425C61.9533 26.7368 62.0779 26.8501 62.0779 26.9917L62.0892 29.1103C62.2478 29.065 62.3838 28.9857 62.4971 28.8837C62.6727 28.7251 62.7746 28.5042 62.7746 28.2606V27.5808C62.7746 27.4392 62.8993 27.3259 63.0522 27.3259C63.2051 27.3259 63.3298 27.4336 63.3298 27.5752V28.2549C63.3298 28.5325 63.2391 28.7987 63.0805 29.0196C63.2165 29.0366 63.3241 29.1386 63.3241 29.2689V29.5804C64.0208 29.5578 64.7176 29.5578 65.4087 29.5578C65.4087 29.5521 65.4101 29.545 65.4115 29.538C65.4129 29.5309 65.4143 29.5238 65.4143 29.5181C65.4313 29.3822 65.5503 29.2689 65.6976 29.2519C65.5163 28.997 65.4087 28.6911 65.4087 28.3626V27.4959C65.4087 27.3316 65.5616 27.19 65.7429 27.19C65.9298 27.1843 66.0771 27.3203 66.0771 27.4902V28.3569C66.0771 28.6458 66.2074 28.912 66.417 29.0989C66.5472 29.2122 66.7059 29.3029 66.8815 29.3539V28.8214C66.8815 28.7931 66.8928 28.7477 66.8928 28.7477L66.8815 26.7595C66.8815 26.5895 67.0287 26.4536 67.2157 26.4536C67.4026 26.4536 67.5499 26.5895 67.5499 26.7595L67.5612 29.3595C67.7481 29.3085 67.9181 29.2122 68.054 29.0876C68.2636 28.895 68.3882 28.6288 68.3882 28.3342V27.4675C68.3882 27.3033 68.5412 27.1617 68.7225 27.1617C68.9037 27.156 69.0567 27.2919 69.0567 27.4619V28.3286C69.0567 28.6571 68.9547 28.963 68.7791 29.2236C68.9377 29.2462 69.0567 29.3708 69.0567 29.5238V29.6711C69.2052 29.6817 69.3524 29.691 69.4984 29.7003C69.6528 29.7101 69.8057 29.7199 69.9573 29.7309V29.7164L69.9912 29.7334ZM0.101562 21.701V0L21.8026 21.701H0.101562ZM6.03866 38.3266C9.98246 42.6593 15.5636 45.4752 21.8026 45.7982V45.7925V44.3592C20.6923 43.164 19.2026 41.9519 17.5712 40.853C14.9372 39.0856 11.9576 37.6411 9.63516 37.12C8.4456 37.2446 7.32967 37.4259 6.3497 37.6638C8.75148 38.1 11.833 39.4935 14.552 41.2551C16.5516 42.5523 18.3586 44.0591 19.5708 45.5432V45.5716C19.214 45.5206 18.8628 45.4583 18.5116 45.3846C17.3786 44.1611 15.8492 42.9375 14.1838 41.8556C11.4594 40.0884 8.37241 38.7063 6.03866 38.3266ZM21.8026 43.3849C20.7207 42.3144 19.3895 41.2495 17.9508 40.2865C15.8775 38.893 13.589 37.6978 11.5441 36.9727C12.3088 36.9331 13.0792 36.9161 13.8439 36.9217L13.8601 36.9222C14.064 36.9277 14.2627 36.9331 14.4614 36.9331C15.532 37.2729 16.6762 37.7771 17.8318 38.3775C19.1816 39.0778 20.5426 39.8964 21.8026 40.7209V43.3849ZM21.8026 39.911C20.6277 39.1601 19.3855 38.4208 18.1434 37.7771C17.6449 37.5165 17.1464 37.2786 16.6536 37.0577C18.6954 37.233 20.5339 37.6004 21.8026 38.1597V39.911ZM2.76253 33.6863C3.43848 34.9515 4.22962 36.1459 5.12193 37.2555C5.77301 37.0461 6.51456 36.8706 7.31268 36.7178V33.608L6.04381 33.6419C5.83989 33.6419 5.66429 33.4833 5.65862 33.2794C5.65862 33.2058 5.67562 33.1321 5.71527 33.0698C4.69713 33.2621 3.71289 33.4657 2.76253 33.6863ZM2.4729 33.1257C3.71227 32.8428 4.94034 32.5825 6.1571 32.3504L7.75452 29.8014L7.82249 29.0423C7.83949 28.844 8.00942 28.6968 8.20202 28.7024L12.2352 28.7138C12.1219 28.1756 11.833 27.7678 11.4705 27.4902C11.2552 27.3259 11.0117 27.2013 10.7624 27.1277C10.5132 27.054 10.2526 27.02 9.99769 27.0314C9.52753 27.0597 9.09702 27.241 8.82512 27.5922C8.71183 27.7394 8.49658 27.7678 8.3493 27.6545L8.33231 27.6375C7.9018 27.3033 7.41464 27.2296 6.96714 27.3146C6.65559 27.3713 6.36669 27.5072 6.12312 27.6941C5.88521 27.8697 5.69827 28.0907 5.59631 28.3172C5.49435 28.5438 5.47169 28.7817 5.57365 28.9913C5.64729 29.1443 5.59631 29.3255 5.46036 29.4218C5.19979 29.6031 5.02419 29.8014 4.92222 30.0053L4.9109 30.0223C4.80893 30.2262 4.78061 30.4415 4.80327 30.651C4.82593 30.838 4.68998 31.0079 4.50305 31.0306C4.31611 31.0532 4.14618 30.9173 4.12352 30.7303C4.08387 30.3961 4.13485 30.0506 4.30479 29.7164L4.31611 29.6937C4.36143 29.6031 4.41808 29.5125 4.48039 29.4275C4.15184 29.3199 3.80064 29.2802 3.46076 29.3085C3.01326 29.3425 2.57709 29.4955 2.20889 29.739C1.87768 29.9636 1.60211 30.2716 1.41525 30.652C1.72026 31.5009 2.07393 32.3266 2.4729 33.1257ZM1.13437 29.8202C0.558217 27.9986 0.203413 26.0785 0.101562 24.0915H21.8026V27.7507C21.5874 27.6601 21.3552 27.6035 21.1229 27.5808C20.7944 27.5469 20.4545 27.5808 20.1373 27.6715C19.8144 27.7621 19.5142 27.9151 19.265 28.1246C19.0214 28.3286 18.8288 28.5835 18.7155 28.8837C17.8885 28.5608 17.1634 28.6005 16.5176 28.8667C16.2061 28.9913 15.9115 29.1726 15.6396 29.3935L15.5943 29.048C15.5716 28.861 15.4187 28.7138 15.2261 28.7138H12.9376C12.8073 27.9377 12.4108 27.3429 11.8897 26.9464C11.6121 26.7312 11.2949 26.5782 10.9663 26.4762C10.6378 26.3743 10.2979 26.3346 9.96937 26.3516C9.41991 26.3799 8.89876 26.5725 8.51357 26.9351C7.97544 26.6122 7.38632 26.5442 6.84818 26.6462C6.43467 26.7255 6.04381 26.9068 5.72093 27.1447C5.39239 27.3882 5.13181 27.6998 4.97887 28.034C4.85991 28.2889 4.80893 28.5551 4.83159 28.8214C4.3671 28.6514 3.87994 28.5835 3.40978 28.6231C2.84332 28.6684 2.29952 28.8554 1.82936 29.1726C1.56644 29.3516 1.33114 29.5693 1.13437 29.8202ZM21.8026 28.5324C21.5987 28.3739 21.3325 28.2832 21.0606 28.2549C20.8227 28.2323 20.5678 28.2549 20.3299 28.3229C20.0976 28.3909 19.8824 28.4985 19.7068 28.6458C19.4859 28.8327 19.3273 29.0876 19.2989 29.3935C19.2819 29.5804 19.112 29.7164 18.9251 29.6994C18.8741 29.6994 18.8288 29.6767 18.7891 29.6541C18.0074 29.2576 17.356 29.2576 16.7895 29.4898C16.4893 29.6144 16.2061 29.807 15.9342 30.0393L16.6762 30.8436C18.4076 30.6796 20.1164 30.5607 21.8026 30.4757V28.5324ZM21.8026 31.1951C20.2921 31.2744 18.7816 31.3763 17.2824 31.5064L18.353 32.6733C18.4946 32.8262 18.4832 33.0642 18.3303 33.2001C18.2567 33.2681 18.1604 33.3021 18.0697 33.2964L16.9028 33.3304V36.3326C18.7976 36.5136 20.523 36.8471 21.8026 37.35V31.1951ZM45.0819 29.0792C45.5284 27.4804 45.8059 25.811 45.8941 24.0915H24.193V27.0422C24.5475 26.8473 24.9625 26.7136 25.4054 26.6575C25.8472 26.6009 26.3174 26.6179 26.7649 26.7142C27.4503 26.8671 28.0904 27.2126 28.5266 27.7848L28.6342 27.7338C29.0307 27.5525 29.6142 27.3939 30.2203 27.4336C30.849 27.4675 31.4948 27.7111 31.9819 28.3399C32.0499 28.4249 32.1122 28.5155 32.1689 28.6175C32.4181 28.5098 32.656 28.4475 32.8826 28.4192H32.9166C33.3414 28.3682 33.7323 28.4475 34.0609 28.6288C34.3951 28.8157 34.6726 29.0989 34.8709 29.4615C35.0408 29.773 35.1598 30.1412 35.2108 30.5491V30.5717C36.0435 30.6284 36.8648 30.6964 37.6749 30.7757C37.7145 30.4018 37.9864 29.96 38.3716 29.6371C38.5415 29.4955 38.7341 29.3708 38.9437 29.2859C39.159 29.1952 39.3856 29.1386 39.6235 29.1329C40.0257 29.1273 40.4392 29.2632 40.8187 29.6144C40.881 29.5464 40.9547 29.4728 41.0453 29.3992C41.4531 29.0593 42.0876 28.7874 42.7843 29.4615C43.4414 28.895 44.0079 28.7421 44.5177 28.844C44.7159 28.8837 44.9029 28.9573 45.0785 29.065L45.0841 29.0706C45.0834 29.0735 45.0826 29.0763 45.0819 29.0792ZM44.9358 29.5797C44.7719 29.4668 44.6023 29.3878 44.427 29.3539C44.0249 29.2745 43.549 29.4388 42.9543 30.0166L42.9429 30.0279C42.8353 30.1186 42.671 30.1016 42.5861 29.994C42.0932 29.4048 41.6571 29.5748 41.3852 29.8014C41.2322 29.926 41.1246 30.0676 41.0793 30.1299C41.017 30.2205 40.983 30.2659 40.8527 30.2659C40.7791 30.2659 40.7054 30.2319 40.6544 30.1752C40.3372 29.7957 39.986 29.6484 39.6518 29.6541C39.4819 29.6541 39.3176 29.6994 39.159 29.7617C39.0004 29.8297 38.8474 29.926 38.7171 30.0393C38.4226 30.2828 38.2243 30.5944 38.196 30.838C40.3116 31.0529 42.3312 31.3357 44.1871 31.6693C44.4691 30.9887 44.7193 30.2916 44.9358 29.5797ZM43.7871 32.578C41.8494 33.7293 40.3992 33.6987 39.0623 33.6705L39.0514 33.6703C37.8051 33.6419 36.6552 33.6193 35.2561 34.7409C35.358 34.8145 35.4713 34.8768 35.5903 34.9221C35.7376 34.9731 35.8962 35.0071 36.0604 35.0071C36.2247 35.0071 36.3833 34.9788 36.5306 34.9221C36.6779 34.8712 36.8195 34.7862 36.9385 34.6842C37.0291 34.6049 37.1707 34.5993 37.2727 34.6842C37.3973 34.7862 37.5389 34.8712 37.6862 34.9221C37.8335 34.9731 37.9921 35.0071 38.1563 35.0071C38.3206 35.0071 38.4792 34.9788 38.6265 34.9221C38.7738 34.8712 38.9154 34.7862 39.0344 34.6842C39.1307 34.6049 39.2666 34.5993 39.3686 34.6842C39.4932 34.7862 39.6348 34.8712 39.7821 34.9221C39.9294 34.9731 40.088 35.0071 40.2522 35.0071C40.4165 35.0071 40.5751 34.9788 40.7224 34.9221C40.8697 34.8712 41.0113 34.7862 41.1303 34.6842C41.2266 34.6049 41.3625 34.5993 41.4645 34.6842C41.5891 34.7862 41.7307 34.8712 41.878 34.9221C42.0253 34.9731 42.1839 35.0071 42.3481 35.0071C42.3884 35.0071 42.4241 35.016 42.4554 35.0299C42.947 34.2433 43.3921 33.4247 43.7871 32.578ZM42.1473 35.5097C41.9936 35.4922 41.8453 35.4586 41.7024 35.4036C41.5608 35.3526 41.4248 35.2847 41.3002 35.1997C41.1756 35.2847 41.0396 35.3526 40.898 35.4036C40.6941 35.4773 40.4732 35.5169 40.2522 35.5169C40.0313 35.5169 39.8161 35.4773 39.6065 35.4036C39.4649 35.3526 39.3289 35.2847 39.2043 35.1997C39.0797 35.2847 38.9437 35.3526 38.8021 35.4036C38.5982 35.4773 38.3773 35.5169 38.1563 35.5169C37.9354 35.5169 37.7202 35.4773 37.5106 35.4036C37.369 35.3526 37.233 35.2847 37.1084 35.1997C36.9838 35.2847 36.8478 35.3526 36.7062 35.4036C36.5023 35.4773 36.2814 35.5169 36.0604 35.5169C35.8395 35.5169 35.6243 35.4773 35.4147 35.4036C35.2164 35.33 35.0295 35.228 34.8652 35.0921C34.7965 35.1608 34.7229 35.2442 34.6444 35.3333L34.6273 35.3526L34.6047 35.3753C34.5461 35.4395 34.4851 35.5074 34.4214 35.5782C34.035 36.008 33.5504 36.5472 32.9279 37.0237L32.928 37.0237C32.9959 37.0577 33.0639 37.0917 33.1319 37.1143C33.3075 37.1766 33.5001 37.2106 33.6927 37.2106C33.8853 37.2106 34.0778 37.1766 34.2534 37.1143C34.4291 37.052 34.5933 36.9557 34.7406 36.8311C34.8539 36.7348 35.0182 36.7291 35.1371 36.8311C35.2844 36.9557 35.4543 37.052 35.6299 37.1143C35.8055 37.1766 35.9981 37.2106 36.1907 37.2106C36.3833 37.2106 36.5759 37.1766 36.7515 37.1143C36.9271 37.052 37.0914 36.9557 37.2387 36.8311C37.352 36.7348 37.5163 36.7291 37.6352 36.8311C37.7825 36.9557 37.9524 37.052 38.128 37.1143C38.3036 37.1766 38.4962 37.2106 38.6888 37.2106C38.8814 37.2106 39.074 37.1766 39.2496 37.1143C39.4252 37.052 39.5895 36.9557 39.7368 36.8311C39.8501 36.7348 40.0143 36.7291 40.1333 36.8311C40.2806 36.9557 40.4505 37.052 40.6261 37.1143C40.7215 37.148 40.8224 37.1761 40.9233 37.1931C41.3559 36.6515 41.7644 36.0898 42.1473 35.5097ZM40.4909 37.7185C39.8694 38.4513 39.2027 39.1444 38.4951 39.7937H38.4679C38.3376 39.7767 38.2073 39.7484 38.0827 39.703C37.8958 39.6407 37.7202 39.5388 37.5672 39.4085C37.42 39.2839 37.2104 39.2895 37.0687 39.4085C36.9158 39.5388 36.7402 39.6351 36.5589 39.703C36.3777 39.771 36.1737 39.805 35.9755 39.805C35.7772 39.805 35.579 39.771 35.392 39.703C35.2051 39.6407 35.0295 39.5388 34.8766 39.4085C34.7293 39.2839 34.5197 39.2895 34.3781 39.4085C34.2251 39.5388 34.0495 39.6351 33.8683 39.703C33.687 39.771 33.4831 39.805 33.2848 39.805C33.0865 39.805 32.8883 39.771 32.7014 39.703C32.5144 39.6407 32.3388 39.5388 32.1859 39.4085C32.0386 39.2839 31.829 39.2895 31.6874 39.4085C31.5344 39.5388 31.3588 39.6351 31.1776 39.703C30.9963 39.771 30.7924 39.805 30.5941 39.805C30.3959 39.805 30.1976 39.771 30.0107 39.703C29.8237 39.6407 29.6481 39.5388 29.4952 39.4085C29.3479 39.2839 29.1383 39.2895 28.9967 39.4085C28.8438 39.5388 28.6682 39.6351 28.4869 39.703C28.3056 39.771 28.1017 39.805 27.9034 39.805C27.7052 39.805 27.5069 39.771 27.32 39.703C27.1331 39.6407 26.9575 39.5388 26.8045 39.4085C26.6572 39.2839 26.4476 39.2895 26.306 39.4085C26.1531 39.5388 25.9775 39.6351 25.7962 39.703C25.615 39.771 25.411 39.805 25.2128 39.805C25.0145 39.805 24.8162 39.771 24.6293 39.703C24.477 39.6432 24.3299 39.5677 24.193 39.4665V38.0125C24.5431 37.8554 24.9601 37.7656 25.3884 37.7318C26.2777 37.6581 27.2124 37.7997 27.8128 37.964C29.7784 38.5135 31.2569 38.0943 32.3671 37.4032C32.5371 37.5278 32.7183 37.6241 32.9109 37.6921C33.1602 37.7828 33.4151 37.8281 33.6813 37.8281C33.9476 37.8281 34.2081 37.7828 34.4517 37.6921C34.6216 37.6298 34.7803 37.5505 34.9332 37.4485C35.0861 37.5505 35.2448 37.6298 35.4147 37.6921C35.6639 37.7828 35.9188 37.8281 36.1851 37.8281C36.4513 37.8281 36.7119 37.7828 36.9555 37.6921C37.1254 37.6298 37.284 37.5505 37.4369 37.4485C37.5899 37.5505 37.7485 37.6298 37.9184 37.6921C38.1677 37.7828 38.4226 37.8281 38.6888 37.8281C38.9551 37.8281 39.2156 37.7828 39.4592 37.6921C39.6291 37.6298 39.7878 37.5505 39.9407 37.4485C40.0936 37.5505 40.2522 37.6298 40.4222 37.6921L40.4909 37.7185ZM24.193 40.3564V45.7925C27.3768 45.6292 30.3893 44.8164 33.1003 43.4837C32.9272 43.5682 32.7527 43.6504 32.5767 43.7306C32.4804 43.7419 32.3785 43.7476 32.2822 43.7476C31.931 43.7476 31.5854 43.6853 31.2569 43.5663C31.0303 43.487 30.815 43.3737 30.6168 43.2434C30.4185 43.3794 30.2033 43.487 29.9767 43.5663C29.6481 43.6853 29.3026 43.7476 28.9514 43.7476C28.6002 43.7476 28.2547 43.6853 27.9261 43.5663C27.6995 43.487 27.4843 43.3737 27.286 43.2434C27.0877 43.3794 26.8725 43.487 26.6459 43.5663C26.3174 43.6853 25.9718 43.7476 25.6206 43.7476C25.2694 43.7476 24.9239 43.6853 24.5953 43.5663C24.4594 43.5153 24.3291 43.4587 24.2045 43.3907V42.4051L24.2158 42.4164C24.4141 42.5807 24.635 42.7109 24.8729 42.7959C25.1108 42.8809 25.36 42.9262 25.6206 42.9262C25.8812 42.9262 26.1361 42.8809 26.3683 42.7959C26.6063 42.7109 26.8272 42.5807 27.0198 42.4221C27.1671 42.2918 27.3936 42.2861 27.5466 42.4221C27.7448 42.5863 27.9658 42.7166 28.2037 42.8016C28.4416 42.8865 28.6908 42.9319 28.9514 42.9319C29.212 42.9319 29.4669 42.8865 29.6991 42.8016C29.9314 42.7166 30.158 42.5863 30.3505 42.4277C30.4978 42.2974 30.7244 42.2918 30.883 42.4277C31.0813 42.592 31.3022 42.7223 31.5401 42.8072C31.778 42.8922 32.0273 42.9375 32.2878 42.9375C32.5484 42.9375 32.8033 42.8922 33.0356 42.8072C33.2678 42.7223 33.4944 42.592 33.687 42.4334C33.8343 42.3031 34.0609 42.2974 34.2195 42.4334C34.333 42.5307 34.4569 42.6126 34.5862 42.6839C35.7629 41.9933 36.8726 41.2008 37.9031 40.3185C37.8687 40.3476 37.8341 40.3766 37.7995 40.4055C37.6409 40.3431 37.4936 40.2695 37.352 40.1789C37.1934 40.2808 37.0291 40.3601 36.8535 40.4281C36.5816 40.5244 36.2984 40.5811 36.0038 40.5811C35.7092 40.5811 35.426 40.5301 35.1541 40.4281C34.9785 40.3658 34.8142 40.2808 34.6556 40.1789C34.497 40.2808 34.3328 40.3601 34.1571 40.4281C33.8852 40.5244 33.602 40.5811 33.3075 40.5811C33.0129 40.5811 32.7297 40.5301 32.4578 40.4281C32.2822 40.3658 32.1179 40.2808 31.9593 40.1789C31.8007 40.2808 31.6364 40.3601 31.4608 40.4281C31.1889 40.5244 30.9057 40.5811 30.6111 40.5811C30.3166 40.5811 30.0333 40.5301 29.7614 40.4281C29.5858 40.3658 29.4216 40.2808 29.2629 40.1789C29.1043 40.2808 28.9401 40.3601 28.7645 40.4281C28.4926 40.5244 28.2037 40.5811 27.9148 40.5811C27.6259 40.5811 27.337 40.5301 27.0651 40.4281C26.8895 40.3658 26.7252 40.2808 26.5666 40.1789C26.408 40.2808 26.2437 40.3601 26.0681 40.4281C25.7962 40.5244 25.513 40.5811 25.2184 40.5811C24.9239 40.5811 24.6406 40.5301 24.3687 40.4281C24.312 40.4075 24.2506 40.3822 24.193 40.3564ZM24.193 27.8706V30.3845C25.9792 30.3281 27.7372 30.3169 29.4782 30.3338C31.1549 30.3508 32.8486 30.4188 34.514 30.5208C34.4687 30.2432 34.3837 29.994 34.2704 29.7844C34.1345 29.5351 33.9476 29.3425 33.7266 29.2179C33.5171 29.1046 33.2678 29.0536 32.9902 29.082H32.9619C32.724 29.1159 32.4634 29.2009 32.1859 29.3595L32.1576 29.3708C31.9876 29.4502 31.7837 29.3708 31.7044 29.2009C31.6251 29.031 31.5344 28.878 31.4381 28.7534C31.0926 28.3059 30.6281 28.136 30.1749 28.1076C29.6991 28.0793 29.229 28.2096 28.9061 28.3512C28.7815 28.4079 28.6852 28.4645 28.6285 28.5098L28.5889 28.5382C28.4246 28.6288 28.215 28.5721 28.1244 28.4079C27.8015 27.8414 27.235 27.5072 26.6176 27.3712C26.2494 27.2919 25.8642 27.275 25.496 27.3259C25.1335 27.3713 24.7936 27.4789 24.5104 27.6431C24.396 27.7085 24.2869 27.7843 24.193 27.8706ZM24.193 31.0982V37.0672C24.4577 36.9833 24.7449 36.9329 25.0768 36.9047C26.0795 36.8198 27.1331 36.9784 27.8015 37.1653C31.0416 38.0717 33.0072 36.174 33.9532 35.1317L33.9759 35.1091C33.9897 35.094 34.0034 35.0792 34.0169 35.0645C34.1971 34.8687 34.3495 34.7031 34.497 34.5766C36.2156 33.106 37.553 33.1318 39.0111 33.16L39.0344 33.1605C40.2976 33.1888 41.6684 33.2171 43.5037 32.0729C38.0743 31.1557 31.1906 30.8553 24.193 31.0982ZM25.2751 15.8268C24.6707 17.6918 24.2986 19.6612 24.193 21.701H45.8941V11.375C43.1774 11.6538 40.7381 12.8769 38.9097 14.7052C37.0801 16.5349 35.8565 18.9763 35.579 21.6953H34.4007C34.6047 19.4748 35.3864 17.4186 36.5816 15.6739L28.3 9.76572L28.2943 9.77138C28.4869 9.49382 28.6908 9.21625 28.9004 8.94435L37.1934 14.8582C37.4709 14.5183 37.7655 14.1898 38.077 13.8782C38.3886 13.5667 38.7171 13.2721 39.057 12.9945L33.1432 4.70158C33.4151 4.49199 33.687 4.29373 33.9702 4.09547L39.8784 12.3771C41.6216 11.1829 43.6758 10.4015 45.8941 10.1968V0C36.2288 0.495657 28.146 6.98197 25.2783 15.817C25.3623 15.5599 25.4518 15.3082 25.5413 15.0566L25.5413 15.0564L33.6983 17.5489C33.9136 17.6168 34.0382 17.8434 33.9702 18.0587C33.9022 18.2739 33.6757 18.3985 33.4604 18.3306L25.2751 15.8268ZM65.8949 9.7709C68.2825 13.1841 69.7644 17.2772 69.9912 21.701H48.2902V11.375C51.007 11.6537 53.4463 12.8768 55.2747 14.7052C57.1044 16.5349 58.3279 18.9763 58.6055 21.6953H59.7837C59.5798 19.4748 58.7981 17.4186 57.6029 15.6739L65.8845 9.76572L65.8949 9.7709ZM65.2891 8.94478C61.3243 3.78247 55.2121 0.35497 48.2902 0V10.1967C50.5086 10.4015 52.5628 11.1772 54.3061 12.3771L60.2142 4.09547C60.4975 4.29373 60.7694 4.49199 61.0413 4.70158L55.1274 12.9945C55.473 13.2721 55.8015 13.5667 56.1131 13.8782C56.4246 14.1898 56.7192 14.5183 56.9968 14.8582L65.2891 8.94478ZM40.0257 1.08191C39.7651 1.16688 39.5045 1.25751 39.2496 1.34814L41.725 9.43717C41.793 9.65243 42.0196 9.77705 42.2348 9.70907C42.4501 9.6411 42.5747 9.41451 42.5067 9.19926L40.0257 1.08191ZM68.699 15.2109C68.7708 15.4164 68.8419 15.6198 68.9094 15.8268L60.7184 18.3306C60.5031 18.3985 60.2766 18.2739 60.2086 18.0587C60.1406 17.8434 60.2652 17.6168 60.4805 17.5489L68.6431 15.0508C68.6618 15.1043 68.6804 15.1577 68.699 15.2109ZM54.1645 1.08191C54.425 1.16688 54.6856 1.25751 54.9405 1.34814L54.9349 1.35381L52.4821 9.39752C52.4141 9.61277 52.1875 9.7374 51.9723 9.66942C51.757 9.60145 51.6324 9.37486 51.7004 9.15961L54.1645 1.08191ZM11.5555 36.2477V33.4947L11.5611 33.5003L12.7847 33.4663V34.9505C12.7847 35.0921 12.898 35.2054 13.0396 35.2054H14.9655C15.1072 35.2054 15.2204 35.0921 15.2204 34.9505V33.3984L16.1494 33.37V36.293C15.4017 36.2363 14.6257 36.208 13.8496 36.2023C13.0849 36.1967 12.3145 36.208 11.5555 36.2477ZM9.11402 33.5626V36.4516C8.75715 36.4912 8.40594 36.5422 8.06607 36.5932V33.591L9.11402 33.5626ZM9.6295 36.3949V33.5456L11.04 33.506V36.276C10.5642 36.31 10.094 36.3496 9.6295 36.3949ZM13.2888 33.4833H14.6993V34.6899H13.2888V33.4833ZM6.72923 32.8772L8.4456 30.1299L8.45126 30.1242C8.48525 30.0676 8.50791 29.9996 8.50791 29.9373L8.55322 29.4558L14.9089 29.4728L14.9769 30.0109C14.9882 30.0959 15.0222 30.1639 15.0732 30.2205L17.2484 32.5883L6.72923 32.8772ZM68.3939 30.3905V30.3338V30.3282H68.3882V29.6258C68.156 29.8014 67.8728 29.926 67.5669 29.977V30.3282V31.4158C67.7538 31.3648 67.9237 31.2685 68.0597 31.1439C68.2693 30.9513 68.3939 30.685 68.3939 30.3905ZM66.8928 31.4214V29.9883C66.5926 29.9373 66.315 29.8127 66.0828 29.6427V30.4188C66.0828 30.7077 66.213 30.9739 66.4226 31.1609C66.5529 31.2798 66.7172 31.3704 66.8928 31.4214ZM62.0892 31.4384V32.7186C62.2422 32.679 62.3781 32.5997 62.4857 32.4977C62.6557 32.3391 62.7576 32.1182 62.7576 31.8746V31.1552C62.565 31.2968 62.3385 31.3931 62.0892 31.4384ZM60.8487 31.1427C61.0404 31.2931 61.2817 31.3935 61.5398 31.4384V32.7243C61.3868 32.6846 61.2452 32.6053 61.1319 32.509C60.9563 32.3504 60.8487 32.1352 60.8487 31.8916V31.1427ZM67.5669 34.2311V35.7775L67.5725 35.7832C67.7538 35.7265 67.9181 35.6359 68.0484 35.5113C68.2579 35.3187 68.3826 35.0524 68.3769 34.7579V33.8912C68.1447 34.0611 67.8671 34.1801 67.5669 34.2311ZM66.8985 34.2311C66.5812 34.1801 66.298 34.0498 66.0601 33.8685L66.0658 33.8742V34.7862C66.0658 35.0751 66.196 35.3413 66.4056 35.5283C66.5416 35.6472 66.7115 35.7378 66.8985 35.7888V34.2311ZM62.769 29.3425C62.5764 29.4841 62.3441 29.5861 62.0892 29.6314L62.0836 29.6371V30.9229C62.2422 30.8776 62.3781 30.7983 62.4914 30.6964C62.6613 30.5378 62.769 30.3225 62.769 30.0903V30.0676V29.3425ZM61.1432 30.7077C61.2565 30.8097 61.3868 30.8833 61.5398 30.9229L61.5454 30.9173V29.6314C61.2849 29.5918 61.0526 29.4898 60.86 29.3425V30.0676V30.0959C60.86 30.3338 60.9676 30.5491 61.1432 30.7077ZM68.3882 31.6933C68.156 31.8689 67.8728 31.9936 67.5669 32.0445L67.5612 32.0502V33.6023C67.7481 33.5513 67.9181 33.455 68.054 33.3304C68.2579 33.1378 68.3882 32.8829 68.3882 32.5997V32.5713V31.6933ZM66.4226 33.3417C66.5529 33.4607 66.7172 33.5513 66.8985 33.6023H66.9041V32.0502C66.5926 31.9992 66.3093 31.8746 66.0828 31.699V32.5713V32.5997C66.0828 32.8886 66.213 33.1548 66.4226 33.3417ZM64.1341 25.8192C64.1738 25.9098 64.2701 25.9438 64.3551 25.9098C64.4853 25.8531 64.5533 25.7852 64.5873 25.7229C64.6553 25.7512 64.7402 25.7738 64.8535 25.7738C64.9498 25.7738 65.0235 25.7002 65.0235 25.6039C65.0235 25.5076 64.9498 25.434 64.8535 25.434C64.7572 25.434 64.7006 25.4 64.6666 25.3773C64.6626 25.3749 64.6586 25.3725 64.6547 25.3701C64.6041 25.3395 64.5651 25.3158 64.4967 25.3263C64.3437 25.3433 64.3267 25.417 64.3041 25.5189L64.3037 25.5204C64.2981 25.5428 64.2912 25.5705 64.2248 25.5982C64.1341 25.6379 64.1001 25.7342 64.1341 25.8192ZM56.8835 26.4649C56.8382 26.3516 56.7079 26.3006 56.5946 26.346V26.3403C56.215 26.4989 56.1131 26.7028 56.0678 26.8671C55.9205 26.7765 55.6996 26.6688 55.3484 26.6688C55.2294 26.6688 55.1274 26.7708 55.1274 26.8898C55.1274 27.0087 55.2237 27.1107 55.3484 27.1107C55.6259 27.1107 55.7845 27.2126 55.8865 27.2806L55.8996 27.2886C55.9945 27.3468 56.0614 27.3878 56.1697 27.3769C56.4069 27.3543 56.4358 27.2304 56.4752 27.0614L56.4756 27.0597C56.4926 26.9747 56.5266 26.8558 56.7645 26.7538C56.8778 26.7085 56.9288 26.5782 56.8835 26.4649ZM9.46356 15.6919C9.10714 15.8521 8.81314 15.9843 8.68917 16.1214H8.68351C9.92405 16.8011 8.96107 17.8604 8.57588 17.7471C8.26433 17.1353 6.74622 18.0643 6.55929 18.2456L6.96148 19.1123C6.08347 20.1602 4.12918 19.6957 3.47209 18.4722C3.62812 18.3729 3.88848 18.278 4.18004 18.1718C4.81998 17.9387 5.61024 17.6508 5.77758 17.141C3.40978 15.9345 1.7274 11.3575 2.89997 12.0202C2.67905 10.7174 3.50041 11.2725 3.85728 11.9636C3.86861 11.6634 4.14051 11.6803 4.33311 12.0146C5.12615 13.3854 6.12878 14.7166 7.38066 15.6682L9.89573 14.2124C10.5245 13.2551 10.8984 13.1531 11.5951 13.3457C11.5836 13.4398 11.5812 13.528 11.5788 13.6136C11.5743 13.7808 11.57 13.9382 11.4988 14.1105C11.1543 14.9321 10.1821 15.369 9.46356 15.6919ZM9.74845 16.2573C10.5585 15.8948 11.6404 15.3963 12.0823 14.354L12.0709 14.337C12.1899 14.0538 12.2012 13.8329 12.2012 13.6006C12.2012 13.5497 12.205 13.4987 12.2095 13.4385C12.2105 13.4251 12.2115 13.4112 12.2125 13.3967C12.2465 13.0908 12.0539 12.8019 11.7481 12.717C11.2552 12.581 10.8587 12.5584 10.4339 12.7566C10.0883 12.9209 9.77677 13.2155 9.43124 13.7196L7.42031 14.8865C6.96714 14.5013 6.54796 14.0595 6.16277 13.5836C5.68128 12.9945 5.25077 12.3431 4.87124 11.686C4.72963 11.4481 4.54836 11.2838 4.3671 11.1932C4.2538 11.1422 4.14051 11.1082 4.02156 11.1082C3.87428 10.944 3.71567 10.8137 3.56272 10.7287C3.37013 10.6211 3.1662 10.5758 2.96794 10.5984C2.70737 10.6267 2.49778 10.757 2.35617 11.0063L2.32785 11.0629C2.2712 11.1705 2.23721 11.3065 2.22022 11.4651C1.94832 11.6577 1.84069 11.9862 1.86901 12.3997C1.88601 12.6547 1.95965 12.9662 2.0786 13.3174C2.48079 14.5013 3.48342 16.246 4.76362 17.2486C4.5257 17.3619 4.22548 17.4752 3.95358 17.5715C3.93227 17.5795 3.91111 17.5874 3.89011 17.5953C3.59861 17.7043 3.33867 17.8016 3.13788 17.9284C2.84899 18.0983 2.74702 18.4722 2.90563 18.7724C3.07557 19.084 3.30782 19.3559 3.57405 19.5824C4.01023 19.9506 4.55969 20.1999 5.12049 20.2905C5.68694 20.3812 6.26473 20.3188 6.76322 20.0639L6.80853 20.0413C7.05211 19.911 7.26736 19.7411 7.45429 19.5201C7.60724 19.3389 7.65256 19.0783 7.54493 18.846L7.37499 18.4778L7.48828 18.4212C7.68088 18.3192 7.89613 18.2286 8.07173 18.1946C8.09439 18.189 8.07173 18.1436 8.05474 18.1153V18.104C8.13405 18.2229 8.253 18.3136 8.40028 18.3589C8.74582 18.4609 9.18766 18.3022 9.49355 17.985C9.62383 17.8491 9.74279 17.6791 9.82209 17.4865C9.90706 17.2826 9.94671 17.0504 9.92405 16.8068C9.90706 16.6255 9.85041 16.4386 9.74845 16.2573Z" fill="white"/>
</g>
<defs>
<clipPath id="clip0_66_2904">
<rect width="69.9916" height="61.5797" fill="white"/>
</clipPath>
</defs>
</svg>
