<?xml version="1.0" encoding="UTF-8"?>
<svg width="64" height="64" viewBox="0 0 64 64" fill="none" xmlns="http://www.w3.org/2000/svg">
    <path d="M0.376764 52.3317H0.117188V50.3164H0.377869V52.3317H0.376764Z" fill="#EFF5F2"/>
    <path d="M0.633917 52.3316V50.8345H0.876925V51.0853C0.99622 50.8972 1.17516 50.8037 1.41154 50.8037C1.58496 50.8037 1.72856 50.8609 1.84233 50.9731C1.95831 51.0842 2.01575 51.2261 2.01575 51.3988V52.3316H1.77274V51.4626C1.77274 51.3416 1.73077 51.2404 1.64792 51.1579C1.56729 51.0754 1.46567 51.0336 1.34416 51.0336C1.21272 51.0336 1.10226 51.0754 1.01168 51.1601C0.921108 51.2448 0.87582 51.3471 0.87582 51.4681V52.3316H0.632812H0.633917Z" fill="#EFF5F2"/>
    <path d="M2.2472 52.3316V50.8345H2.49021V51.0853C2.6095 50.8972 2.78844 50.8037 3.02482 50.8037C3.19824 50.8037 3.34184 50.8609 3.45561 50.9731C3.57159 51.0842 3.62903 51.2261 3.62903 51.3988V52.3316H3.38602V51.4626C3.38602 51.3416 3.34405 51.2404 3.2612 51.1579C3.18057 51.0754 3.07895 51.0336 2.95744 51.0336C2.826 51.0336 2.71554 51.0754 2.62497 51.1601C2.53439 51.2448 2.4891 51.3471 2.4891 51.4681V52.3316H2.24609H2.2472Z" fill="#EFF5F2"/>
</svg> 