<svg width="26" height="25" viewBox="0 0 26 25" fill="none" xmlns="http://www.w3.org/2000/svg">
<path d="M13.1687 4.08529C15.9057 4.08529 16.2299 4.09574 17.3109 4.14506C18.3103 4.19067 18.8531 4.35763 19.2143 4.49801C19.6595 4.66233 20.0623 4.92436 20.3929 5.26481C20.7334 5.59546 20.9954 5.99821 21.1597 6.44344C21.3001 6.80465 21.4671 7.34741 21.5127 8.34684C21.562 9.42778 21.5725 9.75195 21.5725 12.4891C21.5725 15.2262 21.562 15.5503 21.5127 16.6313C21.4671 17.6308 21.3001 18.1735 21.1597 18.5347C20.9892 18.9768 20.728 19.3783 20.393 19.7134C20.0579 20.0484 19.6564 20.3096 19.2143 20.4802C18.8531 20.6206 18.3103 20.7876 17.3109 20.8331C16.2302 20.8824 15.906 20.8929 13.1687 20.8929C10.4313 20.8929 10.1073 20.8824 9.02641 20.8331C8.02698 20.7875 7.48425 20.6205 7.12301 20.4802C6.67777 20.3159 6.27502 20.0538 5.94438 19.7134C5.60392 19.3827 5.3419 18.98 5.17757 18.5347C5.03719 18.1735 4.8702 17.6308 4.82463 16.6313C4.77531 15.5505 4.76485 15.2262 4.76485 12.4891C4.76485 9.75195 4.77531 9.42786 4.82463 8.34684C4.87024 7.34741 5.03719 6.80469 5.17757 6.44344C5.34192 5.99818 5.60397 5.59542 5.94446 5.26477C6.27511 4.92432 6.67785 4.66229 7.12309 4.49797C7.48429 4.35758 8.02706 4.19059 9.02649 4.14502C10.1074 4.0957 10.4316 4.08525 13.1687 4.08525M13.1687 2.23828C10.3848 2.23828 10.0356 2.25008 8.94242 2.29997C7.85132 2.34977 7.1062 2.52303 6.45418 2.77645C5.77021 3.03384 5.15061 3.43733 4.63859 3.95878C4.11702 4.47077 3.71342 5.09037 3.45593 5.77437C3.20272 6.42643 3.02946 7.17155 2.97986 8.26266C2.92977 9.35584 2.91797 9.70504 2.91797 12.489C2.91797 15.2729 2.92977 15.6221 2.97986 16.7153C3.02966 17.8064 3.20292 18.5515 3.45634 19.2035C3.71373 19.8875 4.11722 20.5071 4.63867 21.0191C5.15069 21.5406 5.77029 21.9441 6.45426 22.2015C7.10632 22.4549 7.85144 22.6281 8.9425 22.6779C10.0358 22.7278 10.3849 22.7396 13.1688 22.7396C15.9527 22.7396 16.302 22.7278 17.3951 22.6779C18.4862 22.6281 19.2314 22.4549 19.8834 22.2015C20.5643 21.9381 21.1827 21.5354 21.699 21.0191C22.2152 20.5029 22.6179 19.8845 22.8813 19.2035C23.1347 18.5515 23.308 17.8064 23.3578 16.7153C23.4077 15.6219 23.4195 15.2729 23.4195 12.489C23.4195 9.70508 23.4077 9.35584 23.3578 8.26266C23.308 7.17155 23.1347 6.42643 22.8813 5.77441C22.6239 5.09044 22.2204 4.47084 21.699 3.95882C21.1869 3.43727 20.5673 3.03369 19.8833 2.77625C19.2312 2.52303 18.4861 2.34977 17.395 2.30017C16.3018 2.25008 15.9526 2.23828 13.1687 2.23828H13.1687Z" fill="#062D24"/>
<path d="M13.1701 7.24219C12.129 7.24219 11.1113 7.55091 10.2457 8.12931C9.38004 8.70771 8.70535 9.52982 8.30694 10.4917C7.90853 11.4535 7.80429 12.5119 8.0074 13.533C8.2105 14.5541 8.71184 15.492 9.44801 16.2282C10.1842 16.9643 11.1221 17.4657 12.1432 17.6688C13.1643 17.8719 14.2227 17.7677 15.1845 17.3692C16.1464 16.9708 16.9685 16.2962 17.5469 15.4305C18.1253 14.5649 18.434 13.5472 18.434 12.5061C18.434 11.11 17.8794 9.77111 16.8922 8.78394C15.9051 7.79677 14.5662 7.24219 13.1701 7.24219ZM13.1701 15.9229C12.4943 15.9229 11.8337 15.7225 11.2718 15.3471C10.7099 14.9716 10.272 14.438 10.0134 13.8136C9.75477 13.1893 9.68711 12.5022 9.81896 11.8394C9.9508 11.1766 10.2762 10.5678 10.7541 10.09C11.232 9.6121 11.8408 9.28668 12.5036 9.15484C13.1664 9.02301 13.8534 9.09067 14.4778 9.34929C15.1021 9.60791 15.6357 10.0459 16.0112 10.6078C16.3866 11.1697 16.587 11.8303 16.587 12.5061C16.587 13.4123 16.227 14.2814 15.5862 14.9222C14.9454 15.5629 14.0763 15.9229 13.1701 15.9229Z" fill="#062D24"/>
<path d="M18.6363 8.257C19.3157 8.257 19.8664 7.70628 19.8664 7.02694C19.8664 6.34759 19.3157 5.79688 18.6363 5.79688C17.957 5.79688 17.4062 6.34759 17.4062 7.02694C17.4062 7.70628 17.957 8.257 18.6363 8.257Z" fill="#062D24"/>
</svg>
