<svg width="25" height="25" viewBox="0 0 25 25" fill="none" xmlns="http://www.w3.org/2000/svg">
<path fill-rule="evenodd" clip-rule="evenodd" d="M4.07538 23.3346H20.9272C22.2568 23.3346 23.3346 22.2568 23.3346 20.9272V4.07538C23.3346 2.7458 22.2568 1.66797 20.9272 1.66797H4.07538C2.7458 1.66797 1.66797 2.7458 1.66797 4.07538V20.9272C1.66797 22.2568 2.7458 23.3346 4.07538 23.3346Z" fill="#062D24"/>
<path fill-rule="evenodd" clip-rule="evenodd" d="M20.3278 20.3356H17.1126V14.8594C17.1126 13.358 16.5421 12.519 15.3537 12.519C14.0609 12.519 13.3855 13.3921 13.3855 14.8594V20.3356H10.2869V9.90355H13.3855V11.3088C13.3855 11.3088 14.3172 9.58483 16.5309 9.58483C18.7437 9.58483 20.3278 10.9361 20.3278 13.7307V20.3356ZM6.59037 8.53755C5.53494 8.53755 4.67969 7.67559 4.67969 6.61253C4.67969 5.54946 5.53494 4.6875 6.59037 4.6875C7.64581 4.6875 8.50055 5.54946 8.50055 6.61253C8.50055 7.67559 7.64581 8.53755 6.59037 8.53755ZM4.99041 20.3356H8.22141V9.90355H4.99041V20.3356Z" fill="white"/>
</svg>
