<?xml version="1.0" encoding="UTF-8"?>
<svg width="71" height="75" viewBox="0 0 71 75" fill="none" xmlns="http://www.w3.org/2000/svg">
<path d="M35.25 75C33.75 75 32.25 74.625 30.9 73.875L4.65 59.475C1.8 57.9 0 54.9 0 51.6V23.4C0 20.1 1.8 17.1 4.65 15.525L30.9 1.125C33.6 -0.375 36.825 -0.375 39.525 1.125L65.775 15.525C68.625 17.1 70.425 20.1 70.425 23.4V51.6C70.425 54.9 68.625 57.9 65.775 59.475L39.525 73.875C38.25 74.625 36.75 75 35.25 75ZM35.25 3C34.275 3 33.3 3.225 32.325 3.75L6.075 18.15C4.125 19.2 3 21.225 3 23.4V51.6C3 53.775 4.2 55.8 6.075 56.85L32.325 71.25C34.125 72.225 36.3 72.225 38.1 71.25L64.35 56.85C66.3 55.8 67.5 53.775 67.5 51.6V23.4C67.5 21.225 66.3 19.2 64.35 18.15L38.1 3.75C37.2 3.225 36.225 3 35.25 3Z" fill="#C6DAD0"/>
<path d="M69.0005 54.0002C68.1755 54.0002 67.5005 53.3252 67.5005 52.5002C67.5005 50.7752 63.9005 48.1502 55.8755 46.3502C55.0505 46.2002 54.5255 45.3752 54.7505 44.5502C54.9005 43.7252 55.7255 43.2002 56.5505 43.4252C62.9255 44.8502 70.5005 47.6252 70.5005 52.5002C70.5005 53.3252 69.8255 54.0002 69.0005 54.0002Z" fill="#C6DAD0"/>
<path d="M2.17578 52.0497C1.87578 52.0497 1.57578 51.9747 1.27578 51.7497C0.600781 51.2997 0.450781 50.3247 0.900781 49.6497C3.07578 46.5747 8.77578 44.6247 13.1258 43.5747C13.9508 43.3497 14.7758 43.8747 14.9258 44.6997C15.1508 45.5247 14.6258 46.3497 13.8008 46.4997C8.47578 47.7747 4.65078 49.5747 3.37578 51.3747C3.07578 51.8247 2.62578 52.0497 2.17578 52.0497Z" fill="#C6DAD0"/>
<path d="M35.251 60.3751C34.426 60.3751 33.751 59.7001 33.751 58.8751C33.751 58.0501 34.426 57.3751 35.251 57.3751C49.651 57.3751 56.701 54.4501 57.076 53.3251C57.076 53.3251 56.626 52.5001 53.551 51.5251C52.726 51.3001 52.351 50.4001 52.576 49.6501C52.801 48.8251 53.701 48.4501 54.451 48.6751C58.276 49.8751 60.076 51.4501 60.076 53.4001C60.076 58.9501 44.476 60.3751 35.251 60.3751Z" fill="#C6DAD0"/>
<path d="M22.8008 58.3502C22.7258 58.3502 22.7258 58.3502 22.6508 58.3502C17.7758 57.9752 11.9258 56.8502 11.9258 53.7752C11.9258 51.9002 14.0258 50.5502 18.3758 49.7252C19.2008 49.5752 19.9508 50.1002 20.1008 50.9252C20.2508 51.7502 19.7258 52.5002 18.9008 52.6502C16.9508 53.0252 15.8258 53.4002 15.3008 53.7002C16.2758 54.2252 18.6758 54.9002 22.8758 55.2752C23.7008 55.3502 24.3008 56.1002 24.2258 56.9252C24.2258 57.7502 23.5508 58.3502 22.8008 58.3502Z" fill="#C6DAD0"/>
<path d="M39.5251 54C34.3501 54 29.6251 51.15 27.3001 46.575C26.9251 45.825 27.2251 44.925 27.9751 44.55C28.7251 44.175 29.6251 44.475 30.0001 45.225C31.8001 48.75 35.4751 51 39.5251 51C45.4501 51 50.2501 46.275 50.2501 40.425C50.2501 37.95 49.3501 35.55 47.7751 33.6C47.2501 33 47.3251 32.025 47.9251 31.5C48.5251 30.975 49.5001 31.05 50.0251 31.65C52.1251 34.125 53.2501 37.2 53.2501 40.425C53.2501 47.925 47.1001 54 39.5251 54Z" fill="#C6DAD0"/>
<path d="M45.5243 36.9C44.9993 36.9 44.4743 36.6 44.1743 36.15C43.7993 35.4 44.0243 34.5 44.7743 34.125C48.1493 32.25 50.2493 28.65 50.2493 24.825C50.2493 18.975 45.4493 14.25 39.5243 14.25C34.7993 14.25 30.5243 17.4 29.2493 21.9C29.0243 22.725 28.1993 23.175 27.3743 22.95C26.5493 22.725 26.0993 21.9 26.3243 21.075C28.0493 15.3 33.4493 11.25 39.5243 11.25C47.0993 11.25 53.2493 17.325 53.2493 24.825C53.2493 29.775 50.5493 34.275 46.1993 36.675C45.9743 36.825 45.7493 36.9 45.5243 36.9Z" fill="#C6DAD0"/>
<path d="M26.474 47.1001C18.899 47.1001 12.749 40.9501 12.749 33.5251C12.749 26.1001 18.899 19.9501 26.474 19.9501C28.499 19.9501 30.524 20.4001 32.399 21.3001C33.149 21.6751 33.449 22.5751 33.149 23.3251C32.774 24.0751 31.874 24.3751 31.124 24.0751C29.699 23.4001 28.124 23.0251 26.549 23.0251C20.624 23.0251 15.824 27.7501 15.824 33.6001C15.824 39.4501 20.624 44.1751 26.549 44.1751C28.124 44.1751 29.699 43.8751 31.124 43.2001C31.874 42.8251 32.774 43.2001 33.149 43.9501C33.524 44.7001 33.149 45.6001 32.399 45.9751C30.449 46.6501 28.499 47.1001 26.474 47.1001Z" fill="#C6DAD0"/>
<path d="M25.5742 40.3498C21.8992 40.3498 18.8242 37.3498 18.8242 33.6748C18.8242 32.8498 19.4992 32.1748 20.3242 32.1748C21.1492 32.1748 21.8242 32.8498 21.8242 33.6748C21.8242 35.6998 23.4742 37.3498 25.5742 37.3498C26.3992 37.3498 27.0742 38.0248 27.0742 38.8498C27.0742 39.6748 26.3992 40.3498 25.5742 40.3498Z" fill="#C6DAD0"/>
</svg>
