<?xml version="1.0" encoding="UTF-8"?>
<svg width="71" height="75" viewBox="0 0 71 75" fill="none" xmlns="http://www.w3.org/2000/svg">
<path d="M35.25 75C33.75 75 32.25 74.625 30.9 73.875L4.65 59.475C1.8 57.9 0 54.9 0 51.6V23.4C0 20.1 1.8 17.1 4.65 15.525L30.9 1.125C33.6 -0.375 36.825 -0.375 39.525 1.125L65.775 15.525C68.625 17.1 70.425 20.1 70.425 23.4V51.6C70.425 54.9 68.625 57.9 65.775 59.475L39.525 73.875C38.25 74.625 36.75 75 35.25 75ZM35.25 3C34.275 3 33.3 3.225 32.325 3.75L6.075 18.15C4.125 19.2 3 21.225 3 23.4V51.6C3 53.775 4.2 55.8 6.075 56.85L32.325 71.25C34.125 72.225 36.3 72.225 38.1 71.25L64.35 56.85C66.3 55.8 67.5 53.775 67.5 51.6V23.4C67.5 21.225 66.3 19.2 64.35 18.15L38.1 3.75C37.2 3.225 36.225 3 35.25 3Z" fill="#C6DAD0"/>
<path d="M35.0938 37.477C34.2687 37.477 33.5938 36.802 33.5938 35.977V10.252C33.5938 9.42695 34.2687 8.75195 35.0938 8.75195C35.9188 8.75195 36.5937 9.42695 36.5937 10.252V35.977C36.5937 36.802 35.9188 37.477 35.0938 37.477Z" fill="#C6DAD0"/>
<path d="M12.7439 50.7517C12.2189 50.7517 11.6939 50.4517 11.4689 50.0017C11.0189 49.2517 11.3189 48.3517 11.9939 47.9767L34.1189 35.2267C34.8689 34.7767 35.7689 35.0767 36.1439 35.7517C36.5939 36.5017 36.2939 37.4017 35.6189 37.7767L13.4939 50.5267C13.2689 50.6767 12.9689 50.7517 12.7439 50.7517Z" fill="#C6DAD0"/>
<path d="M57.3682 50.752C57.1432 50.752 56.8432 50.677 56.6182 50.527L34.4932 37.777C33.7432 37.327 33.5182 36.427 33.9682 35.752C34.4182 35.002 35.3182 34.777 35.9932 35.227L58.1182 47.977C58.8682 48.427 59.0932 49.327 58.6432 50.002C58.3432 50.452 57.8182 50.752 57.3682 50.752Z" fill="#C6DAD0"/>
<path d="M59.9311 25.8677C59.7197 25.8861 59.5566 25.8472 59.3361 25.76C56.5743 24.6175 53.1119 23.3766 52.1425 23.2485C51.3157 23.5337 50.5872 23.1183 50.2722 22.5603C49.279 20.9437 51.8599 18.8014 52.3604 18.4382C53.4098 17.6543 54.8224 17.371 56.0791 17.7402C57.0578 17.974 60.7315 19.1964 62.8705 19.9143C63.0336 19.9532 63.206 20.0979 63.3209 20.1943C63.5507 20.3871 63.7323 20.6374 63.7601 20.9544C63.8545 21.4253 63.795 21.9628 63.5058 22.3075L60.9989 25.2951C60.7671 25.688 60.363 25.9363 59.9311 25.8677ZM54.4268 20.7595C55.626 21.0804 57.2757 21.6814 59.5388 22.6014L59.9245 22.1417C57.6224 21.3849 55.8671 20.7932 55.4926 20.7727C55.4352 20.7245 55.387 20.7819 55.3295 20.7337C55.0033 20.6558 54.6863 20.6835 54.4268 20.7595Z" fill="#C6DAD0"/>
<path d="M54.5053 31.9854C54.294 32.0039 54.1308 31.9649 53.9103 31.8777C51.1485 30.7352 47.6861 29.4943 46.7167 29.3662C45.8899 29.6515 45.1615 29.2361 44.8465 28.6781C43.8533 27.0614 46.4823 24.8617 46.9347 24.5559C47.984 23.7721 49.3966 23.4888 50.6533 23.8579C51.5746 24.0435 54.8646 25.1398 57.4447 26.032C57.6079 26.071 57.7802 26.2156 57.8951 26.312C58.1249 26.5049 58.3065 26.7551 58.3917 27.1203C58.4862 27.5912 58.4267 28.1288 58.1375 28.4735L55.6306 31.4611C55.3895 31.7483 54.9279 31.9484 54.5053 31.9854ZM48.9435 26.829C50.1428 27.15 51.7925 27.7509 54.0556 28.6709L54.4413 28.2113C51.8129 27.3765 50.3356 26.9202 50.0094 26.8422C49.952 26.794 49.9038 26.8515 49.8463 26.8033C49.5683 26.6679 49.2513 26.6956 48.9435 26.829Z" fill="#C6DAD0"/>
<path d="M49.2123 37.8252C49.0492 37.7863 48.9435 37.7955 48.7804 37.7565C45.9889 36.8828 41.5478 35.4081 40.8379 35.2041C40.5117 35.1261 40.2337 34.9907 39.9946 34.6922C39.5257 34.2009 39.461 33.4613 39.8375 32.896C40.1082 32.3399 40.5831 31.074 41.6899 30.3383C42.7392 29.5544 44.1036 29.3286 45.4085 29.6403C46.3872 29.8741 50.061 31.0965 52.2 31.8144C52.3631 31.8534 52.5354 31.998 52.6503 32.0944C52.8802 32.2873 53.0618 32.5375 53.0895 32.8545C53.1839 33.3254 53.1245 33.8629 52.8352 34.2077L50.3284 37.1952C50.0483 37.6456 49.6924 37.8365 49.2123 37.8252ZM43.3521 32.9079C44.062 33.112 44.8293 33.3643 45.5967 33.6165C46.7478 33.9949 47.8988 34.3734 48.6662 34.6256L49.1001 34.1086C46.798 33.3517 45.0426 32.76 44.6682 32.7395C44.6108 32.6913 44.5625 32.7488 44.5051 32.7006C44.1696 32.517 43.8044 32.6022 43.3521 32.9079Z" fill="#C6DAD0"/>
<path d="M56.8394 28.8533C56.4649 28.8328 56.0812 28.7067 55.7365 28.4174L50.3009 22.8773C49.7171 22.2896 49.7396 21.3294 50.3274 20.7456C50.9151 20.1618 51.8753 20.1843 52.4591 20.772L57.8947 26.3121C58.4785 26.8999 58.456 27.8601 57.8683 28.4438C57.6272 28.7311 57.262 28.8163 56.8394 28.8533Z" fill="#C6DAD0"/>
<path d="M51.758 34.6744C51.3835 34.6539 50.9999 34.5278 50.7126 34.2867L45.0841 28.9765C44.5004 28.3887 44.4746 27.486 45.0049 26.854C45.5927 26.2702 46.4954 26.2445 47.1274 26.7748L52.7559 32.085C53.3396 32.6728 53.3654 33.5755 52.8351 34.2075C52.5458 34.5522 52.1324 34.6949 51.758 34.6744Z" fill="#C6DAD0"/>
<path d="M30.2545 52.3233C30.2327 53.6071 31.2558 54.6656 32.5397 54.6874C33.8235 54.7093 34.882 53.6862 34.9038 52.4023C34.9257 51.1184 33.9026 50.0599 32.6187 50.0381C31.3348 50.0163 30.2763 51.0394 30.2545 52.3233Z" fill="#C6DAD0"/>
<path d="M31.7552 52.3491C31.7474 52.8046 32.1105 53.1802 32.566 53.188C33.0216 53.1957 33.3972 52.8327 33.4049 52.3771C33.4127 51.9216 33.0496 51.546 32.5941 51.5382C32.1385 51.5305 31.7629 51.8935 31.7552 52.3491Z" fill="#C6DAD0"/>
<path d="M36.3807 55.2493C36.3638 56.2433 37.1558 57.0627 38.1498 57.0796C39.1438 57.0965 39.9632 56.3045 39.9801 55.3105C39.997 54.3165 39.205 53.497 38.211 53.4801C37.217 53.4632 36.3976 54.2553 36.3807 55.2493Z" fill="#C6DAD0"/>
<path d="M37.8803 55.2751C37.8775 55.4408 38.0095 55.5773 38.1752 55.5802C38.3409 55.583 38.4774 55.451 38.4803 55.2853C38.4831 55.1196 38.3511 54.9831 38.1854 54.9803C38.0197 54.9774 37.8832 55.1094 37.8803 55.2751Z" fill="#C6DAD0"/>
<path d="M32.0594 59.8928C32.0425 60.8868 32.8346 61.7063 33.8285 61.7232C34.8225 61.7401 35.642 60.948 35.6589 59.954C35.6758 58.9601 34.8837 58.1406 33.8897 58.1237C32.8957 58.1068 32.0763 58.8989 32.0594 59.8928Z" fill="#C6DAD0"/>
<path d="M33.56 59.9187C33.5572 60.0843 33.6892 60.2209 33.8549 60.2237C34.0205 60.2265 34.1571 60.0945 34.1599 59.9289C34.1628 59.7632 34.0307 59.6266 33.8651 59.6238C33.6994 59.621 33.5628 59.753 33.56 59.9187Z" fill="#C6DAD0"/>
<path d="M29.2951 67.0227C27.5701 67.0227 26.1451 65.5977 26.1451 63.8727V55.0227C24.6451 53.5227 23.0701 50.5227 25.4701 47.0727C28.0201 43.3977 32.3701 43.7727 35.1451 45.0477C37.9201 43.7727 42.2701 43.3977 44.8201 47.0727C47.2201 50.5977 45.6451 53.5977 44.1451 55.0977V63.9477C44.1451 65.7477 42.7201 67.0977 40.9201 67.0977H29.2951C29.2951 67.0227 29.2951 67.0227 29.2951 67.0227ZM31.0951 47.1477C29.9701 47.1477 28.7701 47.5227 27.8701 48.7977C26.2201 51.1977 28.0951 52.9227 28.5451 53.2227C28.9201 53.5227 29.1451 53.9727 29.1451 54.4227V63.9477C29.1451 64.0227 29.2201 64.0977 29.2951 64.0977H40.9201C40.9951 64.0977 41.0701 64.0227 41.0701 63.9477V54.4227C41.0701 53.9727 41.2951 53.5227 41.6701 53.2227C42.0451 52.9227 43.9951 51.2727 42.2701 48.7977C40.0201 45.6477 35.8201 48.0477 35.8201 48.0477C35.3701 48.3477 34.7701 48.3477 34.3201 48.0477C34.3951 47.9727 32.8201 47.1477 31.0951 47.1477Z" fill="#C6DAD0"/>
<path d="M23.5511 29.6312C23.0261 29.6312 22.5011 29.3312 22.2761 28.8812C21.9011 28.1312 22.1261 27.2312 22.8761 26.8562C24.0011 26.2562 24.7511 25.2062 25.1261 24.0062C25.8761 21.4562 24.4511 18.7562 21.9011 17.9312C19.3511 17.1812 16.6511 18.6062 15.8261 21.1562C15.6011 21.9812 14.7761 22.4312 13.9511 22.1312C13.1261 21.9062 12.6761 21.0812 12.9761 20.2562C14.2511 16.1312 18.6011 13.7312 22.7261 15.0062C26.8511 16.2812 29.2511 20.6312 27.9761 24.7562C27.3761 26.7062 26.1011 28.3562 24.3011 29.3312C24.0761 29.5562 23.8511 29.6312 23.5511 29.6312Z" fill="#C6DAD0"/>
<path d="M20.4751 38.6311C18.2251 38.6311 16.0501 37.7311 14.4751 35.8561C14.1001 35.4061 13.7251 34.8811 13.4251 34.2811C13.0501 33.5311 13.3501 32.6311 14.1001 32.2561C14.8501 31.8811 15.7501 32.1811 16.1251 32.9311C16.3501 33.3061 16.5001 33.6061 16.8001 33.9061C18.5251 35.9311 21.6001 36.1561 23.6251 34.4311C25.6501 32.7061 25.8751 29.6311 24.1501 27.6061C23.6251 27.0061 23.7001 26.0311 24.3001 25.5061C24.9001 24.9811 25.8751 25.0561 26.4001 25.6561C29.2501 28.9561 28.8751 33.9061 25.5751 36.7561C24.1501 38.0311 22.2751 38.6311 20.4751 38.6311Z" fill="#C6DAD0"/>
<path d="M13.6504 34.9561C11.5504 34.9561 9.52539 34.1311 8.10039 32.6311C6.67539 31.1311 5.77539 29.1811 5.77539 27.0811C5.77539 22.7311 9.30039 19.2061 13.6504 19.2061C14.7754 19.2061 15.9754 19.5061 17.0254 19.9561C17.7754 20.3311 18.0754 21.2311 17.7004 21.9811C17.4004 22.7311 16.5004 23.0311 15.7504 22.6561C15.0754 22.3561 14.4004 22.2061 13.6504 22.2061C10.9504 22.2061 8.77539 24.3811 8.77539 27.0811C8.77539 28.3561 9.30039 29.6311 10.2004 30.5311C11.1004 31.4311 12.3754 31.9561 13.6504 31.9561C14.3254 31.9561 15.0754 31.8061 15.6754 31.5061C16.4254 31.1311 17.3254 31.5061 17.7004 32.2561C18.0754 33.0061 17.7004 33.9061 16.9504 34.2811C15.9754 34.7311 14.7754 34.9561 13.6504 34.9561Z" fill="#C6DAD0"/>
<path d="M14.9256 30.5313C12.6006 30.5313 10.7256 28.6563 10.7256 26.2563C10.7256 25.4313 11.4006 24.7563 12.2256 24.7563C13.0506 24.7563 13.7256 25.4313 13.7256 26.2563C13.7256 26.9313 14.2506 27.4563 14.9256 27.4563C15.7506 27.4563 16.4256 28.1313 16.4256 28.9563C16.4256 29.8563 15.7506 30.5313 14.9256 30.5313Z" fill="#C6DAD0"/>
</svg>
