<?xml version="1.0" encoding="UTF-8"?>
<svg width="71" height="75" viewBox="0 0 71 75" fill="none" xmlns="http://www.w3.org/2000/svg">
<path d="M35.25 75C33.75 75 32.25 74.625 30.9 73.875L4.65 59.475C1.8 57.9 0 54.9 0 51.6V23.4C0 20.1 1.8 17.1 4.65 15.525L30.9 1.125C33.6 -0.375 36.825 -0.375 39.525 1.125L65.775 15.525C68.625 17.1 70.425 20.1 70.425 23.4V51.6C70.425 54.9 68.625 57.9 65.775 59.475L39.525 73.875C38.25 74.625 36.75 75 35.25 75ZM35.25 3C34.275 3 33.3 3.225 32.325 3.75L6.075 18.15C4.125 19.2 3 21.225 3 23.4V51.6C3 53.775 4.2 55.8 6.075 56.85L32.325 71.25C34.125 72.225 36.3 72.225 38.1 71.25L64.35 56.85C66.3 55.8 67.5 53.775 67.5 51.6V23.4C67.5 21.225 66.3 19.2 64.35 18.15L38.1 3.75C37.2 3.225 36.225 3 35.25 3Z" fill="#C6DAD0"/>
<path d="M54.6026 31.2749C54.3776 31.2749 54.2276 31.1999 54.0026 31.1249C46.5776 28.1249 37.7276 24.9749 35.9276 25.0499C34.6526 25.6499 33.8276 24.9749 33.5276 24.5249C32.3276 22.4999 36.7526 18.1499 37.9526 17.3999C40.5776 15.6749 42.3776 15.6749 44.9276 16.1249C47.0276 16.4999 57.5276 20.0999 60.9026 21.2249C61.4276 21.3749 61.8776 21.8249 61.9526 22.3499C62.0276 22.7999 61.9526 23.3249 61.5776 23.6999L55.8026 30.7499C55.5026 31.0499 55.0526 31.2749 54.6026 31.2749ZM37.2776 22.2749C39.6776 22.6499 44.4776 23.9999 54.0776 27.8999H54.1526L57.9026 23.4749V23.3999C51.8276 21.2999 45.6776 19.3499 44.4776 19.1249C42.6026 18.7499 41.5526 18.7499 39.6776 19.9499C38.7026 20.6249 37.9526 21.3749 37.2776 22.2749Z" fill="#C6DAD0"/>
<path d="M42.3028 45.9748C42.0778 45.9748 41.9278 45.8998 41.7028 45.8998C34.4278 42.8998 25.6528 39.8248 23.7028 39.8248H23.6278C22.3528 40.4248 21.5278 39.7498 21.2278 39.2998C20.0278 37.2748 24.4528 32.9248 25.6528 32.1748C28.2778 30.4498 30.0778 30.4498 32.6278 30.8998C34.6528 31.2748 45.2278 34.8748 48.6028 35.9998C49.1278 36.1498 49.5778 36.5998 49.6528 37.1248C49.7278 37.5748 49.6528 38.0998 49.2778 38.4748L43.3528 45.5248C43.1278 45.8248 42.7528 45.9748 42.3028 45.9748ZM25.0528 37.0498C27.5278 37.4998 32.2528 38.8498 41.7778 42.6748H41.8528L45.6028 38.2498V38.1748C39.5278 36.0748 33.3778 34.1248 32.1778 33.8998C30.3028 33.5248 29.2528 33.5248 27.3778 34.7248C26.5528 35.3248 25.7278 36.1498 25.1278 36.9748C24.9778 36.9748 24.9778 37.0498 25.0528 37.0498Z" fill="#C6DAD0"/>
<path d="M31.127 59.25C30.902 59.25 30.752 59.175 30.527 59.1C23.252 56.1 14.477 53.025 12.527 53.025H12.452C10.952 52.95 10.352 52.95 10.052 52.5C8.85203 50.475 13.277 46.125 14.477 45.375C17.102 43.65 18.902 43.65 21.452 44.1C23.627 44.475 35.102 48.375 37.427 49.2C38.252 49.5 38.627 50.325 38.327 51.15C38.252 51.3 38.177 51.45 38.102 51.6L32.252 58.725C31.952 59.1 31.577 59.25 31.127 59.25ZM13.802 50.325C16.202 50.7 21.002 52.05 30.602 55.95H30.677L34.427 51.525V51.45C29.327 49.725 22.352 47.4 21.002 47.175C19.127 46.8 18.077 46.8 16.202 48C15.227 48.675 14.477 49.425 13.802 50.325Z" fill="#C6DAD0"/>
<path d="M42.0777 26.3248L44.7027 25.1998H44.7777L49.5027 36.6748C49.6527 36.9748 49.5027 37.3498 49.2027 37.4248L47.0277 38.3248C47.0277 38.3248 46.7277 37.7248 46.7277 37.6498L42.0777 26.3998C42.0027 26.3998 42.0027 26.3248 42.0777 26.3248Z" fill="#C6DAD0"/>
<path d="M31.1266 40.1999L32.2516 39.7499C33.0766 39.3749 34.1266 39.8249 34.4266 40.6499L38.3266 49.9499C38.4766 50.2499 38.3266 50.5499 38.0266 50.6999L35.8516 51.5999H35.7766L31.1266 40.3499C31.0516 40.2749 31.0516 40.1999 31.1266 40.1999Z" fill="#C6DAD0"/>
<path d="M34.052 23.1751L35.627 23.1001C36.002 23.1001 36.377 23.4001 36.377 23.7751L36.827 31.8751C36.827 32.2501 36.527 32.6251 36.152 32.6251L34.577 32.7001C34.202 32.7001 33.827 32.4001 33.827 32.0251L33.377 24.0001C33.377 23.5501 33.677 23.2501 34.052 23.1751Z" fill="#C6DAD0"/>
<path d="M21.826 37.95L23.926 37.875C23.926 37.875 24.001 37.875 24.001 37.95L24.526 47.25C24.526 47.25 24.526 47.325 24.451 47.325L22.876 47.4C22.126 47.475 21.451 46.875 21.451 46.125L21.076 38.775C21.001 38.325 21.376 37.95 21.826 37.95Z" fill="#C6DAD0"/>
</svg>
