<?xml version="1.0" encoding="UTF-8"?>
<svg width="71" height="75" viewBox="0 0 71 75" fill="none" xmlns="http://www.w3.org/2000/svg">
<path d="M35.25 75C33.75 75 32.25 74.625 30.9 73.875L4.65 59.475C1.8 57.9 0 54.9 0 51.6V23.4C0 20.1 1.8 17.1 4.65 15.525L30.9 1.125C33.6 -0.375 36.825 -0.375 39.525 1.125L65.775 15.525C68.625 17.1 70.425 20.1 70.425 23.4V51C70.425 51.825 69.75 52.5 68.925 52.5C68.1 52.5 67.425 51.825 67.425 51V23.4C67.425 21.225 66.225 19.2 64.275 18.15L38.1 3.75C36.3 2.775 34.125 2.775 32.325 3.75L6.075 18.15C4.125 19.2 3 21.225 3 23.4V51.6C3 53.775 4.2 55.8 6.075 56.85L32.325 71.25C34.125 72.225 36.3 72.225 38.1 71.25L55.5 61.725C56.25 61.35 57.15 61.575 57.525 62.325C57.9 63.075 57.675 63.975 56.925 64.35L39.6 73.875C38.25 74.625 36.75 75 35.25 75Z" fill="#C6DAD0"/>
<path d="M38.8444 25.3506C39.9694 25.3506 41.0943 25.6507 42.1443 26.2507C43.5693 27.1507 44.6194 28.5009 45.0694 30.1509C45.5194 31.8009 45.2194 33.5258 44.3194 34.9508L37.2693 46.6509C36.1443 48.5259 34.0443 49.7256 31.7943 49.7256C30.6693 49.7256 29.5444 49.4258 28.4944 48.8258C27.0694 47.9258 26.0194 46.5757 25.5694 44.9257C25.1194 43.2757 25.4194 41.5507 26.3194 40.1257L33.3694 28.4257C34.5694 26.5507 36.6694 25.3506 38.8444 25.3506ZM38.8444 22.3506C35.6944 22.3506 32.5444 24.0007 30.8194 26.9257L23.7693 38.6257C21.1443 43.0507 22.5694 48.8259 26.9944 51.5259C28.4944 52.4259 30.1443 52.8757 31.7943 52.8757C34.9443 52.8757 38.0944 51.2257 39.8194 48.3007L46.8694 36.6006C49.4944 32.1756 48.0693 26.4008 43.6443 23.7008C42.1443 22.8008 40.4944 22.3506 38.8444 22.3506Z" fill="#C6DAD0"/>
<path d="M40.9488 43.5759C40.6488 43.5759 40.4238 43.5007 40.1988 43.3507L28.8737 36.5259C28.1987 36.0759 27.8987 35.1758 28.3487 34.5008C28.7987 33.8258 29.6987 33.5257 30.3737 33.9757L41.6988 40.8007C42.3738 41.2507 42.6737 42.1509 42.2237 42.8259C41.9987 43.3509 41.4738 43.5759 40.9488 43.5759Z" fill="#C6DAD0"/>
<path d="M38.998 31.2764C39.8265 31.2764 40.498 30.6048 40.498 29.7764C40.498 28.9479 39.8265 28.2764 38.998 28.2764C38.1696 28.2764 37.498 28.9479 37.498 29.7764C37.498 30.6048 38.1696 31.2764 38.998 31.2764Z" fill="#C6DAD0"/>
<path d="M35.3223 34.9512C36.1507 34.9512 36.8223 34.2796 36.8223 33.4512C36.8223 32.6227 36.1507 31.9512 35.3223 31.9512C34.4938 31.9512 33.8223 32.6227 33.8223 33.4512C33.8223 34.2796 34.4938 34.9512 35.3223 34.9512Z" fill="#C6DAD0"/>
<path d="M40.0488 36.1514C40.8773 36.1514 41.5488 35.4798 41.5488 34.6514C41.5488 33.8229 40.8773 33.1514 40.0488 33.1514C39.2204 33.1514 38.5488 33.8229 38.5488 34.6514C38.5488 35.4798 39.2204 36.1514 40.0488 36.1514Z" fill="#C6DAD0"/>
<path d="M55.9479 64.2011C55.1229 64.2011 54.2979 63.9009 53.6979 63.2259L48.1478 57.0761C47.0228 55.8761 47.1729 53.9261 48.3729 52.8761C49.5729 51.7511 51.5229 51.9009 52.5729 53.1009L58.1229 59.2511C59.2479 60.4511 59.0978 62.4011 57.8978 63.4511C57.3728 63.9761 56.6229 64.2011 55.9479 64.2011Z" fill="#C6DAD0"/>
<path d="M35.248 17.0254C46.423 17.0254 55.498 26.1004 55.498 37.2754C55.498 48.4504 46.423 57.5254 35.248 57.5254C24.073 57.5254 14.998 48.4504 14.998 37.2754C14.998 26.1004 24.073 17.0254 35.248 17.0254ZM58.498 37.2754C58.498 24.4504 48.073 14.0254 35.248 14.0254C22.423 14.0254 11.998 24.4504 11.998 37.2754C11.998 50.1004 22.423 60.5254 35.248 60.5254C48.073 60.5254 58.498 50.1004 58.498 37.2754Z" fill="#C6DAD0"/>
</svg>
